{
	"patcher" : 	{
		"fileversion" : 1,
		"rect" : [ 78.0, 256.0, 623.0, 582.0 ],
		"bglocked" : 0,
		"defrect" : [ 78.0, 256.0, 623.0, 582.0 ],
		"openrect" : [ 0.0, 0.0, 0.0, 0.0 ],
		"openinpresentation" : 0,
		"default_fontsize" : 10.0,
		"default_fontface" : 0,
		"default_fontname" : "Arial",
		"gridonopen" : 0,
		"gridsize" : [ 15.0, 15.0 ],
		"gridsnaponopen" : 0,
		"toolbarvisible" : 1,
		"boxanimatetime" : 200,
		"imprint" : 0,
		"enablehscroll" : 1,
		"enablevscroll" : 1,
		"devicewidth" : 0.0,
		"boxes" : [ 			{
				"box" : 				{
					"maxclass" : "inlet",
					"id" : "obj-27",
					"numinlets" : 0,
					"numoutlets" : 1,
					"patching_rect" : [ 301.0, 43.0, 25.0, 25.0 ],
					"outlettype" : [ "" ],
					"comment" : "(matrix) optical flow - y-axis"
				}

			}
, 			{
				"box" : 				{
					"maxclass" : "newobj",
					"text" : "gate 2 1",
					"id" : "obj-15",
					"fontname" : "Arial",
					"fontsize" : 10.0,
					"numinlets" : 2,
					"numoutlets" : 2,
					"patching_rect" : [ 72.0, 149.0, 48.0, 18.0 ],
					"outlettype" : [ "", "" ]
				}

			}
, 			{
				"box" : 				{
					"maxclass" : "newobj",
					"text" : "cv.jit.changetype char",
					"id" : "obj-14",
					"fontname" : "Arial",
					"fontsize" : 10.0,
					"numinlets" : 1,
					"numoutlets" : 1,
					"patching_rect" : [ 72.0, 352.0, 107.0, 18.0 ],
					"outlettype" : [ "jit_matrix" ]
				}

			}
, 			{
				"box" : 				{
					"maxclass" : "newobj",
					"text" : "jit.op @op / @val 5.",
					"id" : "obj-13",
					"fontname" : "Arial",
					"fontsize" : 10.0,
					"numinlets" : 2,
					"numoutlets" : 2,
					"patching_rect" : [ 72.0, 326.0, 98.0, 18.0 ],
					"outlettype" : [ "jit_matrix", "" ]
				}

			}
, 			{
				"box" : 				{
					"maxclass" : "newobj",
					"text" : "p list_change",
					"id" : "obj-39",
					"fontname" : "Arial",
					"fontsize" : 10.0,
					"numinlets" : 1,
					"numoutlets" : 1,
					"patching_rect" : [ 258.0, 313.0, 69.0, 18.0 ],
					"outlettype" : [ "" ],
					"patcher" : 					{
						"fileversion" : 1,
						"rect" : [ 0.0, 0.0, 640.0, 480.0 ],
						"bglocked" : 0,
						"defrect" : [ 0.0, 0.0, 640.0, 480.0 ],
						"openrect" : [ 0.0, 0.0, 0.0, 0.0 ],
						"openinpresentation" : 0,
						"default_fontsize" : 10.0,
						"default_fontface" : 0,
						"default_fontname" : "Arial",
						"gridonopen" : 0,
						"gridsize" : [ 15.0, 15.0 ],
						"gridsnaponopen" : 0,
						"toolbarvisible" : 1,
						"boxanimatetime" : 200,
						"imprint" : 0,
						"enablehscroll" : 1,
						"enablevscroll" : 1,
						"devicewidth" : 0.0,
						"boxes" : [ 							{
								"box" : 								{
									"maxclass" : "newobj",
									"text" : "==",
									"id" : "obj-28",
									"fontname" : "Arial",
									"fontsize" : 10.0,
									"numinlets" : 2,
									"numoutlets" : 1,
									"patching_rect" : [ 74.0, 162.0, 32.5, 18.0 ],
									"outlettype" : [ "int" ]
								}

							}
, 							{
								"box" : 								{
									"maxclass" : "newobj",
									"text" : "gate",
									"id" : "obj-23",
									"fontname" : "Arial",
									"fontsize" : 10.0,
									"numinlets" : 2,
									"numoutlets" : 1,
									"patching_rect" : [ 50.0, 194.0, 32.5, 18.0 ],
									"outlettype" : [ "" ]
								}

							}
, 							{
								"box" : 								{
									"maxclass" : "newobj",
									"text" : "t l l l",
									"id" : "obj-21",
									"fontname" : "Arial",
									"fontsize" : 10.0,
									"numinlets" : 1,
									"numoutlets" : 3,
									"patching_rect" : [ 75.0, 100.0, 46.0, 18.0 ],
									"outlettype" : [ "", "", "" ]
								}

							}
, 							{
								"box" : 								{
									"maxclass" : "newobj",
									"text" : "zl compare",
									"id" : "obj-20",
									"fontname" : "Arial",
									"fontsize" : 10.0,
									"numinlets" : 2,
									"numoutlets" : 2,
									"patching_rect" : [ 74.0, 137.0, 59.0, 18.0 ],
									"outlettype" : [ "", "" ]
								}

							}
, 							{
								"box" : 								{
									"maxclass" : "inlet",
									"id" : "obj-37",
									"numinlets" : 0,
									"numoutlets" : 1,
									"patching_rect" : [ 75.0, 40.0, 25.0, 25.0 ],
									"outlettype" : [ "" ],
									"comment" : ""
								}

							}
, 							{
								"box" : 								{
									"maxclass" : "outlet",
									"id" : "obj-38",
									"numinlets" : 1,
									"numoutlets" : 0,
									"patching_rect" : [ 50.0, 272.0, 25.0, 25.0 ],
									"comment" : ""
								}

							}
 ],
						"lines" : [ 							{
								"patchline" : 								{
									"source" : [ "obj-23", 0 ],
									"destination" : [ "obj-38", 0 ],
									"hidden" : 0,
									"midpoints" : [  ]
								}

							}
, 							{
								"patchline" : 								{
									"source" : [ "obj-37", 0 ],
									"destination" : [ "obj-21", 0 ],
									"hidden" : 0,
									"midpoints" : [  ]
								}

							}
, 							{
								"patchline" : 								{
									"source" : [ "obj-21", 2 ],
									"destination" : [ "obj-20", 0 ],
									"hidden" : 0,
									"midpoints" : [  ]
								}

							}
, 							{
								"patchline" : 								{
									"source" : [ "obj-21", 1 ],
									"destination" : [ "obj-20", 1 ],
									"hidden" : 0,
									"midpoints" : [  ]
								}

							}
, 							{
								"patchline" : 								{
									"source" : [ "obj-20", 0 ],
									"destination" : [ "obj-28", 0 ],
									"hidden" : 0,
									"midpoints" : [  ]
								}

							}
, 							{
								"patchline" : 								{
									"source" : [ "obj-28", 0 ],
									"destination" : [ "obj-23", 0 ],
									"hidden" : 0,
									"midpoints" : [ 83.5, 185.0, 59.5, 185.0 ]
								}

							}
, 							{
								"patchline" : 								{
									"source" : [ "obj-21", 0 ],
									"destination" : [ "obj-23", 1 ],
									"hidden" : 0,
									"midpoints" : [ 84.5, 125.0, 73.0, 125.0 ]
								}

							}
 ]
					}
,
					"saved_object_attributes" : 					{
						"fontname" : "Arial",
						"globalpatchername" : "",
						"default_fontface" : 0,
						"fontface" : 0,
						"fontsize" : 10.0,
						"default_fontname" : "Arial",
						"default_fontsize" : 10.0
					}

				}

			}
, 			{
				"box" : 				{
					"maxclass" : "newobj",
					"text" : "jit.matrix",
					"id" : "obj-32",
					"fontname" : "Arial",
					"fontsize" : 10.0,
					"numinlets" : 1,
					"numoutlets" : 2,
					"patching_rect" : [ 258.0, 358.0, 48.0, 18.0 ],
					"outlettype" : [ "jit_matrix", "" ]
				}

			}
, 			{
				"box" : 				{
					"maxclass" : "message",
					"text" : "dim $1 $2, 128",
					"id" : "obj-31",
					"fontname" : "Arial",
					"fontsize" : 10.0,
					"numinlets" : 2,
					"numoutlets" : 1,
					"patching_rect" : [ 258.0, 338.0, 77.0, 16.0 ],
					"outlettype" : [ "" ]
				}

			}
, 			{
				"box" : 				{
					"maxclass" : "newobj",
					"text" : "route dim planecount",
					"id" : "obj-12",
					"fontname" : "Arial",
					"fontsize" : 10.0,
					"numinlets" : 1,
					"numoutlets" : 3,
					"patching_rect" : [ 258.0, 266.0, 104.0, 18.0 ],
					"outlettype" : [ "", "", "" ]
				}

			}
, 			{
				"box" : 				{
					"maxclass" : "newobj",
					"text" : "jit.matrixinfo",
					"id" : "obj-11",
					"fontname" : "Arial",
					"fontsize" : 10.0,
					"numinlets" : 1,
					"numoutlets" : 1,
					"patching_rect" : [ 258.0, 240.0, 64.0, 18.0 ],
					"outlettype" : [ "" ]
				}

			}
, 			{
				"box" : 				{
					"maxclass" : "newobj",
					"text" : "jit.hsl2rgb",
					"id" : "obj-10",
					"fontname" : "Arial",
					"fontsize" : 10.0,
					"numinlets" : 1,
					"numoutlets" : 2,
					"patching_rect" : [ 77.0, 484.0, 53.0, 18.0 ],
					"outlettype" : [ "jit_matrix", "" ]
				}

			}
, 			{
				"box" : 				{
					"maxclass" : "newobj",
					"text" : "jit.pack",
					"id" : "obj-9",
					"fontname" : "Arial",
					"fontsize" : 10.0,
					"numinlets" : 4,
					"numoutlets" : 2,
					"patching_rect" : [ 77.0, 460.0, 59.5, 18.0 ],
					"outlettype" : [ "jit_matrix", "" ]
				}

			}
, 			{
				"box" : 				{
					"maxclass" : "newobj",
					"text" : "cv.jit.changetype char",
					"id" : "obj-8",
					"fontname" : "Arial",
					"fontsize" : 10.0,
					"numinlets" : 1,
					"numoutlets" : 1,
					"patching_rect" : [ 122.0, 292.0, 107.0, 18.0 ],
					"outlettype" : [ "jit_matrix" ]
				}

			}
, 			{
				"box" : 				{
					"maxclass" : "newobj",
					"text" : "jit.op @op / @val 6.283185",
					"id" : "obj-7",
					"fontname" : "Arial",
					"fontsize" : 10.0,
					"numinlets" : 2,
					"numoutlets" : 2,
					"patching_rect" : [ 122.0, 266.0, 131.0, 18.0 ],
					"outlettype" : [ "jit_matrix", "" ]
				}

			}
, 			{
				"box" : 				{
					"maxclass" : "newobj",
					"text" : "jit.op @op + @val 3.141593",
					"id" : "obj-6",
					"fontname" : "Arial",
					"fontsize" : 10.0,
					"numinlets" : 2,
					"numoutlets" : 2,
					"patching_rect" : [ 122.0, 240.0, 134.0, 18.0 ],
					"outlettype" : [ "jit_matrix", "" ]
				}

			}
, 			{
				"box" : 				{
					"maxclass" : "newobj",
					"text" : "t b l l",
					"id" : "obj-5",
					"fontname" : "Arial",
					"fontsize" : 10.0,
					"numinlets" : 1,
					"numoutlets" : 3,
					"patching_rect" : [ 58.0, 90.0, 104.0, 18.0 ],
					"outlettype" : [ "bang", "", "" ]
				}

			}
, 			{
				"box" : 				{
					"maxclass" : "newobj",
					"text" : "jit.unpack 2",
					"id" : "obj-4",
					"fontname" : "Arial",
					"fontsize" : 10.0,
					"numinlets" : 1,
					"numoutlets" : 3,
					"patching_rect" : [ 101.0, 189.0, 61.0, 18.0 ],
					"outlettype" : [ "jit_matrix", "jit_matrix", "" ]
				}

			}
, 			{
				"box" : 				{
					"maxclass" : "newobj",
					"text" : "cv.jit.cartopol",
					"id" : "obj-3",
					"fontname" : "Arial",
					"fontsize" : 10.0,
					"numinlets" : 2,
					"numoutlets" : 2,
					"patching_rect" : [ 72.0, 218.0, 69.0, 18.0 ],
					"outlettype" : [ "jit_matrix", "jit_matrix" ]
				}

			}
, 			{
				"box" : 				{
					"maxclass" : "comment",
					"varname" : "copyright-comment",
					"text" : "Copyright ©2003-2009",
					"id" : "obj-17",
					"fontname" : "Arial",
					"frgb" : [ 0.0, 0.0, 0.0, 0.901961 ],
					"textcolor" : [ 0.0, 0.0, 0.0, 0.901961 ],
					"fontsize" : 10.0,
					"numinlets" : 1,
					"numoutlets" : 0,
					"patching_rect" : [ 336.0, 464.0, 111.0, 18.0 ]
				}

			}
, 			{
				"box" : 				{
					"maxclass" : "comment",
					"varname" : "support-comment",
					"text" : "Support:\nInternational Academy of Media Arts & Sciences (IAMAS) \n– Gifu, Japan",
					"linecount" : 3,
					"id" : "obj-18",
					"fontname" : "Arial",
					"fontsize" : 9.0,
					"numinlets" : 1,
					"numoutlets" : 0,
					"patching_rect" : [ 336.0, 421.5, 243.0, 38.0 ]
				}

			}
, 			{
				"box" : 				{
					"maxclass" : "comment",
					"varname" : "email-comment",
					"text" : "jmp@jmpelletier.com\n",
					"id" : "obj-19",
					"fontname" : "Arial",
					"frgb" : [ 0.0, 0.0, 0.0, 0.901961 ],
					"textcolor" : [ 0.0, 0.0, 0.0, 0.901961 ],
					"fontsize" : 10.0,
					"numinlets" : 1,
					"numoutlets" : 0,
					"patching_rect" : [ 471.0, 399.0, 105.0, 18.0 ]
				}

			}
, 			{
				"box" : 				{
					"maxclass" : "comment",
					"varname" : "me-comment",
					"text" : "By Jean-Marc Pelletier\n",
					"id" : "obj-22",
					"fontname" : "Arial",
					"fontsize" : 12.0,
					"numinlets" : 1,
					"numoutlets" : 0,
					"patching_rect" : [ 336.0, 397.0, 135.0, 20.0 ]
				}

			}
, 			{
				"box" : 				{
					"maxclass" : "panel",
					"varname" : "copyright-panel",
					"id" : "obj-49",
					"bordercolor" : [ 0.0, 0.0, 0.0, 0.647059 ],
					"border" : 1,
					"numinlets" : 1,
					"numoutlets" : 0,
					"bgcolor" : [ 1.0, 1.0, 1.0, 0.403922 ],
					"patching_rect" : [ 331.0, 392.0, 250.0, 95.0 ]
				}

			}
, 			{
				"box" : 				{
					"maxclass" : "outlet",
					"id" : "obj-2",
					"numinlets" : 1,
					"numoutlets" : 0,
					"patching_rect" : [ 77.0, 511.0, 25.0, 25.0 ],
					"comment" : "(matrix) visualized optical flow"
				}

			}
, 			{
				"box" : 				{
					"maxclass" : "inlet",
					"id" : "obj-1",
					"numinlets" : 0,
					"numoutlets" : 1,
					"patching_rect" : [ 58.0, 43.0, 25.0, 25.0 ],
					"outlettype" : [ "" ],
					"comment" : "(matrix) optical flow - packed or x-axis only"
				}

			}
 ],
		"lines" : [ 			{
				"patchline" : 				{
					"source" : [ "obj-27", 0 ],
					"destination" : [ "obj-3", 1 ],
					"hidden" : 0,
					"midpoints" : [ 310.5, 213.0, 131.5, 213.0 ]
				}

			}
, 			{
				"patchline" : 				{
					"source" : [ "obj-12", 1 ],
					"destination" : [ "obj-15", 0 ],
					"hidden" : 0,
					"midpoints" : [ 310.0, 299.0, 373.0, 299.0, 373.0, 138.0, 81.5, 138.0 ]
				}

			}
, 			{
				"patchline" : 				{
					"source" : [ "obj-11", 0 ],
					"destination" : [ "obj-12", 0 ],
					"hidden" : 0,
					"midpoints" : [  ]
				}

			}
, 			{
				"patchline" : 				{
					"source" : [ "obj-12", 0 ],
					"destination" : [ "obj-39", 0 ],
					"hidden" : 0,
					"midpoints" : [  ]
				}

			}
, 			{
				"patchline" : 				{
					"source" : [ "obj-15", 1 ],
					"destination" : [ "obj-4", 0 ],
					"hidden" : 0,
					"midpoints" : [  ]
				}

			}
, 			{
				"patchline" : 				{
					"source" : [ "obj-15", 0 ],
					"destination" : [ "obj-3", 0 ],
					"hidden" : 0,
					"midpoints" : [  ]
				}

			}
, 			{
				"patchline" : 				{
					"source" : [ "obj-4", 1 ],
					"destination" : [ "obj-3", 1 ],
					"hidden" : 0,
					"midpoints" : [  ]
				}

			}
, 			{
				"patchline" : 				{
					"source" : [ "obj-5", 1 ],
					"destination" : [ "obj-15", 1 ],
					"hidden" : 0,
					"midpoints" : [  ]
				}

			}
, 			{
				"patchline" : 				{
					"source" : [ "obj-14", 0 ],
					"destination" : [ "obj-9", 2 ],
					"hidden" : 0,
					"midpoints" : [ 81.5, 409.0, 113.5, 409.0 ]
				}

			}
, 			{
				"patchline" : 				{
					"source" : [ "obj-7", 0 ],
					"destination" : [ "obj-8", 0 ],
					"hidden" : 0,
					"midpoints" : [  ]
				}

			}
, 			{
				"patchline" : 				{
					"source" : [ "obj-6", 0 ],
					"destination" : [ "obj-7", 0 ],
					"hidden" : 0,
					"midpoints" : [  ]
				}

			}
, 			{
				"patchline" : 				{
					"source" : [ "obj-3", 1 ],
					"destination" : [ "obj-6", 0 ],
					"hidden" : 0,
					"midpoints" : [  ]
				}

			}
, 			{
				"patchline" : 				{
					"source" : [ "obj-4", 0 ],
					"destination" : [ "obj-3", 0 ],
					"hidden" : 0,
					"midpoints" : [ 110.5, 212.0, 81.5, 212.0 ]
				}

			}
, 			{
				"patchline" : 				{
					"source" : [ "obj-9", 0 ],
					"destination" : [ "obj-10", 0 ],
					"hidden" : 0,
					"midpoints" : [  ]
				}

			}
, 			{
				"patchline" : 				{
					"source" : [ "obj-10", 0 ],
					"destination" : [ "obj-2", 0 ],
					"hidden" : 0,
					"midpoints" : [  ]
				}

			}
, 			{
				"patchline" : 				{
					"source" : [ "obj-8", 0 ],
					"destination" : [ "obj-9", 1 ],
					"hidden" : 0,
					"midpoints" : [ 131.5, 424.0, 100.0, 424.0 ]
				}

			}
, 			{
				"patchline" : 				{
					"source" : [ "obj-5", 0 ],
					"destination" : [ "obj-9", 0 ],
					"hidden" : 0,
					"midpoints" : [ 67.5, 433.0, 86.5, 433.0 ]
				}

			}
, 			{
				"patchline" : 				{
					"source" : [ "obj-31", 0 ],
					"destination" : [ "obj-32", 0 ],
					"hidden" : 0,
					"midpoints" : [  ]
				}

			}
, 			{
				"patchline" : 				{
					"source" : [ "obj-39", 0 ],
					"destination" : [ "obj-31", 0 ],
					"hidden" : 0,
					"midpoints" : [  ]
				}

			}
, 			{
				"patchline" : 				{
					"source" : [ "obj-5", 2 ],
					"destination" : [ "obj-11", 0 ],
					"hidden" : 0,
					"midpoints" : [ 152.5, 113.0, 267.5, 113.0 ]
				}

			}
, 			{
				"patchline" : 				{
					"source" : [ "obj-32", 0 ],
					"destination" : [ "obj-9", 3 ],
					"hidden" : 0,
					"midpoints" : [ 267.5, 445.0, 127.0, 445.0 ]
				}

			}
, 			{
				"patchline" : 				{
					"source" : [ "obj-1", 0 ],
					"destination" : [ "obj-5", 0 ],
					"hidden" : 0,
					"midpoints" : [  ]
				}

			}
, 			{
				"patchline" : 				{
					"source" : [ "obj-13", 0 ],
					"destination" : [ "obj-14", 0 ],
					"hidden" : 0,
					"midpoints" : [  ]
				}

			}
, 			{
				"patchline" : 				{
					"source" : [ "obj-3", 0 ],
					"destination" : [ "obj-13", 0 ],
					"hidden" : 0,
					"midpoints" : [  ]
				}

			}
 ]
	}

}
