{
	"patcher" : 	{
		"fileversion" : 1,
		"rect" : [ 385.0, 44.0, 1037.0, 776.0 ],
		"bgcolor" : [ 0.945098, 0.917647, 0.890196, 1.0 ],
		"bglocked" : 0,
		"defrect" : [ 385.0, 44.0, 1037.0, 776.0 ],
		"openrect" : [ 0.0, 0.0, 0.0, 0.0 ],
		"openinpresentation" : 0,
		"default_fontsize" : 10.0,
		"default_fontface" : 0,
		"default_fontname" : "Arial",
		"gridonopen" : 0,
		"gridsize" : [ 15.0, 15.0 ],
		"gridsnaponopen" : 0,
		"toolbarvisible" : 1,
		"boxanimatetime" : 200,
		"imprint" : 0,
		"enablehscroll" : 1,
		"enablevscroll" : 1,
		"devicewidth" : 0.0,
		"boxes" : [ 			{
				"box" : 				{
					"maxclass" : "newobj",
					"text" : "cvjit_random_bg_colour",
					"hidden" : 1,
					"numoutlets" : 3,
					"patching_rect" : [ 65.0, 541.0, 117.0, 18.0 ],
					"id" : "obj-1",
					"outlettype" : [ "int", "int", "int" ],
					"fontname" : "Arial",
					"fontsize" : 10.0,
					"numinlets" : 0
				}

			}
, 			{
				"box" : 				{
					"maxclass" : "newobj",
					"text" : "bgcolor",
					"hidden" : 1,
					"numoutlets" : 0,
					"patching_rect" : [ 65.0, 565.546204, 165.5, 18.0 ],
					"id" : "obj-10",
					"fontname" : "Arial",
					"fontsize" : 10.0,
					"numinlets" : 4
				}

			}
, 			{
				"box" : 				{
					"maxclass" : "number",
					"triscale" : 0.9,
					"numoutlets" : 2,
					"bgcolor" : [ 0.866667, 0.866667, 0.866667, 1.0 ],
					"patching_rect" : [ 484.0, 367.0, 35.0, 18.0 ],
					"id" : "obj-7",
					"outlettype" : [ "int", "bang" ],
					"fontname" : "Arial",
					"htextcolor" : [ 0.870588, 0.870588, 0.870588, 1.0 ],
					"fontsize" : 10.0,
					"numinlets" : 1
				}

			}
, 			{
				"box" : 				{
					"maxclass" : "message",
					"text" : "plane $1",
					"numoutlets" : 1,
					"patching_rect" : [ 484.0, 386.0, 53.0, 16.0 ],
					"id" : "obj-8",
					"outlettype" : [ "" ],
					"fontname" : "Arial",
					"fontsize" : 10.0,
					"numinlets" : 2
				}

			}
, 			{
				"box" : 				{
					"maxclass" : "umenu",
					"numoutlets" : 3,
					"patching_rect" : [ 484.0, 347.0, 100.0, 18.0 ],
					"id" : "obj-11",
					"outlettype" : [ "int", "", "" ],
					"fontname" : "Arial",
					"labelclick" : 1,
					"types" : [  ],
					"fontsize" : 10.0,
					"numinlets" : 1,
					"items" : [ "m20", ",", "m02", ",", "m11", ",", "m21", ",", "m12", ",", "m30", ",", "m03", ",", "hu1", ",", "hu2", ",", "hu3", ",", "hu4", ",", "hu5", ",", "hu6", ",", "hu7", ",", "centroid", "x", ",", "centroid", "y", ",", "area" ]
				}

			}
, 			{
				"box" : 				{
					"maxclass" : "jit.cellblock",
					"numoutlets" : 4,
					"selmode" : 0,
					"vscroll" : 0,
					"bgcolor" : [ 0.992218, 0.992218, 0.992218, 1.0 ],
					"patching_rect" : [ 325.0, 412.0, 323.0, 38.0 ],
					"headercolor" : [ 0.743191, 0.743191, 0.743191, 1.0 ],
					"id" : "obj-12",
					"outlettype" : [ "list", "", "", "" ],
					"fontname" : "Geneva",
					"bordercolor" : [ 0.0, 0.0, 0.0, 1.0 ],
					"rows" : 1,
					"gridlinecolor" : [ 0.0, 0.0, 0.0, 1.0 ],
					"colwidth" : 80,
					"hcellcolor" : [ 0.836576, 0.836576, 0.933852, 1.0 ],
					"fontsize" : 9.0,
					"rowheight" : 17,
					"numinlets" : 2,
					"precision" : 4
				}

			}
, 			{
				"box" : 				{
					"maxclass" : "message",
					"text" : "read arrows.gif",
					"numoutlets" : 1,
					"bgcolor" : [ 0.0, 0.823529, 0.082353, 1.0 ],
					"patching_rect" : [ 553.0, 127.0, 77.0, 16.0 ],
					"id" : "obj-30",
					"outlettype" : [ "" ],
					"fontname" : "Arial",
					"fontsize" : 10.0,
					"numinlets" : 2
				}

			}
, 			{
				"box" : 				{
					"maxclass" : "newobj",
					"text" : "cv.jit.blobs.moments",
					"numoutlets" : 2,
					"patching_rect" : [ 325.0, 369.0, 101.0, 18.0 ],
					"id" : "obj-29",
					"outlettype" : [ "jit_matrix", "" ],
					"fontname" : "Arial",
					"fontsize" : 10.0,
					"numinlets" : 1
				}

			}
, 			{
				"box" : 				{
					"maxclass" : "comment",
					"text" : "Labeling must be done with char output.",
					"linecount" : 2,
					"numoutlets" : 0,
					"patching_rect" : [ 514.0, 307.0, 136.0, 29.0 ],
					"id" : "obj-25",
					"fontname" : "Arial",
					"fontsize" : 10.0,
					"numinlets" : 1
				}

			}
, 			{
				"box" : 				{
					"maxclass" : "comment",
					"text" : "Convert to greyscale and threshold to obtain binary image.",
					"linecount" : 3,
					"numoutlets" : 0,
					"patching_rect" : [ 491.0, 227.0, 150.0, 41.0 ],
					"id" : "obj-24",
					"fontname" : "Arial",
					"fontsize" : 10.0,
					"numinlets" : 1
				}

			}
, 			{
				"box" : 				{
					"maxclass" : "newobj",
					"text" : "cv.jit.label @charmode 1 @threshold 20",
					"numoutlets" : 2,
					"patching_rect" : [ 325.0, 312.0, 188.0, 18.0 ],
					"id" : "obj-6",
					"outlettype" : [ "jit_matrix", "" ],
					"fontname" : "Arial",
					"fontsize" : 10.0,
					"numinlets" : 1
				}

			}
, 			{
				"box" : 				{
					"maxclass" : "comment",
					"varname" : "copyright-comment",
					"text" : "Copyright ©2003-2010",
					"numoutlets" : 0,
					"frgb" : [ 0.0, 0.0, 0.0, 0.901961 ],
					"patching_rect" : [ 50.0, 694.0, 111.0, 18.0 ],
					"id" : "obj-17",
					"fontname" : "Arial",
					"fontsize" : 10.0,
					"textcolor" : [ 0.0, 0.0, 0.0, 0.901961 ],
					"numinlets" : 1
				}

			}
, 			{
				"box" : 				{
					"maxclass" : "comment",
					"varname" : "support-comment",
					"text" : "Support:\nInternational Academy of Media Arts & Sciences (IAMAS) \n– Gifu, Japan",
					"linecount" : 3,
					"numoutlets" : 0,
					"patching_rect" : [ 50.0, 651.5, 243.0, 38.0 ],
					"id" : "obj-18",
					"fontname" : "Arial",
					"fontsize" : 9.0,
					"numinlets" : 1
				}

			}
, 			{
				"box" : 				{
					"maxclass" : "comment",
					"varname" : "email-comment",
					"text" : "jmp@jmpelletier.com\n",
					"numoutlets" : 0,
					"frgb" : [ 0.0, 0.0, 0.0, 0.901961 ],
					"patching_rect" : [ 185.0, 629.0, 105.0, 18.0 ],
					"id" : "obj-19",
					"fontname" : "Arial",
					"fontsize" : 10.0,
					"textcolor" : [ 0.0, 0.0, 0.0, 0.901961 ],
					"numinlets" : 1
				}

			}
, 			{
				"box" : 				{
					"maxclass" : "comment",
					"varname" : "me-comment",
					"text" : "By Jean-Marc Pelletier\n",
					"numoutlets" : 0,
					"patching_rect" : [ 50.0, 627.0, 135.0, 20.0 ],
					"id" : "obj-22",
					"fontname" : "Arial",
					"fontsize" : 12.0,
					"numinlets" : 1
				}

			}
, 			{
				"box" : 				{
					"maxclass" : "comment",
					"varname" : "output-comment",
					"text" : "Output",
					"numoutlets" : 0,
					"patching_rect" : [ 55.5, 384.0, 44.0, 19.0 ],
					"id" : "obj-31",
					"fontname" : "Arial",
					"fontsize" : 11.0,
					"numinlets" : 1
				}

			}
, 			{
				"box" : 				{
					"maxclass" : "comment",
					"varname" : "input-comment",
					"text" : "Input",
					"numoutlets" : 0,
					"patching_rect" : [ 60.0, 299.0, 35.0, 19.0 ],
					"id" : "obj-34",
					"fontname" : "Arial",
					"fontsize" : 11.0,
					"numinlets" : 1
				}

			}
, 			{
				"box" : 				{
					"maxclass" : "comment",
					"varname" : "input-description",
					"text" : "Single-plane char",
					"numoutlets" : 0,
					"patching_rect" : [ 110.0, 299.0, 175.0, 19.0 ],
					"id" : "obj-37",
					"fontname" : "Arial",
					"fontsize" : 11.0,
					"numinlets" : 1
				}

			}
, 			{
				"box" : 				{
					"maxclass" : "comment",
					"varname" : "output-description",
					"text" : "17-plane single-row float32\n\nPlanes 1-7 contain second and third order moments of inertia.\nPlanes 8-14 contain Hu invariant shape descriptors\nPlanes 15-16 hold centroid coordinates\nPlane 17 holds connected component area",
					"linecount" : 10,
					"numoutlets" : 0,
					"patching_rect" : [ 110.0, 327.0, 175.0, 133.0 ],
					"id" : "obj-38",
					"fontname" : "Arial",
					"fontsize" : 11.0,
					"numinlets" : 1
				}

			}
, 			{
				"box" : 				{
					"maxclass" : "panel",
					"varname" : "io-cat-panel",
					"numoutlets" : 0,
					"bgcolor" : [ 0.556863, 0.556863, 0.556863, 0.2 ],
					"patching_rect" : [ 50.0, 294.0, 55.0, 171.0 ],
					"border" : 1,
					"id" : "obj-39",
					"bordercolor" : [ 1.0, 1.0, 1.0, 0.647059 ],
					"rounded" : 0,
					"numinlets" : 1
				}

			}
, 			{
				"box" : 				{
					"maxclass" : "panel",
					"varname" : "output-panel",
					"numoutlets" : 0,
					"bgcolor" : [ 0.615686, 0.607843, 0.607843, 0.2 ],
					"patching_rect" : [ 50.0, 322.0, 240.0, 143.0 ],
					"border" : 1,
					"id" : "obj-42",
					"bordercolor" : [ 1.0, 1.0, 1.0, 0.647059 ],
					"rounded" : 0,
					"numinlets" : 1
				}

			}
, 			{
				"box" : 				{
					"maxclass" : "panel",
					"varname" : "input-panel",
					"numoutlets" : 0,
					"bgcolor" : [ 0.615686, 0.607843, 0.607843, 0.2 ],
					"patching_rect" : [ 50.0, 294.0, 240.0, 29.0 ],
					"border" : 1,
					"id" : "obj-44",
					"bordercolor" : [ 1.0, 1.0, 1.0, 0.647059 ],
					"rounded" : 0,
					"numinlets" : 1
				}

			}
, 			{
				"box" : 				{
					"maxclass" : "panel",
					"varname" : "copyright-panel",
					"numoutlets" : 0,
					"bgcolor" : [ 1.0, 1.0, 1.0, 0.403922 ],
					"patching_rect" : [ 45.0, 622.0, 250.0, 95.0 ],
					"border" : 1,
					"id" : "obj-49",
					"bordercolor" : [ 0.0, 0.0, 0.0, 0.647059 ],
					"numinlets" : 1
				}

			}
, 			{
				"box" : 				{
					"maxclass" : "comment",
					"varname" : "comments",
					"text" : "cv.jit.blobs.moments functions much like cv.jit.moments but computes moments and invariants for every blob identified by cv.jit.label. See cv.jit.moments for a discussion on moments and invariants.\n\nThe output is a 17-plane, single-row float32 matrix. The number of cells is the same as the number of connected components.\n\nThe output of cv.jit.moments can be fed to other objects for further analysis. See cv.jit.blobs.orientation, cv.jit.blobs.direction, cv.jit.blobs.elongation, and cv.jit.blobs.recon.",
					"linecount" : 14,
					"numoutlets" : 0,
					"patching_rect" : [ 50.0, 95.0, 240.0, 184.0 ],
					"id" : "obj-62",
					"fontname" : "Arial",
					"fontsize" : 11.0,
					"numinlets" : 1
				}

			}
, 			{
				"box" : 				{
					"maxclass" : "panel",
					"varname" : "comments-panel",
					"numoutlets" : 0,
					"bgcolor" : [ 1.0, 1.0, 1.0, 0.647059 ],
					"patching_rect" : [ 45.0, 90.0, 250.0, 194.0 ],
					"border" : 1,
					"id" : "obj-65",
					"bordercolor" : [ 0.0, 0.0, 0.0, 0.517647 ],
					"rounded" : 0,
					"numinlets" : 1
				}

			}
, 			{
				"box" : 				{
					"maxclass" : "panel",
					"varname" : "io-panel",
					"numoutlets" : 0,
					"bgcolor" : [ 1.0, 1.0, 1.0, 0.403922 ],
					"patching_rect" : [ 45.0, 289.0, 250.0, 181.0 ],
					"border" : 1,
					"id" : "obj-5",
					"bordercolor" : [ 0.0, 0.0, 0.0, 0.517647 ],
					"rounded" : 0,
					"numinlets" : 1
				}

			}
, 			{
				"box" : 				{
					"maxclass" : "panel",
					"numoutlets" : 0,
					"bgcolor" : [ 0.0, 0.0, 1.0, 0.05098 ],
					"patching_rect" : [ 315.0, 365.0, 126.0, 28.0 ],
					"border" : 1,
					"id" : "obj-9",
					"bordercolor" : [ 0.0, 0.0, 1.0, 0.733333 ],
					"rounded" : 30,
					"numinlets" : 1
				}

			}
, 			{
				"box" : 				{
					"maxclass" : "flonum",
					"numoutlets" : 2,
					"patching_rect" : [ 411.0, 228.0, 48.0, 18.0 ],
					"id" : "obj-74",
					"outlettype" : [ "float", "bang" ],
					"fontname" : "Arial",
					"fontsize" : 10.0,
					"numinlets" : 1
				}

			}
, 			{
				"box" : 				{
					"maxclass" : "newobj",
					"text" : "cv.jit.threshold @mode 1 @radius 20 @threshold 20",
					"numoutlets" : 2,
					"patching_rect" : [ 325.0, 273.0, 243.0, 18.0 ],
					"id" : "obj-71",
					"outlettype" : [ "jit_matrix", "" ],
					"fontname" : "Arial",
					"fontsize" : 10.0,
					"numinlets" : 1
				}

			}
, 			{
				"box" : 				{
					"maxclass" : "jit.fpsgui",
					"numoutlets" : 2,
					"patching_rect" : [ 325.0, 718.0, 80.0, 36.0 ],
					"id" : "obj-70",
					"outlettype" : [ "", "" ],
					"fontname" : "Arial",
					"fontsize" : 12.0,
					"numinlets" : 1
				}

			}
, 			{
				"box" : 				{
					"maxclass" : "newobj",
					"text" : "jit.rgb2luma",
					"numoutlets" : 2,
					"patching_rect" : [ 325.0, 233.0, 62.0, 18.0 ],
					"id" : "obj-69",
					"outlettype" : [ "jit_matrix", "" ],
					"fontname" : "Arial",
					"fontsize" : 10.0,
					"numinlets" : 1
				}

			}
, 			{
				"box" : 				{
					"maxclass" : "jit.pwindow",
					"numoutlets" : 2,
					"patching_rect" : [ 325.0, 466.0, 320.0, 240.0 ],
					"id" : "obj-67",
					"outlettype" : [ "", "" ],
					"numinlets" : 1
				}

			}
, 			{
				"box" : 				{
					"maxclass" : "message",
					"text" : "0",
					"hidden" : 1,
					"numoutlets" : 1,
					"patching_rect" : [ 427.0, 130.0, 31.0, 16.0 ],
					"id" : "obj-64",
					"outlettype" : [ "" ],
					"fontname" : "Arial",
					"fontsize" : 10.0,
					"numinlets" : 2
				}

			}
, 			{
				"box" : 				{
					"maxclass" : "message",
					"text" : "0",
					"hidden" : 1,
					"numoutlets" : 1,
					"patching_rect" : [ 633.0, 149.0, 31.0, 16.0 ],
					"id" : "obj-63",
					"outlettype" : [ "" ],
					"fontname" : "Arial",
					"fontsize" : 10.0,
					"numinlets" : 2
				}

			}
, 			{
				"box" : 				{
					"maxclass" : "newobj",
					"text" : "sel 1",
					"hidden" : 1,
					"numoutlets" : 2,
					"patching_rect" : [ 388.0, 128.0, 32.0, 18.0 ],
					"id" : "obj-61",
					"outlettype" : [ "bang", "" ],
					"fontname" : "Arial",
					"fontsize" : 10.0,
					"numinlets" : 2
				}

			}
, 			{
				"box" : 				{
					"maxclass" : "comment",
					"text" : "Use pre-recorded movie",
					"numoutlets" : 0,
					"frgb" : [ 1.0, 1.0, 1.0, 1.0 ],
					"patching_rect" : [ 512.0, 102.0, 163.0, 19.0 ],
					"id" : "obj-60",
					"fontname" : "Arial",
					"fontsize" : 11.0,
					"textcolor" : [ 1.0, 1.0, 1.0, 1.0 ],
					"numinlets" : 1
				}

			}
, 			{
				"box" : 				{
					"maxclass" : "comment",
					"text" : "Use live camera input",
					"numoutlets" : 0,
					"frgb" : [ 1.0, 1.0, 1.0, 1.0 ],
					"patching_rect" : [ 350.0, 102.0, 116.0, 19.0 ],
					"id" : "obj-59",
					"fontname" : "Arial",
					"fontsize" : 11.0,
					"textcolor" : [ 1.0, 1.0, 1.0, 1.0 ],
					"numinlets" : 1
				}

			}
, 			{
				"box" : 				{
					"maxclass" : "newobj",
					"text" : "sel 1 0",
					"hidden" : 1,
					"numoutlets" : 3,
					"patching_rect" : [ 553.0, 128.0, 40.0, 18.0 ],
					"id" : "obj-57",
					"outlettype" : [ "bang", "bang", "" ],
					"fontname" : "Arial",
					"fontsize" : 10.0,
					"numinlets" : 1
				}

			}
, 			{
				"box" : 				{
					"maxclass" : "toggle",
					"numoutlets" : 1,
					"patching_rect" : [ 487.0, 101.0, 20.0, 20.0 ],
					"id" : "obj-51",
					"outlettype" : [ "int" ],
					"numinlets" : 1
				}

			}
, 			{
				"box" : 				{
					"maxclass" : "newobj",
					"text" : "qmetro 2",
					"numoutlets" : 1,
					"patching_rect" : [ 487.0, 128.0, 50.0, 18.0 ],
					"id" : "obj-52",
					"outlettype" : [ "bang" ],
					"fontname" : "Arial",
					"fontsize" : 10.0,
					"numinlets" : 2
				}

			}
, 			{
				"box" : 				{
					"maxclass" : "message",
					"text" : "stop",
					"numoutlets" : 1,
					"patching_rect" : [ 593.0, 151.0, 29.0, 16.0 ],
					"id" : "obj-53",
					"outlettype" : [ "" ],
					"fontname" : "Arial",
					"fontsize" : 10.0,
					"numinlets" : 2
				}

			}
, 			{
				"box" : 				{
					"maxclass" : "message",
					"text" : "start",
					"numoutlets" : 1,
					"patching_rect" : [ 553.0, 151.0, 30.0, 16.0 ],
					"id" : "obj-54",
					"outlettype" : [ "" ],
					"fontname" : "Arial",
					"fontsize" : 10.0,
					"numinlets" : 2
				}

			}
, 			{
				"box" : 				{
					"maxclass" : "message",
					"text" : "read",
					"numoutlets" : 1,
					"patching_rect" : [ 514.0, 151.0, 31.0, 16.0 ],
					"id" : "obj-55",
					"outlettype" : [ "" ],
					"fontname" : "Arial",
					"fontsize" : 10.0,
					"numinlets" : 2
				}

			}
, 			{
				"box" : 				{
					"maxclass" : "newobj",
					"text" : "jit.qt.movie 320 240",
					"numoutlets" : 2,
					"patching_rect" : [ 487.0, 178.0, 97.0, 18.0 ],
					"id" : "obj-56",
					"outlettype" : [ "jit_matrix", "" ],
					"fontname" : "Arial",
					"fontsize" : 10.0,
					"numinlets" : 1
				}

			}
, 			{
				"box" : 				{
					"maxclass" : "toggle",
					"numoutlets" : 1,
					"patching_rect" : [ 325.0, 101.0, 20.0, 20.0 ],
					"id" : "obj-50",
					"outlettype" : [ "int" ],
					"numinlets" : 1
				}

			}
, 			{
				"box" : 				{
					"maxclass" : "newobj",
					"text" : "qmetro 2",
					"numoutlets" : 1,
					"patching_rect" : [ 325.0, 128.0, 50.0, 18.0 ],
					"id" : "obj-48",
					"outlettype" : [ "bang" ],
					"fontname" : "Arial",
					"fontsize" : 10.0,
					"numinlets" : 2
				}

			}
, 			{
				"box" : 				{
					"maxclass" : "message",
					"text" : "settings",
					"numoutlets" : 1,
					"patching_rect" : [ 431.0, 151.0, 45.0, 16.0 ],
					"id" : "obj-47",
					"outlettype" : [ "" ],
					"fontname" : "Arial",
					"fontsize" : 10.0,
					"numinlets" : 2
				}

			}
, 			{
				"box" : 				{
					"maxclass" : "message",
					"text" : "close",
					"numoutlets" : 1,
					"patching_rect" : [ 391.0, 151.0, 34.0, 16.0 ],
					"id" : "obj-46",
					"outlettype" : [ "" ],
					"fontname" : "Arial",
					"fontsize" : 10.0,
					"numinlets" : 2
				}

			}
, 			{
				"box" : 				{
					"maxclass" : "message",
					"text" : "open",
					"numoutlets" : 1,
					"patching_rect" : [ 352.0, 151.0, 33.0, 16.0 ],
					"id" : "obj-45",
					"outlettype" : [ "" ],
					"fontname" : "Arial",
					"fontsize" : 10.0,
					"numinlets" : 2
				}

			}
, 			{
				"box" : 				{
					"maxclass" : "newobj",
					"text" : "cv.jit.grab 320 240",
					"numoutlets" : 2,
					"patching_rect" : [ 325.0, 178.0, 92.0, 18.0 ],
					"id" : "obj-43",
					"outlettype" : [ "jit_matrix", "" ],
					"fontname" : "Arial",
					"fontsize" : 10.0,
					"numinlets" : 1
				}

			}
, 			{
				"box" : 				{
					"maxclass" : "panel",
					"numoutlets" : 0,
					"bgcolor" : [ 0.0, 0.0, 0.0, 0.2 ],
					"patching_rect" : [ 315.0, 90.0, 366.0, 130.0 ],
					"border" : 1,
					"id" : "obj-58",
					"bordercolor" : [ 0.5, 0.5, 0.5, 0.5 ],
					"rounded" : 0,
					"numinlets" : 1
				}

			}
, 			{
				"box" : 				{
					"maxclass" : "message",
					"text" : "threshold $1",
					"numoutlets" : 1,
					"patching_rect" : [ 411.0, 250.0, 64.0, 16.0 ],
					"id" : "obj-72",
					"outlettype" : [ "" ],
					"fontname" : "Arial",
					"fontsize" : 10.0,
					"numinlets" : 2
				}

			}
, 			{
				"box" : 				{
					"maxclass" : "fpic",
					"numoutlets" : 0,
					"patching_rect" : [ 769.0, 7.0, 255.0, 72.0 ],
					"pic" : "cvtitle.png",
					"id" : "obj-2",
					"numinlets" : 1
				}

			}
, 			{
				"box" : 				{
					"maxclass" : "panel",
					"numoutlets" : 0,
					"bgcolor" : [ 0.0, 0.0, 0.0, 0.0 ],
					"patching_rect" : [ 15.0, 45.0, 778.0, 4.0 ],
					"border" : 1,
					"id" : "obj-20",
					"bordercolor" : [ 0.0, 0.0, 0.0, 0.207843 ],
					"rounded" : 0,
					"numinlets" : 1
				}

			}
, 			{
				"box" : 				{
					"maxclass" : "comment",
					"text" : "Find connected component moments and shape invariants",
					"numoutlets" : 0,
					"frgb" : [ 0.258824, 0.258824, 0.258824, 1.0 ],
					"patching_rect" : [ 45.0, 45.0, 530.0, 29.0 ],
					"id" : "obj-16",
					"fontname" : "Arial",
					"fontsize" : 20.0,
					"textcolor" : [ 0.258824, 0.258824, 0.258824, 1.0 ],
					"numinlets" : 1
				}

			}
, 			{
				"box" : 				{
					"maxclass" : "comment",
					"text" : "cv.jit.blobs.moments",
					"numoutlets" : 0,
					"frgb" : [ 0.258824, 0.258824, 0.258824, 1.0 ],
					"patching_rect" : [ 45.0, 15.0, 565.0, 41.0 ],
					"id" : "obj-15",
					"fontname" : "Arial",
					"fontface" : 1,
					"fontsize" : 30.028469,
					"textcolor" : [ 0.258824, 0.258824, 0.258824, 1.0 ],
					"numinlets" : 1
				}

			}
, 			{
				"box" : 				{
					"maxclass" : "panel",
					"numoutlets" : 0,
					"bgcolor" : [ 0.776471, 0.776471, 0.776471, 0.0 ],
					"patching_rect" : [ 315.0, 224.0, 329.0, 71.0 ],
					"border" : 1,
					"id" : "obj-141",
					"bordercolor" : [ 0.5, 0.5, 0.5, 0.5 ],
					"rounded" : 15,
					"numinlets" : 1
				}

			}
, 			{
				"box" : 				{
					"maxclass" : "panel",
					"numoutlets" : 0,
					"bgcolor" : [ 0.0, 0.0, 0.0, 0.101961 ],
					"patching_rect" : [ 319.0, 461.0, 335.0, 257.0 ],
					"border" : 1,
					"id" : "obj-147",
					"bordercolor" : [ 0.5, 0.5, 0.5, 0.5 ],
					"rounded" : 15,
					"numinlets" : 1
				}

			}
, 			{
				"box" : 				{
					"maxclass" : "panel",
					"numoutlets" : 0,
					"bgcolor" : [ 0.776471, 0.776471, 0.776471, 0.0 ],
					"patching_rect" : [ 315.0, 302.0, 351.0, 38.0 ],
					"border" : 1,
					"id" : "obj-26",
					"bordercolor" : [ 0.5, 0.5, 0.5, 0.5 ],
					"rounded" : 15,
					"numinlets" : 1
				}

			}
 ],
		"lines" : [ 			{
				"patchline" : 				{
					"source" : [ "obj-29", 0 ],
					"destination" : [ "obj-12", 0 ],
					"hidden" : 0,
					"midpoints" : [  ]
				}

			}
, 			{
				"patchline" : 				{
					"source" : [ "obj-8", 0 ],
					"destination" : [ "obj-12", 0 ],
					"hidden" : 0,
					"midpoints" : [ 493.5, 408.0, 334.5, 408.0 ]
				}

			}
, 			{
				"patchline" : 				{
					"source" : [ "obj-11", 0 ],
					"destination" : [ "obj-7", 0 ],
					"hidden" : 0,
					"midpoints" : [  ]
				}

			}
, 			{
				"patchline" : 				{
					"source" : [ "obj-7", 0 ],
					"destination" : [ "obj-8", 0 ],
					"hidden" : 0,
					"midpoints" : [  ]
				}

			}
, 			{
				"patchline" : 				{
					"source" : [ "obj-71", 0 ],
					"destination" : [ "obj-67", 0 ],
					"hidden" : 0,
					"midpoints" : [ 334.5, 295.0, 301.0, 295.0, 301.0, 454.0, 334.5, 454.0 ]
				}

			}
, 			{
				"patchline" : 				{
					"source" : [ "obj-74", 0 ],
					"destination" : [ "obj-72", 0 ],
					"hidden" : 0,
					"midpoints" : [  ]
				}

			}
, 			{
				"patchline" : 				{
					"source" : [ "obj-67", 0 ],
					"destination" : [ "obj-70", 0 ],
					"hidden" : 0,
					"midpoints" : [  ]
				}

			}
, 			{
				"patchline" : 				{
					"source" : [ "obj-63", 0 ],
					"destination" : [ "obj-50", 0 ],
					"hidden" : 1,
					"midpoints" : [  ]
				}

			}
, 			{
				"patchline" : 				{
					"source" : [ "obj-64", 0 ],
					"destination" : [ "obj-51", 0 ],
					"hidden" : 1,
					"midpoints" : [  ]
				}

			}
, 			{
				"patchline" : 				{
					"source" : [ "obj-61", 0 ],
					"destination" : [ "obj-64", 0 ],
					"hidden" : 1,
					"midpoints" : [  ]
				}

			}
, 			{
				"patchline" : 				{
					"source" : [ "obj-57", 0 ],
					"destination" : [ "obj-63", 0 ],
					"hidden" : 1,
					"midpoints" : [  ]
				}

			}
, 			{
				"patchline" : 				{
					"source" : [ "obj-50", 0 ],
					"destination" : [ "obj-61", 0 ],
					"hidden" : 1,
					"midpoints" : [  ]
				}

			}
, 			{
				"patchline" : 				{
					"source" : [ "obj-57", 1 ],
					"destination" : [ "obj-53", 0 ],
					"hidden" : 1,
					"midpoints" : [ 573.0, 149.0, 602.5, 149.0 ]
				}

			}
, 			{
				"patchline" : 				{
					"source" : [ "obj-57", 0 ],
					"destination" : [ "obj-54", 0 ],
					"hidden" : 1,
					"midpoints" : [  ]
				}

			}
, 			{
				"patchline" : 				{
					"source" : [ "obj-51", 0 ],
					"destination" : [ "obj-57", 0 ],
					"hidden" : 1,
					"midpoints" : [ 496.5, 124.0, 562.5, 124.0 ]
				}

			}
, 			{
				"patchline" : 				{
					"source" : [ "obj-51", 0 ],
					"destination" : [ "obj-52", 0 ],
					"hidden" : 0,
					"midpoints" : [  ]
				}

			}
, 			{
				"patchline" : 				{
					"source" : [ "obj-50", 0 ],
					"destination" : [ "obj-48", 0 ],
					"hidden" : 0,
					"midpoints" : [  ]
				}

			}
, 			{
				"patchline" : 				{
					"source" : [ "obj-48", 0 ],
					"destination" : [ "obj-43", 0 ],
					"hidden" : 0,
					"midpoints" : [  ]
				}

			}
, 			{
				"patchline" : 				{
					"source" : [ "obj-45", 0 ],
					"destination" : [ "obj-43", 0 ],
					"hidden" : 0,
					"midpoints" : [ 361.5, 173.0, 334.5, 173.0 ]
				}

			}
, 			{
				"patchline" : 				{
					"source" : [ "obj-46", 0 ],
					"destination" : [ "obj-43", 0 ],
					"hidden" : 0,
					"midpoints" : [ 400.5, 173.0, 334.5, 173.0 ]
				}

			}
, 			{
				"patchline" : 				{
					"source" : [ "obj-47", 0 ],
					"destination" : [ "obj-43", 0 ],
					"hidden" : 0,
					"midpoints" : [ 440.5, 173.0, 334.5, 173.0 ]
				}

			}
, 			{
				"patchline" : 				{
					"source" : [ "obj-43", 0 ],
					"destination" : [ "obj-69", 0 ],
					"hidden" : 0,
					"midpoints" : [  ]
				}

			}
, 			{
				"patchline" : 				{
					"source" : [ "obj-71", 0 ],
					"destination" : [ "obj-6", 0 ],
					"hidden" : 0,
					"midpoints" : [  ]
				}

			}
, 			{
				"patchline" : 				{
					"source" : [ "obj-69", 0 ],
					"destination" : [ "obj-71", 0 ],
					"hidden" : 0,
					"midpoints" : [  ]
				}

			}
, 			{
				"patchline" : 				{
					"source" : [ "obj-72", 0 ],
					"destination" : [ "obj-71", 0 ],
					"hidden" : 0,
					"midpoints" : [ 420.5, 270.0, 334.5, 270.0 ]
				}

			}
, 			{
				"patchline" : 				{
					"source" : [ "obj-6", 0 ],
					"destination" : [ "obj-29", 0 ],
					"hidden" : 0,
					"midpoints" : [  ]
				}

			}
, 			{
				"patchline" : 				{
					"source" : [ "obj-30", 0 ],
					"destination" : [ "obj-56", 0 ],
					"hidden" : 1,
					"midpoints" : [  ]
				}

			}
, 			{
				"patchline" : 				{
					"source" : [ "obj-52", 0 ],
					"destination" : [ "obj-56", 0 ],
					"hidden" : 0,
					"midpoints" : [  ]
				}

			}
, 			{
				"patchline" : 				{
					"source" : [ "obj-55", 0 ],
					"destination" : [ "obj-56", 0 ],
					"hidden" : 0,
					"midpoints" : [ 523.5, 173.0, 496.5, 173.0 ]
				}

			}
, 			{
				"patchline" : 				{
					"source" : [ "obj-54", 0 ],
					"destination" : [ "obj-56", 0 ],
					"hidden" : 0,
					"midpoints" : [ 562.5, 173.0, 496.5, 173.0 ]
				}

			}
, 			{
				"patchline" : 				{
					"source" : [ "obj-53", 0 ],
					"destination" : [ "obj-56", 0 ],
					"hidden" : 0,
					"midpoints" : [ 602.5, 173.0, 496.5, 173.0 ]
				}

			}
, 			{
				"patchline" : 				{
					"source" : [ "obj-56", 0 ],
					"destination" : [ "obj-69", 0 ],
					"hidden" : 0,
					"midpoints" : [ 496.5, 205.5, 334.5, 205.5 ]
				}

			}
, 			{
				"patchline" : 				{
					"source" : [ "obj-1", 0 ],
					"destination" : [ "obj-10", 0 ],
					"hidden" : 1,
					"midpoints" : [  ]
				}

			}
, 			{
				"patchline" : 				{
					"source" : [ "obj-1", 1 ],
					"destination" : [ "obj-10", 1 ],
					"hidden" : 1,
					"midpoints" : [  ]
				}

			}
, 			{
				"patchline" : 				{
					"source" : [ "obj-1", 2 ],
					"destination" : [ "obj-10", 2 ],
					"hidden" : 1,
					"midpoints" : [  ]
				}

			}
 ]
	}

}
