{
	"patcher" : 	{
		"fileversion" : 1,
		"rect" : [ 332.0, 44.0, 1029.0, 753.0 ],
		"bgcolor" : [ 0.941176, 0.937255, 0.878431, 1.0 ],
		"bglocked" : 0,
		"defrect" : [ 332.0, 44.0, 1029.0, 753.0 ],
		"openrect" : [ 0.0, 0.0, 0.0, 0.0 ],
		"openinpresentation" : 0,
		"default_fontsize" : 12.0,
		"default_fontface" : 0,
		"default_fontname" : "Arial",
		"gridonopen" : 0,
		"gridsize" : [ 15.0, 15.0 ],
		"gridsnaponopen" : 0,
		"toolbarvisible" : 1,
		"boxanimatetime" : 200,
		"imprint" : 0,
		"enablehscroll" : 1,
		"enablevscroll" : 1,
		"devicewidth" : 0.0,
		"boxes" : [ 			{
				"box" : 				{
					"maxclass" : "message",
					"text" : "reset",
					"numoutlets" : 1,
					"patching_rect" : [ 494.0, 264.0, 33.0, 16.0 ],
					"id" : "obj-87",
					"outlettype" : [ "" ],
					"fontname" : "Arial",
					"fontsize" : 10.0,
					"numinlets" : 2
				}

			}
, 			{
				"box" : 				{
					"maxclass" : "comment",
					"text" : "Reset data.",
					"numoutlets" : 0,
					"patching_rect" : [ 533.0, 264.0, 62.0, 18.0 ],
					"id" : "obj-88",
					"fontname" : "Arial",
					"fontsize" : 10.0,
					"numinlets" : 1
				}

			}
, 			{
				"box" : 				{
					"maxclass" : "flonum",
					"triscale" : 0.9,
					"numoutlets" : 2,
					"bgcolor" : [ 0.866667, 0.866667, 0.866667, 1.0 ],
					"patching_rect" : [ 529.0, 366.0, 49.0, 18.0 ],
					"id" : "obj-91",
					"outlettype" : [ "float", "bang" ],
					"fontname" : "Arial",
					"htextcolor" : [ 0.870588, 0.870588, 0.870588, 1.0 ],
					"fontsize" : 10.0,
					"numinlets" : 1
				}

			}
, 			{
				"box" : 				{
					"maxclass" : "flonum",
					"triscale" : 0.9,
					"numoutlets" : 2,
					"bgcolor" : [ 0.866667, 0.866667, 0.866667, 1.0 ],
					"patching_rect" : [ 471.0, 402.0, 55.0, 23.0 ],
					"id" : "obj-92",
					"outlettype" : [ "float", "bang" ],
					"fontname" : "Arial",
					"htextcolor" : [ 0.870588, 0.870588, 0.870588, 1.0 ],
					"fontsize" : 14.0,
					"numinlets" : 1
				}

			}
, 			{
				"box" : 				{
					"maxclass" : "flonum",
					"triscale" : 0.9,
					"numoutlets" : 2,
					"bgcolor" : [ 0.866667, 0.866667, 0.866667, 1.0 ],
					"patching_rect" : [ 471.0, 184.0, 92.0, 29.0 ],
					"id" : "obj-93",
					"outlettype" : [ "float", "bang" ],
					"fontname" : "Arial",
					"htextcolor" : [ 0.870588, 0.870588, 0.870588, 1.0 ],
					"fontsize" : 20.0,
					"numinlets" : 1
				}

			}
, 			{
				"box" : 				{
					"maxclass" : "newobj",
					"text" : "jit.iter",
					"numoutlets" : 3,
					"patching_rect" : [ 529.0, 329.0, 46.0, 18.0 ],
					"id" : "obj-94",
					"outlettype" : [ "", "", "" ],
					"fontname" : "Arial",
					"fontsize" : 10.0,
					"numinlets" : 1
				}

			}
, 			{
				"box" : 				{
					"maxclass" : "newobj",
					"text" : "jit.iter",
					"numoutlets" : 3,
					"patching_rect" : [ 471.0, 329.0, 46.0, 18.0 ],
					"id" : "obj-95",
					"outlettype" : [ "", "", "" ],
					"fontname" : "Arial",
					"fontsize" : 10.0,
					"numinlets" : 1
				}

			}
, 			{
				"box" : 				{
					"maxclass" : "newobj",
					"text" : "cv.jit.stddev",
					"numoutlets" : 2,
					"patching_rect" : [ 471.0, 301.0, 77.0, 18.0 ],
					"id" : "obj-96",
					"outlettype" : [ "jit_matrix", "jit_matrix" ],
					"fontname" : "Arial",
					"fontsize" : 10.0,
					"numinlets" : 1
				}

			}
, 			{
				"box" : 				{
					"maxclass" : "newobj",
					"text" : "jit.matrix 1 float32 1 1",
					"numoutlets" : 2,
					"patching_rect" : [ 471.0, 226.0, 106.0, 18.0 ],
					"id" : "obj-97",
					"outlettype" : [ "jit_matrix", "" ],
					"fontname" : "Arial",
					"fontsize" : 10.0,
					"numinlets" : 1
				}

			}
, 			{
				"box" : 				{
					"maxclass" : "comment",
					"text" : "Mean.",
					"numoutlets" : 0,
					"patching_rect" : [ 583.0, 365.0, 38.0, 18.0 ],
					"id" : "obj-99",
					"fontname" : "Arial",
					"fontsize" : 10.0,
					"numinlets" : 1
				}

			}
, 			{
				"box" : 				{
					"maxclass" : "comment",
					"text" : "Standard deviation.",
					"numoutlets" : 0,
					"patching_rect" : [ 531.0, 404.0, 97.0, 18.0 ],
					"id" : "obj-102",
					"fontname" : "Arial",
					"fontsize" : 10.0,
					"numinlets" : 1
				}

			}
, 			{
				"box" : 				{
					"maxclass" : "newobj",
					"text" : "cvjit_random_bg_colour",
					"hidden" : 1,
					"numoutlets" : 3,
					"patching_rect" : [ 59.0, 508.0, 117.0, 18.0 ],
					"id" : "obj-6",
					"outlettype" : [ "int", "int", "int" ],
					"fontname" : "Arial",
					"fontsize" : 10.0,
					"numinlets" : 0
				}

			}
, 			{
				"box" : 				{
					"maxclass" : "newobj",
					"text" : "bgcolor",
					"hidden" : 1,
					"numoutlets" : 0,
					"patching_rect" : [ 59.0, 532.546204, 165.5, 18.0 ],
					"id" : "obj-10",
					"fontname" : "Arial",
					"fontsize" : 10.0,
					"numinlets" : 4
				}

			}
, 			{
				"box" : 				{
					"maxclass" : "comment",
					"varname" : "copyright-comment",
					"text" : "Copyright ©2003-2010",
					"numoutlets" : 0,
					"frgb" : [ 0.0, 0.0, 0.0, 0.901961 ],
					"patching_rect" : [ 50.0, 671.0, 111.0, 18.0 ],
					"id" : "obj-17",
					"fontname" : "Arial",
					"fontsize" : 10.0,
					"textcolor" : [ 0.0, 0.0, 0.0, 0.901961 ],
					"numinlets" : 1
				}

			}
, 			{
				"box" : 				{
					"maxclass" : "comment",
					"varname" : "support-comment",
					"text" : "Support:\nInternational Academy of Media Arts & Sciences (IAMAS) \n– Gifu, Japan",
					"linecount" : 3,
					"numoutlets" : 0,
					"patching_rect" : [ 50.0, 628.5, 243.0, 38.0 ],
					"id" : "obj-18",
					"fontname" : "Arial",
					"fontsize" : 9.0,
					"numinlets" : 1
				}

			}
, 			{
				"box" : 				{
					"maxclass" : "comment",
					"varname" : "email-comment",
					"text" : "jmp@jmpelletier.com\n",
					"numoutlets" : 0,
					"frgb" : [ 0.0, 0.0, 0.0, 0.901961 ],
					"patching_rect" : [ 185.0, 606.0, 105.0, 18.0 ],
					"id" : "obj-19",
					"fontname" : "Arial",
					"fontsize" : 10.0,
					"textcolor" : [ 0.0, 0.0, 0.0, 0.901961 ],
					"numinlets" : 1
				}

			}
, 			{
				"box" : 				{
					"maxclass" : "comment",
					"varname" : "me-comment",
					"text" : "By Jean-Marc Pelletier\n",
					"numoutlets" : 0,
					"patching_rect" : [ 50.0, 604.0, 135.0, 20.0 ],
					"id" : "obj-22",
					"fontname" : "Arial",
					"fontsize" : 12.0,
					"numinlets" : 1
				}

			}
, 			{
				"box" : 				{
					"maxclass" : "comment",
					"varname" : "output-comment",
					"text" : "Output",
					"numoutlets" : 0,
					"patching_rect" : [ 55.5, 390.0, 44.0, 19.0 ],
					"id" : "obj-31",
					"fontname" : "Arial",
					"fontsize" : 11.0,
					"numinlets" : 1
				}

			}
, 			{
				"box" : 				{
					"maxclass" : "comment",
					"varname" : "input-comment",
					"text" : "Input",
					"numoutlets" : 0,
					"patching_rect" : [ 60.0, 362.0, 35.0, 19.0 ],
					"id" : "obj-34",
					"fontname" : "Arial",
					"fontsize" : 11.0,
					"numinlets" : 1
				}

			}
, 			{
				"box" : 				{
					"maxclass" : "comment",
					"varname" : "input-description",
					"text" : "Any type",
					"numoutlets" : 0,
					"patching_rect" : [ 110.0, 362.0, 175.0, 19.0 ],
					"id" : "obj-37",
					"fontname" : "Arial",
					"fontsize" : 11.0,
					"numinlets" : 1
				}

			}
, 			{
				"box" : 				{
					"maxclass" : "comment",
					"varname" : "output-description",
					"text" : "Any type",
					"numoutlets" : 0,
					"patching_rect" : [ 110.0, 390.0, 175.0, 19.0 ],
					"id" : "obj-38",
					"fontname" : "Arial",
					"fontsize" : 11.0,
					"numinlets" : 1
				}

			}
, 			{
				"box" : 				{
					"maxclass" : "panel",
					"varname" : "io-cat-panel",
					"numoutlets" : 0,
					"bgcolor" : [ 0.556863, 0.556863, 0.556863, 0.2 ],
					"patching_rect" : [ 50.0, 357.0, 55.0, 57.0 ],
					"border" : 1,
					"id" : "obj-39",
					"bordercolor" : [ 1.0, 1.0, 1.0, 0.647059 ],
					"rounded" : 0,
					"numinlets" : 1
				}

			}
, 			{
				"box" : 				{
					"maxclass" : "panel",
					"varname" : "output-panel",
					"numoutlets" : 0,
					"bgcolor" : [ 0.615686, 0.607843, 0.607843, 0.2 ],
					"patching_rect" : [ 50.0, 385.0, 240.0, 29.0 ],
					"border" : 1,
					"id" : "obj-42",
					"bordercolor" : [ 1.0, 1.0, 1.0, 0.647059 ],
					"rounded" : 0,
					"numinlets" : 1
				}

			}
, 			{
				"box" : 				{
					"maxclass" : "panel",
					"varname" : "input-panel",
					"numoutlets" : 0,
					"bgcolor" : [ 0.615686, 0.607843, 0.607843, 0.2 ],
					"patching_rect" : [ 50.0, 357.0, 240.0, 29.0 ],
					"border" : 1,
					"id" : "obj-44",
					"bordercolor" : [ 1.0, 1.0, 1.0, 0.647059 ],
					"rounded" : 0,
					"numinlets" : 1
				}

			}
, 			{
				"box" : 				{
					"maxclass" : "panel",
					"varname" : "copyright-panel",
					"numoutlets" : 0,
					"bgcolor" : [ 1.0, 1.0, 1.0, 0.403922 ],
					"patching_rect" : [ 45.0, 599.0, 250.0, 95.0 ],
					"border" : 1,
					"id" : "obj-49",
					"bordercolor" : [ 0.0, 0.0, 0.0, 0.647059 ],
					"numinlets" : 1
				}

			}
, 			{
				"box" : 				{
					"maxclass" : "comment",
					"varname" : "comments",
					"text" : "cv.jit.stddev computes the standard deviation over time for every pixel of the incoming matrices. The standard deviation is a statistical measure of how spread out from the mean the data is. \n\nFor a normal distribution, about 68% of samples are within 1 standard deviations of the mean, 95% within 2 and 99.7% within 3 standard deviations.\n\nThe standard deviation can be useful for filtering and recognition tasks like background subtraction: in the background analysis stage, the standard deviation is computed. In the comparison stage, pixels are compared to the standard deviation, if they are more than, for instance, 2 * the standard deviation, they can be considered foreground.",
					"linecount" : 19,
					"numoutlets" : 0,
					"patching_rect" : [ 50.0, 95.0, 241.0, 247.0 ],
					"id" : "obj-62",
					"fontname" : "Arial",
					"fontsize" : 11.0,
					"numinlets" : 1
				}

			}
, 			{
				"box" : 				{
					"maxclass" : "panel",
					"varname" : "comments-panel",
					"numoutlets" : 0,
					"bgcolor" : [ 1.0, 1.0, 1.0, 0.647059 ],
					"patching_rect" : [ 45.0, 90.0, 250.0, 257.0 ],
					"border" : 1,
					"id" : "obj-65",
					"bordercolor" : [ 0.0, 0.0, 0.0, 0.517647 ],
					"rounded" : 0,
					"numinlets" : 1
				}

			}
, 			{
				"box" : 				{
					"maxclass" : "panel",
					"varname" : "io-panel",
					"numoutlets" : 0,
					"bgcolor" : [ 1.0, 1.0, 1.0, 0.403922 ],
					"patching_rect" : [ 45.0, 352.0, 250.0, 67.0 ],
					"border" : 1,
					"id" : "obj-5",
					"bordercolor" : [ 0.0, 0.0, 0.0, 0.517647 ],
					"rounded" : 0,
					"numinlets" : 1
				}

			}
, 			{
				"box" : 				{
					"maxclass" : "fpic",
					"numoutlets" : 0,
					"patching_rect" : [ 769.0, 7.0, 255.0, 72.0 ],
					"pic" : "cvtitle.png",
					"id" : "obj-2",
					"numinlets" : 1
				}

			}
, 			{
				"box" : 				{
					"maxclass" : "panel",
					"numoutlets" : 0,
					"bgcolor" : [ 0.0, 0.0, 0.0, 0.0 ],
					"patching_rect" : [ 15.0, 45.0, 778.0, 4.0 ],
					"border" : 1,
					"id" : "obj-20",
					"bordercolor" : [ 0.0, 0.0, 0.0, 0.207843 ],
					"rounded" : 0,
					"numinlets" : 1
				}

			}
, 			{
				"box" : 				{
					"maxclass" : "comment",
					"text" : "Calculate the time-wise standard deviation",
					"numoutlets" : 0,
					"frgb" : [ 0.258824, 0.258824, 0.258824, 1.0 ],
					"patching_rect" : [ 45.0, 45.0, 441.0, 29.0 ],
					"id" : "obj-16",
					"fontname" : "Arial",
					"fontsize" : 20.0,
					"textcolor" : [ 0.258824, 0.258824, 0.258824, 1.0 ],
					"numinlets" : 1
				}

			}
, 			{
				"box" : 				{
					"maxclass" : "comment",
					"text" : "cv.jit.stddev",
					"numoutlets" : 0,
					"frgb" : [ 0.258824, 0.258824, 0.258824, 1.0 ],
					"patching_rect" : [ 45.0, 15.0, 565.0, 41.0 ],
					"id" : "obj-15",
					"fontname" : "Arial",
					"fontface" : 1,
					"fontsize" : 30.028469,
					"textcolor" : [ 0.258824, 0.258824, 0.258824, 1.0 ],
					"numinlets" : 1
				}

			}
, 			{
				"box" : 				{
					"maxclass" : "panel",
					"numoutlets" : 0,
					"bgcolor" : [ 0.0, 0.0, 1.0, 0.05098 ],
					"patching_rect" : [ 456.0, 296.0, 112.0, 27.0 ],
					"border" : 1,
					"id" : "obj-9",
					"bordercolor" : [ 0.0, 0.0, 1.0, 0.733333 ],
					"rounded" : 30,
					"numinlets" : 1
				}

			}
, 			{
				"box" : 				{
					"maxclass" : "panel",
					"numoutlets" : 0,
					"bgcolor" : [ 0.776471, 0.776471, 0.776471, 0.0 ],
					"patching_rect" : [ 517.0, 356.0, 128.0, 35.0 ],
					"border" : 1,
					"id" : "obj-141",
					"bordercolor" : [ 0.501961, 0.501961, 0.501961, 1.0 ],
					"rounded" : 15,
					"numinlets" : 1
				}

			}
, 			{
				"box" : 				{
					"maxclass" : "panel",
					"numoutlets" : 0,
					"bgcolor" : [ 0.776471, 0.776471, 0.776471, 0.0 ],
					"patching_rect" : [ 463.0, 396.0, 182.0, 35.0 ],
					"border" : 1,
					"id" : "obj-105",
					"bordercolor" : [ 0.501961, 0.501961, 0.501961, 1.0 ],
					"rounded" : 15,
					"numinlets" : 1
				}

			}
, 			{
				"box" : 				{
					"maxclass" : "panel",
					"numoutlets" : 0,
					"bgcolor" : [ 0.776471, 0.776471, 0.776471, 0.0 ],
					"patching_rect" : [ 488.0, 255.0, 122.0, 35.0 ],
					"border" : 1,
					"id" : "obj-106",
					"bordercolor" : [ 0.501961, 0.501961, 0.501961, 1.0 ],
					"rounded" : 15,
					"numinlets" : 1
				}

			}
 ],
		"lines" : [ 			{
				"patchline" : 				{
					"source" : [ "obj-6", 0 ],
					"destination" : [ "obj-10", 0 ],
					"hidden" : 1,
					"midpoints" : [  ]
				}

			}
, 			{
				"patchline" : 				{
					"source" : [ "obj-6", 1 ],
					"destination" : [ "obj-10", 1 ],
					"hidden" : 1,
					"midpoints" : [  ]
				}

			}
, 			{
				"patchline" : 				{
					"source" : [ "obj-6", 2 ],
					"destination" : [ "obj-10", 2 ],
					"hidden" : 1,
					"midpoints" : [  ]
				}

			}
, 			{
				"patchline" : 				{
					"source" : [ "obj-94", 0 ],
					"destination" : [ "obj-91", 0 ],
					"hidden" : 0,
					"midpoints" : [  ]
				}

			}
, 			{
				"patchline" : 				{
					"source" : [ "obj-96", 1 ],
					"destination" : [ "obj-94", 0 ],
					"hidden" : 0,
					"midpoints" : [  ]
				}

			}
, 			{
				"patchline" : 				{
					"source" : [ "obj-95", 0 ],
					"destination" : [ "obj-92", 0 ],
					"hidden" : 0,
					"midpoints" : [  ]
				}

			}
, 			{
				"patchline" : 				{
					"source" : [ "obj-96", 0 ],
					"destination" : [ "obj-95", 0 ],
					"hidden" : 0,
					"midpoints" : [  ]
				}

			}
, 			{
				"patchline" : 				{
					"source" : [ "obj-87", 0 ],
					"destination" : [ "obj-96", 0 ],
					"hidden" : 0,
					"midpoints" : [  ]
				}

			}
, 			{
				"patchline" : 				{
					"source" : [ "obj-97", 0 ],
					"destination" : [ "obj-96", 0 ],
					"hidden" : 0,
					"midpoints" : [  ]
				}

			}
, 			{
				"patchline" : 				{
					"source" : [ "obj-93", 0 ],
					"destination" : [ "obj-97", 0 ],
					"hidden" : 0,
					"midpoints" : [  ]
				}

			}
 ]
	}

}
