{
	"patcher" : 	{
		"fileversion" : 1,
		"rect" : [ 114.0, 81.0, 971.0, 624.0 ],
		"bgcolor" : [ 0.823529, 0.823529, 0.764706, 1.0 ],
		"bglocked" : 0,
		"defrect" : [ 114.0, 81.0, 971.0, 624.0 ],
		"openrect" : [ 0.0, 0.0, 0.0, 0.0 ],
		"openinpresentation" : 0,
		"default_fontsize" : 10.0,
		"default_fontface" : 0,
		"default_fontname" : "Arial",
		"gridonopen" : 0,
		"gridsize" : [ 15.0, 15.0 ],
		"gridsnaponopen" : 0,
		"toolbarvisible" : 1,
		"boxanimatetime" : 200,
		"imprint" : 0,
		"enablehscroll" : 1,
		"enablevscroll" : 1,
		"devicewidth" : 0.0,
		"boxes" : [ 			{
				"box" : 				{
					"maxclass" : "comment",
					"varname" : "copyright-comment",
					"text" : "Copyright ©2003-2010",
					"numoutlets" : 0,
					"frgb" : [ 0.0, 0.0, 0.0, 0.901961 ],
					"patching_rect" : [ 679.0, 459.0, 111.0, 18.0 ],
					"id" : "obj-80",
					"fontname" : "Arial",
					"fontsize" : 10.0,
					"textcolor" : [ 0.0, 0.0, 0.0, 0.901961 ],
					"numinlets" : 1
				}

			}
, 			{
				"box" : 				{
					"maxclass" : "comment",
					"varname" : "support-comment",
					"text" : "Support:\nInternational Academy of Media Arts & Sciences (IAMAS) \n– Gifu, Japan",
					"linecount" : 3,
					"numoutlets" : 0,
					"patching_rect" : [ 679.0, 416.5, 243.0, 38.0 ],
					"id" : "obj-81",
					"fontname" : "Arial",
					"fontsize" : 9.0,
					"numinlets" : 1
				}

			}
, 			{
				"box" : 				{
					"maxclass" : "comment",
					"varname" : "email-comment",
					"text" : "jmp@jmpelletier.com\n",
					"numoutlets" : 0,
					"frgb" : [ 0.0, 0.0, 0.0, 0.901961 ],
					"patching_rect" : [ 814.0, 394.0, 105.0, 18.0 ],
					"id" : "obj-82",
					"fontname" : "Arial",
					"fontsize" : 10.0,
					"textcolor" : [ 0.0, 0.0, 0.0, 0.901961 ],
					"numinlets" : 1
				}

			}
, 			{
				"box" : 				{
					"maxclass" : "comment",
					"varname" : "me-comment",
					"text" : "By Jean-Marc Pelletier\n",
					"numoutlets" : 0,
					"patching_rect" : [ 679.0, 392.0, 135.0, 20.0 ],
					"id" : "obj-83",
					"fontname" : "Arial",
					"fontsize" : 12.0,
					"numinlets" : 1
				}

			}
, 			{
				"box" : 				{
					"maxclass" : "panel",
					"varname" : "copyright-panel",
					"numoutlets" : 0,
					"bgcolor" : [ 1.0, 1.0, 1.0, 0.403922 ],
					"patching_rect" : [ 674.0, 387.0, 250.0, 95.0 ],
					"border" : 1,
					"id" : "obj-84",
					"bordercolor" : [ 0.0, 0.0, 0.0, 0.647059 ],
					"numinlets" : 1
				}

			}
, 			{
				"box" : 				{
					"maxclass" : "comment",
					"text" : ": y index of matrix",
					"numoutlets" : 0,
					"patching_rect" : [ 488.0, 312.0, 119.0, 17.0 ],
					"id" : "obj-5",
					"fontname" : "Arial",
					"fontsize" : 9.0,
					"numinlets" : 1
				}

			}
, 			{
				"box" : 				{
					"maxclass" : "comment",
					"text" : ": x index of matrix",
					"numoutlets" : 0,
					"patching_rect" : [ 488.0, 282.0, 119.0, 17.0 ],
					"id" : "obj-6",
					"fontname" : "Arial",
					"fontsize" : 9.0,
					"numinlets" : 1
				}

			}
, 			{
				"box" : 				{
					"maxclass" : "comment",
					"text" : ": total number of samples",
					"linecount" : 2,
					"numoutlets" : 0,
					"patching_rect" : [ 488.0, 256.0, 107.0, 27.0 ],
					"id" : "obj-7",
					"fontname" : "Arial",
					"fontsize" : 9.0,
					"numinlets" : 1
				}

			}
, 			{
				"box" : 				{
					"maxclass" : "comment",
					"text" : "j",
					"numoutlets" : 0,
					"patching_rect" : [ 452.0, 305.0, 23.0, 27.0 ],
					"id" : "obj-8",
					"fontname" : "Arial",
					"fontsize" : 18.0,
					"numinlets" : 1
				}

			}
, 			{
				"box" : 				{
					"maxclass" : "comment",
					"text" : "i",
					"numoutlets" : 0,
					"patching_rect" : [ 452.0, 275.0, 23.0, 27.0 ],
					"id" : "obj-9",
					"fontname" : "Arial",
					"fontsize" : 18.0,
					"numinlets" : 1
				}

			}
, 			{
				"box" : 				{
					"maxclass" : "comment",
					"text" : "n",
					"numoutlets" : 0,
					"patching_rect" : [ 453.0, 247.0, 23.0, 27.0 ],
					"id" : "obj-10",
					"fontname" : "Arial",
					"fontsize" : 18.0,
					"numinlets" : 1
				}

			}
, 			{
				"box" : 				{
					"maxclass" : "comment",
					"text" : "x",
					"numoutlets" : 0,
					"patching_rect" : [ 471.0, 227.0, 18.0, 20.0 ],
					"id" : "obj-11",
					"fontname" : "Arial",
					"fontsize" : 12.0,
					"numinlets" : 1
				}

			}
, 			{
				"box" : 				{
					"maxclass" : "comment",
					"text" : "m",
					"numoutlets" : 0,
					"patching_rect" : [ 452.0, 215.0, 23.0, 27.0 ],
					"id" : "obj-12",
					"fontname" : "Arial",
					"fontsize" : 18.0,
					"numinlets" : 1
				}

			}
, 			{
				"box" : 				{
					"maxclass" : "comment",
					"text" : "x",
					"numoutlets" : 0,
					"patching_rect" : [ 452.0, 190.0, 23.0, 27.0 ],
					"id" : "obj-13",
					"fontname" : "Arial",
					"fontsize" : 18.0,
					"numinlets" : 1
				}

			}
, 			{
				"box" : 				{
					"maxclass" : "comment",
					"text" : ": mean value of vector X",
					"numoutlets" : 0,
					"patching_rect" : [ 488.0, 220.0, 119.0, 17.0 ],
					"id" : "obj-14",
					"fontname" : "Arial",
					"fontsize" : 9.0,
					"numinlets" : 1
				}

			}
, 			{
				"box" : 				{
					"maxclass" : "comment",
					"text" : ":vector",
					"numoutlets" : 0,
					"patching_rect" : [ 488.0, 194.0, 51.0, 17.0 ],
					"id" : "obj-15",
					"fontname" : "Arial",
					"fontsize" : 9.0,
					"numinlets" : 1
				}

			}
, 			{
				"box" : 				{
					"maxclass" : "comment",
					"text" : "The cells are filled according to the following equation:",
					"linecount" : 2,
					"numoutlets" : 0,
					"patching_rect" : [ 450.0, 107.0, 223.0, 27.0 ],
					"id" : "obj-16",
					"fontname" : "Arial",
					"fontsize" : 9.0,
					"numinlets" : 1
				}

			}
, 			{
				"box" : 				{
					"maxclass" : "comment",
					"text" : "/ n-1",
					"linecount" : 2,
					"numoutlets" : 0,
					"patching_rect" : [ 645.0, 148.0, 35.0, 48.0 ],
					"id" : "obj-17",
					"fontname" : "Arial",
					"fontsize" : 18.0,
					"numinlets" : 1
				}

			}
, 			{
				"box" : 				{
					"maxclass" : "comment",
					"text" : ")",
					"numoutlets" : 0,
					"patching_rect" : [ 628.0, 148.0, 23.0, 27.0 ],
					"id" : "obj-18",
					"fontname" : "Arial",
					"fontsize" : 18.0,
					"numinlets" : 1
				}

			}
, 			{
				"box" : 				{
					"maxclass" : "comment",
					"text" : "j",
					"numoutlets" : 0,
					"patching_rect" : [ 617.0, 167.0, 17.0, 18.0 ],
					"id" : "obj-19",
					"fontname" : "Arial",
					"fontsize" : 10.0,
					"numinlets" : 1
				}

			}
, 			{
				"box" : 				{
					"maxclass" : "comment",
					"text" : "j",
					"numoutlets" : 0,
					"patching_rect" : [ 564.0, 160.0, 17.0, 18.0 ],
					"id" : "obj-20",
					"fontname" : "Arial",
					"fontsize" : 10.0,
					"numinlets" : 1
				}

			}
, 			{
				"box" : 				{
					"maxclass" : "comment",
					"text" : "x",
					"numoutlets" : 0,
					"patching_rect" : [ 608.0, 160.0, 18.0, 20.0 ],
					"id" : "obj-21",
					"fontname" : "Arial",
					"fontsize" : 12.0,
					"numinlets" : 1
				}

			}
, 			{
				"box" : 				{
					"maxclass" : "comment",
					"text" : "- m",
					"numoutlets" : 0,
					"patching_rect" : [ 577.0, 148.0, 72.0, 27.0 ],
					"id" : "obj-22",
					"fontname" : "Arial",
					"fontsize" : 18.0,
					"numinlets" : 1
				}

			}
, 			{
				"box" : 				{
					"maxclass" : "comment",
					"text" : "(x",
					"numoutlets" : 0,
					"patching_rect" : [ 547.0, 148.0, 100.0, 27.0 ],
					"id" : "obj-23",
					"fontname" : "Arial",
					"fontsize" : 18.0,
					"numinlets" : 1
				}

			}
, 			{
				"box" : 				{
					"maxclass" : "comment",
					"text" : ")",
					"numoutlets" : 0,
					"patching_rect" : [ 532.0, 148.0, 23.0, 27.0 ],
					"id" : "obj-24",
					"fontname" : "Arial",
					"fontsize" : 18.0,
					"numinlets" : 1
				}

			}
, 			{
				"box" : 				{
					"maxclass" : "comment",
					"text" : "i",
					"numoutlets" : 0,
					"patching_rect" : [ 521.0, 167.0, 17.0, 18.0 ],
					"id" : "obj-25",
					"fontname" : "Arial",
					"fontsize" : 10.0,
					"numinlets" : 1
				}

			}
, 			{
				"box" : 				{
					"maxclass" : "comment",
					"text" : "i",
					"numoutlets" : 0,
					"patching_rect" : [ 468.0, 160.0, 17.0, 18.0 ],
					"id" : "obj-26",
					"fontname" : "Arial",
					"fontsize" : 10.0,
					"numinlets" : 1
				}

			}
, 			{
				"box" : 				{
					"maxclass" : "comment",
					"text" : "x",
					"numoutlets" : 0,
					"patching_rect" : [ 512.0, 160.0, 18.0, 20.0 ],
					"id" : "obj-27",
					"fontname" : "Arial",
					"fontsize" : 12.0,
					"numinlets" : 1
				}

			}
, 			{
				"box" : 				{
					"maxclass" : "jit.pwindow",
					"depthbuffer" : 0,
					"numoutlets" : 2,
					"patching_rect" : [ 154.0, 265.0, 80.0, 60.0 ],
					"id" : "obj-28",
					"outlettype" : [ "", "" ],
					"numinlets" : 1
				}

			}
, 			{
				"box" : 				{
					"maxclass" : "jit.cellblock",
					"numoutlets" : 4,
					"selmode" : 0,
					"vscroll" : 0,
					"hscroll" : 0,
					"bgcolor" : [ 0.992218, 0.992218, 0.992218, 1.0 ],
					"patching_rect" : [ 249.0, 416.0, 386.0, 120.0 ],
					"headercolor" : [ 0.743191, 0.743191, 0.743191, 1.0 ],
					"id" : "obj-29",
					"outlettype" : [ "list", "", "", "" ],
					"fontname" : "Geneva",
					"bordercolor" : [ 0.0, 0.0, 0.0, 1.0 ],
					"rows" : 7,
					"gridlinecolor" : [ 0.0, 0.0, 0.0, 1.0 ],
					"cols" : 7,
					"colwidth" : 55,
					"hcellcolor" : [ 0.836576, 0.836576, 0.933852, 1.0 ],
					"fontsize" : 9.0,
					"rowheight" : 17,
					"numinlets" : 2,
					"precision" : 4
				}

			}
, 			{
				"box" : 				{
					"maxclass" : "message",
					"text" : "reset",
					"numoutlets" : 1,
					"patching_rect" : [ 411.0, 368.0, 32.0, 15.0 ],
					"id" : "obj-30",
					"outlettype" : [ "" ],
					"fontname" : "Arial",
					"fontsize" : 9.0,
					"numinlets" : 2
				}

			}
, 			{
				"box" : 				{
					"maxclass" : "comment",
					"text" : "Reset matrix",
					"numoutlets" : 0,
					"patching_rect" : [ 452.0, 367.0, 105.0, 17.0 ],
					"id" : "obj-31",
					"fontname" : "Arial",
					"fontsize" : 9.0,
					"numinlets" : 1
				}

			}
, 			{
				"box" : 				{
					"maxclass" : "panel",
					"numoutlets" : 0,
					"bgcolor" : [ 0.776471, 0.776471, 0.776471, 1.0 ],
					"patching_rect" : [ 402.0, 360.0, 160.0, 32.0 ],
					"border" : 1,
					"id" : "obj-32",
					"bordercolor" : [ 0.54902, 0.54902, 0.54902, 1.0 ],
					"rounded" : 0,
					"numinlets" : 1
				}

			}
, 			{
				"box" : 				{
					"maxclass" : "newobj",
					"text" : "cv.jit.covariance",
					"numoutlets" : 2,
					"patching_rect" : [ 249.0, 390.0, 85.0, 17.0 ],
					"id" : "obj-33",
					"outlettype" : [ "jit_matrix", "" ],
					"fontname" : "Arial",
					"fontsize" : 9.0,
					"numinlets" : 1
				}

			}
, 			{
				"box" : 				{
					"maxclass" : "newobj",
					"text" : "jit.matrix vector 1 float64 7",
					"numoutlets" : 2,
					"patching_rect" : [ 249.0, 309.0, 140.0, 17.0 ],
					"id" : "obj-34",
					"outlettype" : [ "jit_matrix", "" ],
					"fontname" : "Arial",
					"fontsize" : 9.0,
					"numinlets" : 1
				}

			}
, 			{
				"box" : 				{
					"maxclass" : "newobj",
					"text" : "jit.fill vector",
					"numoutlets" : 2,
					"patching_rect" : [ 249.0, 286.0, 68.0, 17.0 ],
					"id" : "obj-35",
					"outlettype" : [ "", "" ],
					"fontname" : "Arial",
					"fontsize" : 9.0,
					"numinlets" : 1
				}

			}
, 			{
				"box" : 				{
					"maxclass" : "newobj",
					"text" : "r moments",
					"numoutlets" : 1,
					"patching_rect" : [ 249.0, 262.0, 55.0, 17.0 ],
					"id" : "obj-36",
					"outlettype" : [ "" ],
					"fontname" : "Arial",
					"fontsize" : 9.0,
					"numinlets" : 0
				}

			}
, 			{
				"box" : 				{
					"maxclass" : "newobj",
					"text" : "p adjust-moment-values",
					"numoutlets" : 1,
					"patching_rect" : [ 44.0, 359.0, 118.0, 17.0 ],
					"id" : "obj-37",
					"outlettype" : [ "" ],
					"fontname" : "Arial",
					"fontsize" : 9.0,
					"numinlets" : 1,
					"patcher" : 					{
						"fileversion" : 1,
						"rect" : [ 303.0, 298.0, 381.0, 371.0 ],
						"bgcolor" : [ 0.823529, 0.823529, 0.764706, 1.0 ],
						"bglocked" : 0,
						"defrect" : [ 303.0, 298.0, 381.0, 371.0 ],
						"openrect" : [ 0.0, 0.0, 0.0, 0.0 ],
						"openinpresentation" : 0,
						"default_fontsize" : 10.0,
						"default_fontface" : 0,
						"default_fontname" : "Arial",
						"gridonopen" : 0,
						"gridsize" : [ 15.0, 15.0 ],
						"gridsnaponopen" : 0,
						"toolbarvisible" : 1,
						"boxanimatetime" : 200,
						"imprint" : 0,
						"enablehscroll" : 1,
						"enablevscroll" : 1,
						"devicewidth" : 0.0,
						"boxes" : [ 							{
								"box" : 								{
									"maxclass" : "newobj",
									"text" : "loadbang",
									"linecount" : 2,
									"numoutlets" : 1,
									"patching_rect" : [ 133.0, 75.0, 45.0, 27.0 ],
									"id" : "obj-1",
									"outlettype" : [ "bang" ],
									"fontname" : "Arial",
									"fontsize" : 9.0,
									"numinlets" : 1
								}

							}
, 							{
								"box" : 								{
									"maxclass" : "message",
									"text" : "10. 10. 10. 1000. 1000. 100. 100.",
									"numoutlets" : 1,
									"patching_rect" : [ 133.0, 112.0, 165.0, 15.0 ],
									"id" : "obj-2",
									"outlettype" : [ "" ],
									"fontname" : "Arial",
									"fontsize" : 9.0,
									"numinlets" : 2
								}

							}
, 							{
								"box" : 								{
									"maxclass" : "outlet",
									"numoutlets" : 0,
									"patching_rect" : [ 60.0, 185.0, 15.0, 15.0 ],
									"id" : "obj-3",
									"numinlets" : 1,
									"comment" : "(list) invariants"
								}

							}
, 							{
								"box" : 								{
									"maxclass" : "newobj",
									"text" : "bgcolor 210 210 195",
									"hidden" : 1,
									"numoutlets" : 0,
									"patching_rect" : [ 364.0, 312.0, 104.0, 17.0 ],
									"id" : "obj-4",
									"fontname" : "Arial",
									"fontsize" : 9.0,
									"numinlets" : 4
								}

							}
, 							{
								"box" : 								{
									"maxclass" : "newobj",
									"text" : "vexpr $f1 * $f2",
									"numoutlets" : 1,
									"patching_rect" : [ 60.0, 149.0, 83.0, 17.0 ],
									"id" : "obj-5",
									"outlettype" : [ "" ],
									"fontname" : "Arial",
									"fontsize" : 9.0,
									"numinlets" : 2
								}

							}
, 							{
								"box" : 								{
									"maxclass" : "inlet",
									"numoutlets" : 1,
									"patching_rect" : [ 60.0, 60.0, 15.0, 15.0 ],
									"id" : "obj-6",
									"outlettype" : [ "" ],
									"numinlets" : 0,
									"comment" : "(list) invariants"
								}

							}
 ],
						"lines" : [ 							{
								"patchline" : 								{
									"source" : [ "obj-6", 0 ],
									"destination" : [ "obj-5", 0 ],
									"hidden" : 0,
									"midpoints" : [  ]
								}

							}
, 							{
								"patchline" : 								{
									"source" : [ "obj-5", 0 ],
									"destination" : [ "obj-3", 0 ],
									"hidden" : 0,
									"midpoints" : [  ]
								}

							}
, 							{
								"patchline" : 								{
									"source" : [ "obj-1", 0 ],
									"destination" : [ "obj-2", 0 ],
									"hidden" : 0,
									"midpoints" : [  ]
								}

							}
, 							{
								"patchline" : 								{
									"source" : [ "obj-2", 0 ],
									"destination" : [ "obj-5", 1 ],
									"hidden" : 0,
									"midpoints" : [  ]
								}

							}
 ]
					}
,
					"saved_object_attributes" : 					{
						"default_fontname" : "Arial",
						"fontname" : "Arial",
						"default_fontsize" : 10.0,
						"globalpatchername" : "",
						"fontface" : 0,
						"fontsize" : 10.0,
						"default_fontface" : 0
					}

				}

			}
, 			{
				"box" : 				{
					"maxclass" : "newobj",
					"text" : "gate",
					"numoutlets" : 1,
					"patching_rect" : [ 44.0, 333.0, 27.0, 17.0 ],
					"id" : "obj-38",
					"outlettype" : [ "" ],
					"fontname" : "Arial",
					"fontsize" : 9.0,
					"numinlets" : 2
				}

			}
, 			{
				"box" : 				{
					"maxclass" : "newobj",
					"text" : "> 0",
					"numoutlets" : 1,
					"patching_rect" : [ 94.0, 305.0, 27.0, 17.0 ],
					"id" : "obj-39",
					"outlettype" : [ "int" ],
					"fontname" : "Arial",
					"fontsize" : 9.0,
					"numinlets" : 2
				}

			}
, 			{
				"box" : 				{
					"maxclass" : "newobj",
					"text" : "s moments",
					"numoutlets" : 0,
					"patching_rect" : [ 44.0, 385.0, 55.0, 17.0 ],
					"id" : "obj-40",
					"fontname" : "Arial",
					"fontsize" : 9.0,
					"numinlets" : 1
				}

			}
, 			{
				"box" : 				{
					"maxclass" : "newobj",
					"text" : "cv.jit.moments",
					"numoutlets" : 5,
					"patching_rect" : [ 52.0, 281.0, 75.0, 17.0 ],
					"id" : "obj-41",
					"outlettype" : [ "", "", "", "", "" ],
					"fontname" : "Arial",
					"fontsize" : 9.0,
					"numinlets" : 1
				}

			}
, 			{
				"box" : 				{
					"maxclass" : "newobj",
					"text" : "jit.rgb2luma",
					"numoutlets" : 2,
					"patching_rect" : [ 26.0, 209.0, 64.0, 17.0 ],
					"id" : "obj-42",
					"outlettype" : [ "jit_matrix", "" ],
					"fontname" : "Arial",
					"fontsize" : 9.0,
					"numinlets" : 1
				}

			}
, 			{
				"box" : 				{
					"maxclass" : "comment",
					"text" : "Change thresholding value to obtain a binary image",
					"linecount" : 3,
					"numoutlets" : 0,
					"patching_rect" : [ 230.0, 189.0, 105.0, 38.0 ],
					"id" : "obj-43",
					"fontname" : "Arial",
					"fontsize" : 9.0,
					"numinlets" : 1
				}

			}
, 			{
				"box" : 				{
					"maxclass" : "number",
					"triscale" : 0.9,
					"numoutlets" : 2,
					"bgcolor" : [ 0.866667, 0.866667, 0.866667, 1.0 ],
					"patching_rect" : [ 190.0, 197.0, 35.0, 17.0 ],
					"id" : "obj-44",
					"outlettype" : [ "int", "bang" ],
					"fontname" : "Arial",
					"htextcolor" : [ 0.870588, 0.870588, 0.870588, 1.0 ],
					"fontsize" : 9.0,
					"numinlets" : 1
				}

			}
, 			{
				"box" : 				{
					"maxclass" : "newobj",
					"text" : "jit.op @op > @val 50",
					"numoutlets" : 2,
					"patching_rect" : [ 26.0, 234.0, 101.0, 17.0 ],
					"id" : "obj-45",
					"outlettype" : [ "jit_matrix", "" ],
					"fontname" : "Arial",
					"fontsize" : 9.0,
					"numinlets" : 2
				}

			}
, 			{
				"box" : 				{
					"maxclass" : "panel",
					"numoutlets" : 0,
					"bgcolor" : [ 0.776471, 0.776471, 0.776471, 1.0 ],
					"patching_rect" : [ 180.0, 184.0, 159.0, 47.0 ],
					"border" : 1,
					"id" : "obj-46",
					"bordercolor" : [ 0.54902, 0.54902, 0.54902, 1.0 ],
					"rounded" : 0,
					"numinlets" : 1
				}

			}
, 			{
				"box" : 				{
					"maxclass" : "comment",
					"text" : "Calculates the covariance matrix of a vector.\nFor a vector with n elements, returns an n by n matrix.",
					"linecount" : 2,
					"numoutlets" : 0,
					"patching_rect" : [ 450.0, 72.0, 228.0, 27.0 ],
					"id" : "obj-47",
					"fontname" : "Arial",
					"fontsize" : 9.0,
					"numinlets" : 1
				}

			}
, 			{
				"box" : 				{
					"maxclass" : "comment",
					"text" : "1-plane float32 or float64",
					"numoutlets" : 0,
					"patching_rect" : [ 763.0, 292.0, 163.0, 17.0 ],
					"id" : "obj-48",
					"fontname" : "Arial",
					"fontsize" : 9.0,
					"numinlets" : 1
				}

			}
, 			{
				"box" : 				{
					"maxclass" : "comment",
					"text" : "1-dimension float32 or float64",
					"numoutlets" : 0,
					"patching_rect" : [ 761.0, 257.0, 163.0, 17.0 ],
					"id" : "obj-49",
					"fontname" : "Arial",
					"fontsize" : 9.0,
					"numinlets" : 1
				}

			}
, 			{
				"box" : 				{
					"maxclass" : "newobj",
					"text" : "jit.matrix 4 char 160 120",
					"numoutlets" : 2,
					"patching_rect" : [ 26.0, 179.0, 125.0, 17.0 ],
					"id" : "obj-50",
					"outlettype" : [ "jit_matrix", "" ],
					"fontname" : "Arial",
					"fontsize" : 9.0,
					"numinlets" : 1
				}

			}
, 			{
				"box" : 				{
					"maxclass" : "comment",
					"text" : "Output:",
					"numoutlets" : 0,
					"frgb" : [ 0.968627, 0.968627, 0.968627, 1.0 ],
					"patching_rect" : [ 714.0, 292.0, 41.0, 17.0 ],
					"id" : "obj-51",
					"fontname" : "Arial",
					"fontsize" : 9.0,
					"textcolor" : [ 0.968627, 0.968627, 0.968627, 1.0 ],
					"numinlets" : 1
				}

			}
, 			{
				"box" : 				{
					"maxclass" : "comment",
					"text" : "Input:",
					"numoutlets" : 0,
					"frgb" : [ 0.968627, 0.968627, 0.968627, 1.0 ],
					"patching_rect" : [ 714.0, 257.0, 34.0, 17.0 ],
					"id" : "obj-52",
					"fontname" : "Arial",
					"fontsize" : 9.0,
					"textcolor" : [ 0.968627, 0.968627, 0.968627, 1.0 ],
					"numinlets" : 1
				}

			}
, 			{
				"box" : 				{
					"maxclass" : "panel",
					"numoutlets" : 0,
					"bgcolor" : [ 0.54902, 0.54902, 0.54902, 1.0 ],
					"patching_rect" : [ 710.0, 286.0, 51.0, 28.0 ],
					"border" : 1,
					"id" : "obj-53",
					"bordercolor" : [ 0.776471, 0.776471, 0.776471, 1.0 ],
					"rounded" : 0,
					"numinlets" : 1
				}

			}
, 			{
				"box" : 				{
					"maxclass" : "panel",
					"numoutlets" : 0,
					"bgcolor" : [ 0.54902, 0.54902, 0.54902, 1.0 ],
					"patching_rect" : [ 710.0, 250.0, 51.0, 37.0 ],
					"border" : 1,
					"id" : "obj-54",
					"bordercolor" : [ 0.776471, 0.776471, 0.776471, 1.0 ],
					"rounded" : 0,
					"numinlets" : 1
				}

			}
, 			{
				"box" : 				{
					"maxclass" : "panel",
					"numoutlets" : 0,
					"bgcolor" : [ 0.776471, 0.776471, 0.776471, 1.0 ],
					"patching_rect" : [ 710.0, 250.0, 218.0, 36.0 ],
					"border" : 1,
					"id" : "obj-55",
					"bordercolor" : [ 0.54902, 0.54902, 0.54902, 1.0 ],
					"rounded" : 0,
					"numinlets" : 1
				}

			}
, 			{
				"box" : 				{
					"maxclass" : "panel",
					"numoutlets" : 0,
					"bgcolor" : [ 0.776471, 0.776471, 0.776471, 1.0 ],
					"patching_rect" : [ 710.0, 285.0, 218.0, 29.0 ],
					"border" : 1,
					"id" : "obj-56",
					"bordercolor" : [ 0.54902, 0.54902, 0.54902, 1.0 ],
					"rounded" : 0,
					"numinlets" : 1
				}

			}
, 			{
				"box" : 				{
					"maxclass" : "newobj",
					"text" : "bgcolor 210 210 195",
					"hidden" : 1,
					"numoutlets" : 0,
					"patching_rect" : [ 703.0, 610.0, 104.0, 17.0 ],
					"id" : "obj-57",
					"fontname" : "Arial",
					"fontsize" : 9.0,
					"numinlets" : 4
				}

			}
, 			{
				"box" : 				{
					"maxclass" : "message",
					"text" : "settings",
					"numoutlets" : 1,
					"patching_rect" : [ 146.0, 102.0, 44.0, 15.0 ],
					"id" : "obj-58",
					"outlettype" : [ "" ],
					"fontname" : "Arial",
					"fontsize" : 9.0,
					"numinlets" : 2
				}

			}
, 			{
				"box" : 				{
					"maxclass" : "flonum",
					"triscale" : 0.9,
					"numoutlets" : 2,
					"bgcolor" : [ 0.866667, 0.866667, 0.866667, 1.0 ],
					"patching_rect" : [ 385.0, 80.0, 35.0, 17.0 ],
					"id" : "obj-59",
					"outlettype" : [ "float", "bang" ],
					"fontname" : "Arial",
					"htextcolor" : [ 0.870588, 0.870588, 0.870588, 1.0 ],
					"fontsize" : 9.0,
					"numinlets" : 1
				}

			}
, 			{
				"box" : 				{
					"maxclass" : "message",
					"text" : "rate $1",
					"numoutlets" : 1,
					"patching_rect" : [ 385.0, 101.0, 42.0, 15.0 ],
					"id" : "obj-60",
					"outlettype" : [ "" ],
					"fontname" : "Arial",
					"fontsize" : 9.0,
					"numinlets" : 2
				}

			}
, 			{
				"box" : 				{
					"maxclass" : "comment",
					"text" : "...or use a movie file",
					"numoutlets" : 0,
					"patching_rect" : [ 259.0, 78.0, 131.0, 17.0 ],
					"id" : "obj-61",
					"fontname" : "Arial",
					"fontsize" : 9.0,
					"numinlets" : 1
				}

			}
, 			{
				"box" : 				{
					"maxclass" : "comment",
					"text" : "Use live camera input",
					"numoutlets" : 0,
					"patching_rect" : [ 48.0, 78.0, 105.0, 17.0 ],
					"id" : "obj-62",
					"fontname" : "Arial",
					"fontsize" : 9.0,
					"numinlets" : 1
				}

			}
, 			{
				"box" : 				{
					"maxclass" : "toggle",
					"numoutlets" : 1,
					"patching_rect" : [ 235.0, 77.0, 15.0, 15.0 ],
					"id" : "obj-63",
					"outlettype" : [ "int" ],
					"numinlets" : 1
				}

			}
, 			{
				"box" : 				{
					"maxclass" : "newobj",
					"text" : "qmetro 2",
					"numoutlets" : 1,
					"patching_rect" : [ 235.0, 101.0, 49.0, 17.0 ],
					"id" : "obj-64",
					"outlettype" : [ "bang" ],
					"fontname" : "Arial",
					"fontsize" : 9.0,
					"numinlets" : 2
				}

			}
, 			{
				"box" : 				{
					"maxclass" : "message",
					"text" : "read",
					"numoutlets" : 1,
					"patching_rect" : [ 288.0, 101.0, 28.0, 15.0 ],
					"id" : "obj-65",
					"outlettype" : [ "" ],
					"fontname" : "Arial",
					"fontsize" : 9.0,
					"numinlets" : 2
				}

			}
, 			{
				"box" : 				{
					"maxclass" : "message",
					"text" : "stop",
					"numoutlets" : 1,
					"patching_rect" : [ 353.0, 101.0, 27.0, 15.0 ],
					"id" : "obj-66",
					"outlettype" : [ "" ],
					"fontname" : "Arial",
					"fontsize" : 9.0,
					"numinlets" : 2
				}

			}
, 			{
				"box" : 				{
					"maxclass" : "message",
					"text" : "start",
					"numoutlets" : 1,
					"patching_rect" : [ 319.0, 101.0, 31.0, 15.0 ],
					"id" : "obj-67",
					"outlettype" : [ "" ],
					"fontname" : "Arial",
					"fontsize" : 9.0,
					"numinlets" : 2
				}

			}
, 			{
				"box" : 				{
					"maxclass" : "newobj",
					"text" : "jit.qt.movie",
					"numoutlets" : 2,
					"patching_rect" : [ 235.0, 131.0, 61.0, 17.0 ],
					"id" : "obj-68",
					"outlettype" : [ "jit_matrix", "" ],
					"fontname" : "Arial",
					"fontsize" : 9.0,
					"numinlets" : 1
				}

			}
, 			{
				"box" : 				{
					"maxclass" : "message",
					"text" : "close",
					"numoutlets" : 1,
					"patching_rect" : [ 110.0, 101.0, 31.0, 15.0 ],
					"id" : "obj-69",
					"outlettype" : [ "" ],
					"fontname" : "Arial",
					"fontsize" : 9.0,
					"numinlets" : 2
				}

			}
, 			{
				"box" : 				{
					"maxclass" : "message",
					"text" : "open",
					"numoutlets" : 1,
					"patching_rect" : [ 79.0, 101.0, 29.0, 15.0 ],
					"id" : "obj-70",
					"outlettype" : [ "" ],
					"fontname" : "Arial",
					"fontsize" : 9.0,
					"numinlets" : 2
				}

			}
, 			{
				"box" : 				{
					"maxclass" : "toggle",
					"numoutlets" : 1,
					"patching_rect" : [ 26.0, 77.0, 15.0, 15.0 ],
					"id" : "obj-71",
					"outlettype" : [ "int" ],
					"numinlets" : 1
				}

			}
, 			{
				"box" : 				{
					"maxclass" : "newobj",
					"text" : "qmetro 2",
					"numoutlets" : 1,
					"patching_rect" : [ 26.0, 101.0, 49.0, 17.0 ],
					"id" : "obj-72",
					"outlettype" : [ "bang" ],
					"fontname" : "Arial",
					"fontsize" : 9.0,
					"numinlets" : 2
				}

			}
, 			{
				"box" : 				{
					"maxclass" : "newobj",
					"text" : "jit.qt.grab 160 120 @vmode 2 @unique 1",
					"numoutlets" : 2,
					"patching_rect" : [ 26.0, 131.0, 195.0, 17.0 ],
					"id" : "obj-73",
					"outlettype" : [ "jit_matrix", "" ],
					"fontname" : "Arial",
					"fontsize" : 9.0,
					"numinlets" : 1
				}

			}
, 			{
				"box" : 				{
					"maxclass" : "panel",
					"numoutlets" : 0,
					"bgcolor" : [ 0.54902, 0.54902, 0.54902, 1.0 ],
					"patching_rect" : [ 228.0, 66.0, 208.0, 94.0 ],
					"id" : "obj-74",
					"rounded" : 0,
					"numinlets" : 1
				}

			}
, 			{
				"box" : 				{
					"maxclass" : "comment",
					"text" : "cv.jit.covariance",
					"numoutlets" : 0,
					"frgb" : [ 0.505882, 0.278431, 0.141176, 1.0 ],
					"patching_rect" : [ 18.0, 24.0, 646.0, 34.0 ],
					"id" : "obj-75",
					"fontname" : "Arial",
					"fontsize" : 24.0,
					"textcolor" : [ 0.505882, 0.278431, 0.141176, 1.0 ],
					"numinlets" : 1
				}

			}
, 			{
				"box" : 				{
					"maxclass" : "panel",
					"numoutlets" : 0,
					"bgcolor" : [ 0.54902, 0.54902, 0.54902, 1.0 ],
					"patching_rect" : [ 18.0, 66.0, 207.0, 93.0 ],
					"id" : "obj-76",
					"rounded" : 0,
					"numinlets" : 1
				}

			}
, 			{
				"box" : 				{
					"maxclass" : "comment",
					"text" : "- m",
					"numoutlets" : 0,
					"patching_rect" : [ 481.0, 148.0, 100.0, 27.0 ],
					"id" : "obj-77",
					"fontname" : "Arial",
					"fontsize" : 18.0,
					"numinlets" : 1
				}

			}
, 			{
				"box" : 				{
					"maxclass" : "comment",
					"text" : "(x",
					"numoutlets" : 0,
					"patching_rect" : [ 451.0, 148.0, 100.0, 27.0 ],
					"id" : "obj-78",
					"fontname" : "Arial",
					"fontsize" : 18.0,
					"numinlets" : 1
				}

			}
, 			{
				"box" : 				{
					"maxclass" : "panel",
					"numoutlets" : 0,
					"bgcolor" : [ 0.823529, 0.823529, 0.764706, 1.0 ],
					"patching_rect" : [ 440.0, 66.0, 262.0, 271.0 ],
					"border" : 1,
					"id" : "obj-79",
					"bordercolor" : [ 0.54902, 0.54902, 0.54902, 1.0 ],
					"rounded" : 0,
					"numinlets" : 1
				}

			}
 ],
		"lines" : [ 			{
				"patchline" : 				{
					"source" : [ "obj-71", 0 ],
					"destination" : [ "obj-72", 0 ],
					"hidden" : 0,
					"midpoints" : [  ]
				}

			}
, 			{
				"patchline" : 				{
					"source" : [ "obj-58", 0 ],
					"destination" : [ "obj-73", 0 ],
					"hidden" : 0,
					"midpoints" : [ 155.5, 123.0, 35.5, 123.0 ]
				}

			}
, 			{
				"patchline" : 				{
					"source" : [ "obj-72", 0 ],
					"destination" : [ "obj-73", 0 ],
					"hidden" : 0,
					"midpoints" : [  ]
				}

			}
, 			{
				"patchline" : 				{
					"source" : [ "obj-70", 0 ],
					"destination" : [ "obj-73", 0 ],
					"hidden" : 0,
					"midpoints" : [ 88.5, 123.0, 35.5, 123.0 ]
				}

			}
, 			{
				"patchline" : 				{
					"source" : [ "obj-69", 0 ],
					"destination" : [ "obj-73", 0 ],
					"hidden" : 0,
					"midpoints" : [ 119.5, 123.0, 35.5, 123.0 ]
				}

			}
, 			{
				"patchline" : 				{
					"source" : [ "obj-73", 0 ],
					"destination" : [ "obj-50", 0 ],
					"hidden" : 0,
					"midpoints" : [ 35.5, 167.0, 35.5, 167.0 ]
				}

			}
, 			{
				"patchline" : 				{
					"source" : [ "obj-68", 0 ],
					"destination" : [ "obj-50", 0 ],
					"hidden" : 0,
					"midpoints" : [ 244.5, 167.0, 35.5, 167.0 ]
				}

			}
, 			{
				"patchline" : 				{
					"source" : [ "obj-50", 0 ],
					"destination" : [ "obj-42", 0 ],
					"hidden" : 0,
					"midpoints" : [  ]
				}

			}
, 			{
				"patchline" : 				{
					"source" : [ "obj-42", 0 ],
					"destination" : [ "obj-45", 0 ],
					"hidden" : 0,
					"midpoints" : [  ]
				}

			}
, 			{
				"patchline" : 				{
					"source" : [ "obj-39", 0 ],
					"destination" : [ "obj-38", 0 ],
					"hidden" : 0,
					"midpoints" : [ 103.5, 324.0, 53.5, 324.0 ]
				}

			}
, 			{
				"patchline" : 				{
					"source" : [ "obj-38", 0 ],
					"destination" : [ "obj-37", 0 ],
					"hidden" : 0,
					"midpoints" : [  ]
				}

			}
, 			{
				"patchline" : 				{
					"source" : [ "obj-37", 0 ],
					"destination" : [ "obj-40", 0 ],
					"hidden" : 0,
					"midpoints" : [  ]
				}

			}
, 			{
				"patchline" : 				{
					"source" : [ "obj-45", 0 ],
					"destination" : [ "obj-41", 0 ],
					"hidden" : 0,
					"midpoints" : [ 35.5, 257.0, 61.5, 257.0 ]
				}

			}
, 			{
				"patchline" : 				{
					"source" : [ "obj-41", 0 ],
					"destination" : [ "obj-38", 1 ],
					"hidden" : 0,
					"midpoints" : [  ]
				}

			}
, 			{
				"patchline" : 				{
					"source" : [ "obj-41", 3 ],
					"destination" : [ "obj-39", 0 ],
					"hidden" : 0,
					"midpoints" : [  ]
				}

			}
, 			{
				"patchline" : 				{
					"source" : [ "obj-44", 0 ],
					"destination" : [ "obj-45", 1 ],
					"hidden" : 0,
					"midpoints" : [ 199.5, 217.0, 117.5, 217.0 ]
				}

			}
, 			{
				"patchline" : 				{
					"source" : [ "obj-45", 0 ],
					"destination" : [ "obj-28", 0 ],
					"hidden" : 0,
					"midpoints" : [ 35.5, 257.0, 163.5, 257.0 ]
				}

			}
, 			{
				"patchline" : 				{
					"source" : [ "obj-63", 0 ],
					"destination" : [ "obj-64", 0 ],
					"hidden" : 0,
					"midpoints" : [  ]
				}

			}
, 			{
				"patchline" : 				{
					"source" : [ "obj-60", 0 ],
					"destination" : [ "obj-68", 0 ],
					"hidden" : 0,
					"midpoints" : [ 394.5, 123.0, 244.5, 123.0 ]
				}

			}
, 			{
				"patchline" : 				{
					"source" : [ "obj-64", 0 ],
					"destination" : [ "obj-68", 0 ],
					"hidden" : 0,
					"midpoints" : [  ]
				}

			}
, 			{
				"patchline" : 				{
					"source" : [ "obj-66", 0 ],
					"destination" : [ "obj-68", 0 ],
					"hidden" : 0,
					"midpoints" : [ 362.5, 123.0, 244.5, 123.0 ]
				}

			}
, 			{
				"patchline" : 				{
					"source" : [ "obj-67", 0 ],
					"destination" : [ "obj-68", 0 ],
					"hidden" : 0,
					"midpoints" : [ 328.5, 123.0, 244.5, 123.0 ]
				}

			}
, 			{
				"patchline" : 				{
					"source" : [ "obj-65", 0 ],
					"destination" : [ "obj-68", 0 ],
					"hidden" : 0,
					"midpoints" : [ 297.5, 123.0, 244.5, 123.0 ]
				}

			}
, 			{
				"patchline" : 				{
					"source" : [ "obj-36", 0 ],
					"destination" : [ "obj-35", 0 ],
					"hidden" : 0,
					"midpoints" : [  ]
				}

			}
, 			{
				"patchline" : 				{
					"source" : [ "obj-35", 0 ],
					"destination" : [ "obj-34", 0 ],
					"hidden" : 0,
					"midpoints" : [  ]
				}

			}
, 			{
				"patchline" : 				{
					"source" : [ "obj-34", 0 ],
					"destination" : [ "obj-33", 0 ],
					"hidden" : 0,
					"midpoints" : [  ]
				}

			}
, 			{
				"patchline" : 				{
					"source" : [ "obj-30", 0 ],
					"destination" : [ "obj-33", 0 ],
					"hidden" : 0,
					"midpoints" : [ 420.5, 386.0, 258.5, 386.0 ]
				}

			}
, 			{
				"patchline" : 				{
					"source" : [ "obj-33", 0 ],
					"destination" : [ "obj-29", 0 ],
					"hidden" : 0,
					"midpoints" : [  ]
				}

			}
, 			{
				"patchline" : 				{
					"source" : [ "obj-59", 0 ],
					"destination" : [ "obj-60", 0 ],
					"hidden" : 0,
					"midpoints" : [  ]
				}

			}
 ]
	}

}
