{
	"patcher" : 	{
		"fileversion" : 1,
		"rect" : [ 411.0, 81.0, 1029.0, 753.0 ],
		"bgcolor" : [ 0.941176, 0.909804, 0.866667, 1.0 ],
		"bglocked" : 0,
		"defrect" : [ 411.0, 81.0, 1029.0, 753.0 ],
		"openrect" : [ 0.0, 0.0, 0.0, 0.0 ],
		"openinpresentation" : 0,
		"default_fontsize" : 12.0,
		"default_fontface" : 0,
		"default_fontname" : "Arial",
		"gridonopen" : 0,
		"gridsize" : [ 15.0, 15.0 ],
		"gridsnaponopen" : 0,
		"toolbarvisible" : 1,
		"boxanimatetime" : 200,
		"imprint" : 0,
		"enablehscroll" : 1,
		"enablevscroll" : 1,
		"devicewidth" : 0.0,
		"boxes" : [ 			{
				"box" : 				{
					"maxclass" : "newobj",
					"text" : "loadbang",
					"hidden" : 1,
					"numoutlets" : 1,
					"patching_rect" : [ 532.0, 300.0, 52.0, 18.0 ],
					"id" : "obj-84",
					"outlettype" : [ "bang" ],
					"fontname" : "Arial",
					"fontsize" : 10.0,
					"numinlets" : 1
				}

			}
, 			{
				"box" : 				{
					"maxclass" : "comment",
					"text" : "Continuity weighting",
					"linecount" : 2,
					"numoutlets" : 0,
					"patching_rect" : [ 860.0, 329.0, 61.0, 29.0 ],
					"id" : "obj-81",
					"fontname" : "Arial",
					"fontsize" : 10.0,
					"numinlets" : 1
				}

			}
, 			{
				"box" : 				{
					"maxclass" : "comment",
					"text" : "Curvature weighting",
					"numoutlets" : 0,
					"patching_rect" : [ 787.0, 411.0, 112.0, 18.0 ],
					"id" : "obj-33",
					"fontname" : "Arial",
					"fontsize" : 10.0,
					"numinlets" : 1
				}

			}
, 			{
				"box" : 				{
					"maxclass" : "comment",
					"text" : "Image weighting",
					"numoutlets" : 0,
					"patching_rect" : [ 755.0, 244.0, 110.0, 18.0 ],
					"id" : "obj-35",
					"fontname" : "Arial",
					"fontsize" : 10.0,
					"numinlets" : 1
				}

			}
, 			{
				"box" : 				{
					"maxclass" : "comment",
					"text" : "Curvature weighting",
					"linecount" : 2,
					"numoutlets" : 0,
					"patching_rect" : [ 685.0, 329.0, 62.0, 29.0 ],
					"id" : "obj-36",
					"fontname" : "Arial",
					"fontsize" : 10.0,
					"numinlets" : 1
				}

			}
, 			{
				"box" : 				{
					"maxclass" : "comment",
					"text" : "Continuity weighting",
					"numoutlets" : 0,
					"patching_rect" : [ 787.0, 392.0, 113.0, 18.0 ],
					"id" : "obj-40",
					"fontname" : "Arial",
					"fontsize" : 10.0,
					"numinlets" : 1
				}

			}
, 			{
				"box" : 				{
					"maxclass" : "newobj",
					"text" : "loadbang",
					"hidden" : 1,
					"numoutlets" : 1,
					"patching_rect" : [ 748.0, 271.0, 53.0, 18.0 ],
					"id" : "obj-41",
					"outlettype" : [ "bang" ],
					"fontname" : "Arial",
					"fontsize" : 10.0,
					"numinlets" : 1
				}

			}
, 			{
				"box" : 				{
					"maxclass" : "newobj",
					"text" : "p calcl_weights",
					"numoutlets" : 3,
					"patching_rect" : [ 748.0, 367.0, 109.0, 18.0 ],
					"id" : "obj-68",
					"outlettype" : [ "float", "float", "float" ],
					"fontname" : "Arial",
					"fontsize" : 10.0,
					"numinlets" : 2,
					"patcher" : 					{
						"fileversion" : 1,
						"rect" : [ 10.0, 59.0, 600.0, 426.0 ],
						"bglocked" : 0,
						"defrect" : [ 10.0, 59.0, 600.0, 426.0 ],
						"openrect" : [ 0.0, 0.0, 0.0, 0.0 ],
						"openinpresentation" : 0,
						"default_fontsize" : 10.0,
						"default_fontface" : 0,
						"default_fontname" : "Arial",
						"gridonopen" : 0,
						"gridsize" : [ 15.0, 15.0 ],
						"gridsnaponopen" : 0,
						"toolbarvisible" : 1,
						"boxanimatetime" : 200,
						"imprint" : 0,
						"enablehscroll" : 1,
						"enablevscroll" : 1,
						"devicewidth" : 0.0,
						"boxes" : [ 							{
								"box" : 								{
									"maxclass" : "newobj",
									"text" : "/ 90.",
									"numoutlets" : 1,
									"patching_rect" : [ 224.0, 233.0, 34.0, 17.0 ],
									"id" : "obj-1",
									"outlettype" : [ "float" ],
									"fontname" : "Arial",
									"fontsize" : 9.0,
									"numinlets" : 2
								}

							}
, 							{
								"box" : 								{
									"maxclass" : "newobj",
									"text" : "/ 90.",
									"numoutlets" : 1,
									"patching_rect" : [ 137.0, 233.0, 34.0, 17.0 ],
									"id" : "obj-2",
									"outlettype" : [ "float" ],
									"fontname" : "Arial",
									"fontsize" : 9.0,
									"numinlets" : 2
								}

							}
, 							{
								"box" : 								{
									"maxclass" : "newobj",
									"text" : "/ 90.",
									"numoutlets" : 1,
									"patching_rect" : [ 50.0, 233.0, 34.0, 17.0 ],
									"id" : "obj-3",
									"outlettype" : [ "float" ],
									"fontname" : "Arial",
									"fontsize" : 9.0,
									"numinlets" : 2
								}

							}
, 							{
								"box" : 								{
									"maxclass" : "newobj",
									"text" : "!- 90.",
									"numoutlets" : 1,
									"patching_rect" : [ 224.0, 210.0, 36.0, 17.0 ],
									"id" : "obj-4",
									"outlettype" : [ "float" ],
									"fontname" : "Arial",
									"fontsize" : 9.0,
									"numinlets" : 2
								}

							}
, 							{
								"box" : 								{
									"maxclass" : "newobj",
									"text" : "!- 90.",
									"numoutlets" : 1,
									"patching_rect" : [ 137.0, 210.0, 36.0, 17.0 ],
									"id" : "obj-5",
									"outlettype" : [ "float" ],
									"fontname" : "Arial",
									"fontsize" : 9.0,
									"numinlets" : 2
								}

							}
, 							{
								"box" : 								{
									"maxclass" : "newobj",
									"text" : "!- 90.",
									"numoutlets" : 1,
									"patching_rect" : [ 50.0, 211.0, 36.0, 17.0 ],
									"id" : "obj-6",
									"outlettype" : [ "float" ],
									"fontname" : "Arial",
									"fontsize" : 9.0,
									"numinlets" : 2
								}

							}
, 							{
								"box" : 								{
									"maxclass" : "newobj",
									"text" : "clip 0. 90.",
									"numoutlets" : 1,
									"patching_rect" : [ 224.0, 189.0, 56.0, 17.0 ],
									"id" : "obj-7",
									"outlettype" : [ "" ],
									"fontname" : "Arial",
									"fontsize" : 9.0,
									"numinlets" : 3
								}

							}
, 							{
								"box" : 								{
									"maxclass" : "newobj",
									"text" : "clip 0. 90.",
									"numoutlets" : 1,
									"patching_rect" : [ 137.0, 189.0, 56.0, 17.0 ],
									"id" : "obj-8",
									"outlettype" : [ "" ],
									"fontname" : "Arial",
									"fontsize" : 9.0,
									"numinlets" : 3
								}

							}
, 							{
								"box" : 								{
									"maxclass" : "newobj",
									"text" : "clip 0. 90.",
									"numoutlets" : 1,
									"patching_rect" : [ 50.0, 189.0, 56.0, 17.0 ],
									"id" : "obj-9",
									"outlettype" : [ "" ],
									"fontname" : "Arial",
									"fontsize" : 9.0,
									"numinlets" : 3
								}

							}
, 							{
								"box" : 								{
									"maxclass" : "newobj",
									"text" : "pack",
									"numoutlets" : 1,
									"patching_rect" : [ 50.0, 50.0, 100.0, 17.0 ],
									"id" : "obj-10",
									"outlettype" : [ "" ],
									"fontname" : "Arial",
									"fontsize" : 9.0,
									"numinlets" : 2
								}

							}
, 							{
								"box" : 								{
									"maxclass" : "newobj",
									"text" : "cartopol",
									"numoutlets" : 2,
									"patching_rect" : [ 224.0, 166.0, 47.0, 17.0 ],
									"id" : "obj-11",
									"outlettype" : [ "float", "float" ],
									"fontname" : "Arial",
									"fontsize" : 9.0,
									"numinlets" : 2
								}

							}
, 							{
								"box" : 								{
									"maxclass" : "newobj",
									"text" : "vexpr $i1 - $i2",
									"numoutlets" : 1,
									"patching_rect" : [ 224.0, 142.0, 81.0, 17.0 ],
									"id" : "obj-12",
									"outlettype" : [ "" ],
									"fontname" : "Arial",
									"fontsize" : 9.0,
									"numinlets" : 2
								}

							}
, 							{
								"box" : 								{
									"maxclass" : "message",
									"text" : "50 0",
									"numoutlets" : 1,
									"patching_rect" : [ 241.0, 120.0, 31.0, 15.0 ],
									"id" : "obj-13",
									"outlettype" : [ "" ],
									"fontname" : "Arial",
									"fontsize" : 9.0,
									"numinlets" : 2
								}

							}
, 							{
								"box" : 								{
									"maxclass" : "newobj",
									"text" : "t l b",
									"numoutlets" : 2,
									"patching_rect" : [ 224.0, 100.0, 27.0, 17.0 ],
									"id" : "obj-14",
									"outlettype" : [ "", "bang" ],
									"fontname" : "Arial",
									"fontsize" : 9.0,
									"numinlets" : 1
								}

							}
, 							{
								"box" : 								{
									"maxclass" : "newobj",
									"text" : "cartopol",
									"numoutlets" : 2,
									"patching_rect" : [ 137.0, 166.0, 47.0, 17.0 ],
									"id" : "obj-15",
									"outlettype" : [ "float", "float" ],
									"fontname" : "Arial",
									"fontsize" : 9.0,
									"numinlets" : 2
								}

							}
, 							{
								"box" : 								{
									"maxclass" : "newobj",
									"text" : "vexpr $i1 - $i2",
									"numoutlets" : 1,
									"patching_rect" : [ 137.0, 142.0, 81.0, 17.0 ],
									"id" : "obj-16",
									"outlettype" : [ "" ],
									"fontname" : "Arial",
									"fontsize" : 9.0,
									"numinlets" : 2
								}

							}
, 							{
								"box" : 								{
									"maxclass" : "message",
									"text" : "7 75",
									"numoutlets" : 1,
									"patching_rect" : [ 154.0, 120.0, 31.0, 15.0 ],
									"id" : "obj-17",
									"outlettype" : [ "" ],
									"fontname" : "Arial",
									"fontsize" : 9.0,
									"numinlets" : 2
								}

							}
, 							{
								"box" : 								{
									"maxclass" : "newobj",
									"text" : "t l b",
									"numoutlets" : 2,
									"patching_rect" : [ 137.0, 100.0, 27.0, 17.0 ],
									"id" : "obj-18",
									"outlettype" : [ "", "bang" ],
									"fontname" : "Arial",
									"fontsize" : 9.0,
									"numinlets" : 1
								}

							}
, 							{
								"box" : 								{
									"maxclass" : "newobj",
									"text" : "cartopol",
									"numoutlets" : 2,
									"patching_rect" : [ 50.0, 166.0, 47.0, 17.0 ],
									"id" : "obj-19",
									"outlettype" : [ "float", "float" ],
									"fontname" : "Arial",
									"fontsize" : 9.0,
									"numinlets" : 2
								}

							}
, 							{
								"box" : 								{
									"maxclass" : "newobj",
									"text" : "vexpr $i1 - $i2",
									"numoutlets" : 1,
									"patching_rect" : [ 50.0, 142.0, 81.0, 17.0 ],
									"id" : "obj-20",
									"outlettype" : [ "" ],
									"fontname" : "Arial",
									"fontsize" : 9.0,
									"numinlets" : 2
								}

							}
, 							{
								"box" : 								{
									"maxclass" : "message",
									"text" : "93 75",
									"numoutlets" : 1,
									"patching_rect" : [ 67.0, 120.0, 37.0, 15.0 ],
									"id" : "obj-21",
									"outlettype" : [ "" ],
									"fontname" : "Arial",
									"fontsize" : 9.0,
									"numinlets" : 2
								}

							}
, 							{
								"box" : 								{
									"maxclass" : "newobj",
									"text" : "t l b",
									"numoutlets" : 2,
									"patching_rect" : [ 50.0, 100.0, 27.0, 17.0 ],
									"id" : "obj-22",
									"outlettype" : [ "", "bang" ],
									"fontname" : "Arial",
									"fontsize" : 9.0,
									"numinlets" : 1
								}

							}
, 							{
								"box" : 								{
									"maxclass" : "newobj",
									"text" : "t l l l",
									"numoutlets" : 3,
									"patching_rect" : [ 50.0, 74.0, 184.0, 17.0 ],
									"id" : "obj-23",
									"outlettype" : [ "", "", "" ],
									"fontname" : "Arial",
									"fontsize" : 9.0,
									"numinlets" : 1
								}

							}
, 							{
								"box" : 								{
									"maxclass" : "inlet",
									"numoutlets" : 1,
									"patching_rect" : [ 140.0, 30.0, 15.0, 15.0 ],
									"id" : "obj-24",
									"outlettype" : [ "int" ],
									"numinlets" : 0,
									"comment" : ""
								}

							}
, 							{
								"box" : 								{
									"maxclass" : "inlet",
									"numoutlets" : 1,
									"patching_rect" : [ 50.0, 30.0, 15.0, 15.0 ],
									"id" : "obj-25",
									"outlettype" : [ "int" ],
									"numinlets" : 0,
									"comment" : ""
								}

							}
, 							{
								"box" : 								{
									"maxclass" : "outlet",
									"numoutlets" : 0,
									"patching_rect" : [ 224.0, 255.0, 15.0, 15.0 ],
									"id" : "obj-26",
									"numinlets" : 1,
									"comment" : ""
								}

							}
, 							{
								"box" : 								{
									"maxclass" : "outlet",
									"numoutlets" : 0,
									"patching_rect" : [ 137.0, 255.0, 15.0, 15.0 ],
									"id" : "obj-27",
									"numinlets" : 1,
									"comment" : ""
								}

							}
, 							{
								"box" : 								{
									"maxclass" : "outlet",
									"numoutlets" : 0,
									"patching_rect" : [ 50.0, 255.0, 15.0, 15.0 ],
									"id" : "obj-28",
									"numinlets" : 1,
									"comment" : ""
								}

							}
 ],
						"lines" : [ 							{
								"patchline" : 								{
									"source" : [ "obj-25", 0 ],
									"destination" : [ "obj-10", 0 ],
									"hidden" : 0,
									"midpoints" : [  ]
								}

							}
, 							{
								"patchline" : 								{
									"source" : [ "obj-10", 0 ],
									"destination" : [ "obj-23", 0 ],
									"hidden" : 0,
									"midpoints" : [  ]
								}

							}
, 							{
								"patchline" : 								{
									"source" : [ "obj-23", 0 ],
									"destination" : [ "obj-22", 0 ],
									"hidden" : 0,
									"midpoints" : [  ]
								}

							}
, 							{
								"patchline" : 								{
									"source" : [ "obj-22", 0 ],
									"destination" : [ "obj-20", 0 ],
									"hidden" : 0,
									"midpoints" : [  ]
								}

							}
, 							{
								"patchline" : 								{
									"source" : [ "obj-20", 0 ],
									"destination" : [ "obj-19", 0 ],
									"hidden" : 0,
									"midpoints" : [  ]
								}

							}
, 							{
								"patchline" : 								{
									"source" : [ "obj-19", 0 ],
									"destination" : [ "obj-9", 0 ],
									"hidden" : 0,
									"midpoints" : [  ]
								}

							}
, 							{
								"patchline" : 								{
									"source" : [ "obj-9", 0 ],
									"destination" : [ "obj-6", 0 ],
									"hidden" : 0,
									"midpoints" : [  ]
								}

							}
, 							{
								"patchline" : 								{
									"source" : [ "obj-6", 0 ],
									"destination" : [ "obj-3", 0 ],
									"hidden" : 0,
									"midpoints" : [  ]
								}

							}
, 							{
								"patchline" : 								{
									"source" : [ "obj-3", 0 ],
									"destination" : [ "obj-28", 0 ],
									"hidden" : 0,
									"midpoints" : [  ]
								}

							}
, 							{
								"patchline" : 								{
									"source" : [ "obj-22", 1 ],
									"destination" : [ "obj-21", 0 ],
									"hidden" : 0,
									"midpoints" : [  ]
								}

							}
, 							{
								"patchline" : 								{
									"source" : [ "obj-21", 0 ],
									"destination" : [ "obj-20", 1 ],
									"hidden" : 0,
									"midpoints" : [ 76.5, 138.0, 121.5, 138.0 ]
								}

							}
, 							{
								"patchline" : 								{
									"source" : [ "obj-23", 1 ],
									"destination" : [ "obj-18", 0 ],
									"hidden" : 0,
									"midpoints" : [  ]
								}

							}
, 							{
								"patchline" : 								{
									"source" : [ "obj-18", 0 ],
									"destination" : [ "obj-16", 0 ],
									"hidden" : 0,
									"midpoints" : [  ]
								}

							}
, 							{
								"patchline" : 								{
									"source" : [ "obj-16", 0 ],
									"destination" : [ "obj-15", 0 ],
									"hidden" : 0,
									"midpoints" : [  ]
								}

							}
, 							{
								"patchline" : 								{
									"source" : [ "obj-15", 0 ],
									"destination" : [ "obj-8", 0 ],
									"hidden" : 0,
									"midpoints" : [  ]
								}

							}
, 							{
								"patchline" : 								{
									"source" : [ "obj-8", 0 ],
									"destination" : [ "obj-5", 0 ],
									"hidden" : 0,
									"midpoints" : [  ]
								}

							}
, 							{
								"patchline" : 								{
									"source" : [ "obj-5", 0 ],
									"destination" : [ "obj-2", 0 ],
									"hidden" : 0,
									"midpoints" : [  ]
								}

							}
, 							{
								"patchline" : 								{
									"source" : [ "obj-2", 0 ],
									"destination" : [ "obj-27", 0 ],
									"hidden" : 0,
									"midpoints" : [  ]
								}

							}
, 							{
								"patchline" : 								{
									"source" : [ "obj-24", 0 ],
									"destination" : [ "obj-10", 1 ],
									"hidden" : 0,
									"midpoints" : [  ]
								}

							}
, 							{
								"patchline" : 								{
									"source" : [ "obj-18", 1 ],
									"destination" : [ "obj-17", 0 ],
									"hidden" : 0,
									"midpoints" : [  ]
								}

							}
, 							{
								"patchline" : 								{
									"source" : [ "obj-17", 0 ],
									"destination" : [ "obj-16", 1 ],
									"hidden" : 0,
									"midpoints" : [ 163.5, 138.0, 208.5, 138.0 ]
								}

							}
, 							{
								"patchline" : 								{
									"source" : [ "obj-23", 2 ],
									"destination" : [ "obj-14", 0 ],
									"hidden" : 0,
									"midpoints" : [  ]
								}

							}
, 							{
								"patchline" : 								{
									"source" : [ "obj-14", 0 ],
									"destination" : [ "obj-12", 0 ],
									"hidden" : 0,
									"midpoints" : [  ]
								}

							}
, 							{
								"patchline" : 								{
									"source" : [ "obj-12", 0 ],
									"destination" : [ "obj-11", 0 ],
									"hidden" : 0,
									"midpoints" : [  ]
								}

							}
, 							{
								"patchline" : 								{
									"source" : [ "obj-11", 0 ],
									"destination" : [ "obj-7", 0 ],
									"hidden" : 0,
									"midpoints" : [  ]
								}

							}
, 							{
								"patchline" : 								{
									"source" : [ "obj-7", 0 ],
									"destination" : [ "obj-4", 0 ],
									"hidden" : 0,
									"midpoints" : [  ]
								}

							}
, 							{
								"patchline" : 								{
									"source" : [ "obj-4", 0 ],
									"destination" : [ "obj-1", 0 ],
									"hidden" : 0,
									"midpoints" : [  ]
								}

							}
, 							{
								"patchline" : 								{
									"source" : [ "obj-1", 0 ],
									"destination" : [ "obj-26", 0 ],
									"hidden" : 0,
									"midpoints" : [  ]
								}

							}
, 							{
								"patchline" : 								{
									"source" : [ "obj-14", 1 ],
									"destination" : [ "obj-13", 0 ],
									"hidden" : 0,
									"midpoints" : [  ]
								}

							}
, 							{
								"patchline" : 								{
									"source" : [ "obj-13", 0 ],
									"destination" : [ "obj-12", 1 ],
									"hidden" : 0,
									"midpoints" : [ 250.5, 138.0, 295.5, 138.0 ]
								}

							}
 ]
					}
,
					"saved_object_attributes" : 					{
						"default_fontname" : "Arial",
						"fontname" : "Arial",
						"default_fontsize" : 10.0,
						"globalpatchername" : "",
						"fontface" : 0,
						"fontsize" : 10.0,
						"default_fontface" : 0
					}

				}

			}
, 			{
				"box" : 				{
					"maxclass" : "flonum",
					"triscale" : 0.9,
					"numoutlets" : 2,
					"bgcolor" : [ 0.866667, 0.866667, 0.866667, 1.0 ],
					"patching_rect" : [ 748.0, 429.0, 37.0, 18.0 ],
					"id" : "obj-73",
					"outlettype" : [ "float", "bang" ],
					"fontname" : "Arial",
					"htextcolor" : [ 0.870588, 0.870588, 0.870588, 1.0 ],
					"fontsize" : 10.0,
					"numinlets" : 1
				}

			}
, 			{
				"box" : 				{
					"maxclass" : "flonum",
					"triscale" : 0.9,
					"numoutlets" : 2,
					"bgcolor" : [ 0.866667, 0.866667, 0.866667, 1.0 ],
					"patching_rect" : [ 748.0, 410.0, 37.0, 18.0 ],
					"id" : "obj-75",
					"outlettype" : [ "float", "bang" ],
					"fontname" : "Arial",
					"htextcolor" : [ 0.870588, 0.870588, 0.870588, 1.0 ],
					"fontsize" : 10.0,
					"numinlets" : 1
				}

			}
, 			{
				"box" : 				{
					"maxclass" : "flonum",
					"triscale" : 0.9,
					"numoutlets" : 2,
					"bgcolor" : [ 0.866667, 0.866667, 0.866667, 1.0 ],
					"patching_rect" : [ 748.0, 391.0, 37.0, 18.0 ],
					"id" : "obj-76",
					"outlettype" : [ "float", "bang" ],
					"fontname" : "Arial",
					"htextcolor" : [ 0.870588, 0.870588, 0.870588, 1.0 ],
					"fontsize" : 10.0,
					"numinlets" : 1
				}

			}
, 			{
				"box" : 				{
					"maxclass" : "message",
					"text" : "clear, brgb 210 210 195, frgb 0 0 0, linesegment 50 0 50 50, linesegment 50 50 93 75, linesegment 50 50 7 75, frameoval 0 0 100 100",
					"linecount" : 5,
					"hidden" : 1,
					"numoutlets" : 1,
					"patching_rect" : [ 748.0, 292.0, 148.0, 62.0 ],
					"id" : "obj-77",
					"outlettype" : [ "" ],
					"fontname" : "Arial",
					"fontsize" : 10.0,
					"numinlets" : 2
				}

			}
, 			{
				"box" : 				{
					"maxclass" : "pictslider",
					"numoutlets" : 2,
					"rightvalue" : 100,
					"patching_rect" : [ 748.0, 264.0, 100.0, 100.0 ],
					"bkgndpict" : "SliderDefaultBkgnd.pct",
					"id" : "obj-78",
					"outlettype" : [ "int", "int" ],
					"invisiblebkgnd" : 1,
					"imagemask" : 1,
					"topvalue" : 0,
					"numinlets" : 2,
					"knobpict" : "SliderDefaultKnob.pct",
					"bottomvalue" : 100
				}

			}
, 			{
				"box" : 				{
					"maxclass" : "lcd",
					"numoutlets" : 4,
					"patching_rect" : [ 748.0, 263.0, 100.0, 100.0 ],
					"border" : 0,
					"id" : "obj-79",
					"outlettype" : [ "list", "list", "int", "" ],
					"numinlets" : 1
				}

			}
, 			{
				"box" : 				{
					"maxclass" : "comment",
					"text" : "Image weighting",
					"numoutlets" : 0,
					"patching_rect" : [ 786.0, 430.0, 90.0, 18.0 ],
					"id" : "obj-80",
					"fontname" : "Arial",
					"fontsize" : 10.0,
					"numinlets" : 1
				}

			}
, 			{
				"box" : 				{
					"maxclass" : "comment",
					"text" : "Click and drag in the pwindow to initialize a new snake.\n\nIt may be useful in certain applications to generate the starting shape automatically. Snakes are good at estimating the exact contour when the approximate shape is already known.",
					"linecount" : 7,
					"numoutlets" : 0,
					"patching_rect" : [ 665.0, 561.0, 240.0, 87.0 ],
					"id" : "obj-28",
					"fontname" : "Arial",
					"fontsize" : 10.0,
					"numinlets" : 1
				}

			}
, 			{
				"box" : 				{
					"maxclass" : "flonum",
					"triscale" : 0.9,
					"numoutlets" : 2,
					"bgcolor" : [ 0.866667, 0.866667, 0.866667, 1.0 ],
					"patching_rect" : [ 656.0, 671.0, 37.0, 18.0 ],
					"id" : "obj-29",
					"outlettype" : [ "float", "bang" ],
					"fontname" : "Arial",
					"htextcolor" : [ 0.870588, 0.870588, 0.870588, 1.0 ],
					"fontsize" : 10.0,
					"numinlets" : 1,
					"minimum" : 0.0
				}

			}
, 			{
				"box" : 				{
					"maxclass" : "newobj",
					"text" : "p snake_from_window",
					"numoutlets" : 1,
					"patching_rect" : [ 626.0, 705.0, 137.0, 18.0 ],
					"id" : "obj-30",
					"outlettype" : [ "" ],
					"fontname" : "Arial",
					"fontsize" : 10.0,
					"numinlets" : 5,
					"patcher" : 					{
						"fileversion" : 1,
						"rect" : [ 20.0, 74.0, 955.0, 774.0 ],
						"bglocked" : 0,
						"defrect" : [ 20.0, 74.0, 955.0, 774.0 ],
						"openrect" : [ 0.0, 0.0, 0.0, 0.0 ],
						"openinpresentation" : 0,
						"default_fontsize" : 10.0,
						"default_fontface" : 0,
						"default_fontname" : "Arial",
						"gridonopen" : 0,
						"gridsize" : [ 15.0, 15.0 ],
						"gridsnaponopen" : 0,
						"toolbarvisible" : 1,
						"boxanimatetime" : 200,
						"imprint" : 0,
						"enablehscroll" : 1,
						"enablevscroll" : 1,
						"devicewidth" : 0.0,
						"boxes" : [ 							{
								"box" : 								{
									"maxclass" : "newobj",
									"text" : "t b l",
									"numoutlets" : 2,
									"patching_rect" : [ 241.0, 570.0, 27.0, 17.0 ],
									"id" : "obj-1",
									"outlettype" : [ "bang", "" ],
									"fontname" : "Arial",
									"fontsize" : 9.0,
									"numinlets" : 1
								}

							}
, 							{
								"box" : 								{
									"maxclass" : "newobj",
									"text" : "zl join",
									"numoutlets" : 2,
									"patching_rect" : [ 230.0, 597.0, 38.0, 17.0 ],
									"id" : "obj-2",
									"outlettype" : [ "", "" ],
									"fontname" : "Arial",
									"fontsize" : 9.0,
									"numinlets" : 2
								}

							}
, 							{
								"box" : 								{
									"maxclass" : "newobj",
									"text" : "loadbang",
									"numoutlets" : 1,
									"patching_rect" : [ 366.0, 72.0, 48.0, 17.0 ],
									"id" : "obj-3",
									"outlettype" : [ "bang" ],
									"fontname" : "Arial",
									"fontsize" : 9.0,
									"numinlets" : 1
								}

							}
, 							{
								"box" : 								{
									"maxclass" : "newobj",
									"text" : "pak 1. 1. 1.",
									"numoutlets" : 1,
									"patching_rect" : [ 417.0, 108.0, 130.0, 17.0 ],
									"id" : "obj-4",
									"outlettype" : [ "" ],
									"fontname" : "Arial",
									"fontsize" : 9.0,
									"numinlets" : 3
								}

							}
, 							{
								"box" : 								{
									"maxclass" : "inlet",
									"numoutlets" : 1,
									"patching_rect" : [ 537.0, 49.0, 15.0, 15.0 ],
									"id" : "obj-5",
									"outlettype" : [ "float" ],
									"numinlets" : 0,
									"comment" : "(float) minimum distance between points"
								}

							}
, 							{
								"box" : 								{
									"maxclass" : "inlet",
									"numoutlets" : 1,
									"patching_rect" : [ 477.0, 49.0, 15.0, 15.0 ],
									"id" : "obj-6",
									"outlettype" : [ "float" ],
									"numinlets" : 0,
									"comment" : "(float) minimum distance between points"
								}

							}
, 							{
								"box" : 								{
									"maxclass" : "inlet",
									"numoutlets" : 1,
									"patching_rect" : [ 417.0, 49.0, 15.0, 15.0 ],
									"id" : "obj-7",
									"outlettype" : [ "float" ],
									"numinlets" : 0,
									"comment" : "(float) minimum distance between points"
								}

							}
, 							{
								"box" : 								{
									"maxclass" : "outlet",
									"numoutlets" : 0,
									"patching_rect" : [ 230.0, 672.0, 15.0, 15.0 ],
									"id" : "obj-8",
									"numinlets" : 1,
									"comment" : ""
								}

							}
, 							{
								"box" : 								{
									"maxclass" : "inlet",
									"numoutlets" : 1,
									"patching_rect" : [ 342.0, 49.0, 15.0, 15.0 ],
									"id" : "obj-9",
									"outlettype" : [ "float" ],
									"numinlets" : 0,
									"comment" : "(float) minimum distance between points"
								}

							}
, 							{
								"box" : 								{
									"maxclass" : "message",
									"text" : "setcell $3 val $1 $2 $4 $5 $6",
									"numoutlets" : 1,
									"patching_rect" : [ 230.0, 628.0, 147.0, 15.0 ],
									"id" : "obj-10",
									"outlettype" : [ "" ],
									"fontname" : "Arial",
									"fontsize" : 9.0,
									"numinlets" : 2
								}

							}
, 							{
								"box" : 								{
									"maxclass" : "newobj",
									"text" : "zl join",
									"numoutlets" : 2,
									"patching_rect" : [ 230.0, 544.0, 38.0, 17.0 ],
									"id" : "obj-11",
									"outlettype" : [ "", "" ],
									"fontname" : "Arial",
									"fontsize" : 9.0,
									"numinlets" : 2
								}

							}
, 							{
								"box" : 								{
									"maxclass" : "newobj",
									"text" : "counter",
									"numoutlets" : 4,
									"patching_rect" : [ 247.0, 508.0, 66.0, 17.0 ],
									"id" : "obj-12",
									"outlettype" : [ "int", "", "", "int" ],
									"fontname" : "Arial",
									"fontsize" : 9.0,
									"numinlets" : 5
								}

							}
, 							{
								"box" : 								{
									"maxclass" : "newobj",
									"text" : "prepend dim",
									"numoutlets" : 1,
									"patching_rect" : [ 299.0, 469.0, 64.0, 17.0 ],
									"id" : "obj-13",
									"outlettype" : [ "" ],
									"fontname" : "Arial",
									"fontsize" : 9.0,
									"numinlets" : 1
								}

							}
, 							{
								"box" : 								{
									"maxclass" : "newobj",
									"text" : "/ 2",
									"numoutlets" : 1,
									"patching_rect" : [ 299.0, 449.0, 27.0, 17.0 ],
									"id" : "obj-14",
									"outlettype" : [ "int" ],
									"fontname" : "Arial",
									"fontsize" : 9.0,
									"numinlets" : 2
								}

							}
, 							{
								"box" : 								{
									"maxclass" : "newobj",
									"text" : "zl len",
									"numoutlets" : 2,
									"patching_rect" : [ 299.0, 429.0, 34.0, 17.0 ],
									"id" : "obj-15",
									"outlettype" : [ "", "" ],
									"fontname" : "Arial",
									"fontsize" : 9.0,
									"numinlets" : 2
								}

							}
, 							{
								"box" : 								{
									"maxclass" : "newobj",
									"text" : "t b l l 0",
									"numoutlets" : 4,
									"patching_rect" : [ 161.0, 398.0, 217.0, 17.0 ],
									"id" : "obj-16",
									"outlettype" : [ "bang", "", "", "int" ],
									"fontname" : "Arial",
									"fontsize" : 9.0,
									"numinlets" : 1
								}

							}
, 							{
								"box" : 								{
									"maxclass" : "newobj",
									"text" : "t l b",
									"numoutlets" : 2,
									"patching_rect" : [ 230.0, 469.0, 27.0, 17.0 ],
									"id" : "obj-17",
									"outlettype" : [ "", "bang" ],
									"fontname" : "Arial",
									"fontsize" : 9.0,
									"numinlets" : 1
								}

							}
, 							{
								"box" : 								{
									"maxclass" : "newobj",
									"text" : "iter",
									"numoutlets" : 1,
									"patching_rect" : [ 230.0, 429.0, 25.0, 17.0 ],
									"id" : "obj-18",
									"outlettype" : [ "" ],
									"fontname" : "Arial",
									"fontsize" : 9.0,
									"numinlets" : 1
								}

							}
, 							{
								"box" : 								{
									"maxclass" : "newobj",
									"text" : "zl group 2",
									"numoutlets" : 2,
									"patching_rect" : [ 230.0, 449.0, 55.0, 17.0 ],
									"id" : "obj-19",
									"outlettype" : [ "", "" ],
									"fontname" : "Arial",
									"fontsize" : 9.0,
									"numinlets" : 2
								}

							}
, 							{
								"box" : 								{
									"maxclass" : "newobj",
									"text" : "zl group",
									"numoutlets" : 2,
									"patching_rect" : [ 161.0, 375.0, 46.0, 17.0 ],
									"id" : "obj-20",
									"outlettype" : [ "", "" ],
									"fontname" : "Arial",
									"fontsize" : 9.0,
									"numinlets" : 2
								}

							}
, 							{
								"box" : 								{
									"maxclass" : "newobj",
									"text" : "t l l",
									"numoutlets" : 2,
									"patching_rect" : [ 144.0, 341.0, 27.0, 17.0 ],
									"id" : "obj-21",
									"outlettype" : [ "", "" ],
									"fontname" : "Arial",
									"fontsize" : 9.0,
									"numinlets" : 1
								}

							}
, 							{
								"box" : 								{
									"maxclass" : "newobj",
									"text" : "gate",
									"numoutlets" : 1,
									"patching_rect" : [ 144.0, 319.0, 29.0, 17.0 ],
									"id" : "obj-22",
									"outlettype" : [ "" ],
									"fontname" : "Arial",
									"fontsize" : 9.0,
									"numinlets" : 2
								}

							}
, 							{
								"box" : 								{
									"maxclass" : "newobj",
									"text" : "> 5.",
									"numoutlets" : 1,
									"patching_rect" : [ 144.0, 295.0, 57.0, 17.0 ],
									"id" : "obj-23",
									"outlettype" : [ "int" ],
									"fontname" : "Arial",
									"fontsize" : 9.0,
									"numinlets" : 2
								}

							}
, 							{
								"box" : 								{
									"maxclass" : "newobj",
									"text" : "cartopol",
									"numoutlets" : 2,
									"patching_rect" : [ 144.0, 270.0, 47.0, 17.0 ],
									"id" : "obj-24",
									"outlettype" : [ "float", "float" ],
									"fontname" : "Arial",
									"fontsize" : 9.0,
									"numinlets" : 2
								}

							}
, 							{
								"box" : 								{
									"maxclass" : "message",
									"text" : "-100 -100",
									"numoutlets" : 1,
									"patching_rect" : [ 215.0, 180.0, 59.0, 15.0 ],
									"id" : "obj-25",
									"outlettype" : [ "" ],
									"fontname" : "Arial",
									"fontsize" : 9.0,
									"numinlets" : 2
								}

							}
, 							{
								"box" : 								{
									"maxclass" : "newobj",
									"text" : "sel 1 0",
									"numoutlets" : 3,
									"patching_rect" : [ 215.0, 154.0, 41.0, 17.0 ],
									"id" : "obj-26",
									"outlettype" : [ "bang", "bang", "" ],
									"fontname" : "Arial",
									"fontsize" : 9.0,
									"numinlets" : 1
								}

							}
, 							{
								"box" : 								{
									"maxclass" : "newobj",
									"text" : "change",
									"numoutlets" : 3,
									"patching_rect" : [ 215.0, 133.0, 40.0, 17.0 ],
									"id" : "obj-27",
									"outlettype" : [ "", "int", "int" ],
									"fontname" : "Arial",
									"fontsize" : 9.0,
									"numinlets" : 1
								}

							}
, 							{
								"box" : 								{
									"maxclass" : "newobj",
									"text" : "t l l",
									"numoutlets" : 2,
									"patching_rect" : [ 127.0, 194.0, 27.0, 17.0 ],
									"id" : "obj-28",
									"outlettype" : [ "", "" ],
									"fontname" : "Arial",
									"fontsize" : 9.0,
									"numinlets" : 1
								}

							}
, 							{
								"box" : 								{
									"maxclass" : "newobj",
									"text" : "vexpr $i1 - $i2",
									"numoutlets" : 1,
									"patching_rect" : [ 144.0, 221.0, 81.0, 17.0 ],
									"id" : "obj-29",
									"outlettype" : [ "" ],
									"fontname" : "Arial",
									"fontsize" : 9.0,
									"numinlets" : 2
								}

							}
, 							{
								"box" : 								{
									"maxclass" : "message",
									"text" : "$1 $2",
									"numoutlets" : 1,
									"patching_rect" : [ 127.0, 154.0, 37.0, 15.0 ],
									"id" : "obj-30",
									"outlettype" : [ "" ],
									"fontname" : "Arial",
									"fontsize" : 9.0,
									"numinlets" : 2
								}

							}
, 							{
								"box" : 								{
									"maxclass" : "message",
									"text" : "$3",
									"numoutlets" : 1,
									"patching_rect" : [ 215.0, 109.0, 20.0, 15.0 ],
									"id" : "obj-31",
									"outlettype" : [ "" ],
									"fontname" : "Arial",
									"fontsize" : 9.0,
									"numinlets" : 2
								}

							}
, 							{
								"box" : 								{
									"maxclass" : "newobj",
									"text" : "gate",
									"numoutlets" : 1,
									"patching_rect" : [ 127.0, 131.0, 46.0, 17.0 ],
									"id" : "obj-32",
									"outlettype" : [ "" ],
									"fontname" : "Arial",
									"fontsize" : 9.0,
									"numinlets" : 2
								}

							}
, 							{
								"box" : 								{
									"maxclass" : "newobj",
									"text" : "t l l",
									"numoutlets" : 2,
									"patching_rect" : [ 163.0, 89.0, 62.0, 17.0 ],
									"id" : "obj-33",
									"outlettype" : [ "", "" ],
									"fontname" : "Arial",
									"fontsize" : 9.0,
									"numinlets" : 1
								}

							}
, 							{
								"box" : 								{
									"maxclass" : "newobj",
									"text" : "route mouse",
									"numoutlets" : 2,
									"patching_rect" : [ 163.0, 69.0, 65.0, 17.0 ],
									"id" : "obj-34",
									"outlettype" : [ "", "" ],
									"fontname" : "Arial",
									"fontsize" : 9.0,
									"numinlets" : 1
								}

							}
, 							{
								"box" : 								{
									"maxclass" : "inlet",
									"numoutlets" : 1,
									"patching_rect" : [ 163.0, 49.0, 15.0, 15.0 ],
									"id" : "obj-35",
									"outlettype" : [ "" ],
									"numinlets" : 0,
									"comment" : "dumpout of window"
								}

							}
 ],
						"lines" : [ 							{
								"patchline" : 								{
									"source" : [ "obj-31", 0 ],
									"destination" : [ "obj-32", 0 ],
									"hidden" : 0,
									"midpoints" : [ 224.5, 127.0, 136.5, 127.0 ]
								}

							}
, 							{
								"patchline" : 								{
									"source" : [ "obj-32", 0 ],
									"destination" : [ "obj-30", 0 ],
									"hidden" : 0,
									"midpoints" : [  ]
								}

							}
, 							{
								"patchline" : 								{
									"source" : [ "obj-30", 0 ],
									"destination" : [ "obj-28", 0 ],
									"hidden" : 0,
									"midpoints" : [  ]
								}

							}
, 							{
								"patchline" : 								{
									"source" : [ "obj-28", 1 ],
									"destination" : [ "obj-29", 0 ],
									"hidden" : 0,
									"midpoints" : [  ]
								}

							}
, 							{
								"patchline" : 								{
									"source" : [ "obj-29", 0 ],
									"destination" : [ "obj-24", 0 ],
									"hidden" : 0,
									"midpoints" : [  ]
								}

							}
, 							{
								"patchline" : 								{
									"source" : [ "obj-24", 0 ],
									"destination" : [ "obj-23", 0 ],
									"hidden" : 0,
									"midpoints" : [  ]
								}

							}
, 							{
								"patchline" : 								{
									"source" : [ "obj-23", 0 ],
									"destination" : [ "obj-22", 0 ],
									"hidden" : 0,
									"midpoints" : [  ]
								}

							}
, 							{
								"patchline" : 								{
									"source" : [ "obj-22", 0 ],
									"destination" : [ "obj-21", 0 ],
									"hidden" : 0,
									"midpoints" : [  ]
								}

							}
, 							{
								"patchline" : 								{
									"source" : [ "obj-26", 1 ],
									"destination" : [ "obj-20", 0 ],
									"hidden" : 0,
									"midpoints" : [ 235.5, 175.0, 285.0, 175.0, 285.0, 370.0, 170.5, 370.0 ]
								}

							}
, 							{
								"patchline" : 								{
									"source" : [ "obj-21", 1 ],
									"destination" : [ "obj-20", 0 ],
									"hidden" : 0,
									"midpoints" : [  ]
								}

							}
, 							{
								"patchline" : 								{
									"source" : [ "obj-20", 0 ],
									"destination" : [ "obj-16", 0 ],
									"hidden" : 0,
									"midpoints" : [  ]
								}

							}
, 							{
								"patchline" : 								{
									"source" : [ "obj-35", 0 ],
									"destination" : [ "obj-34", 0 ],
									"hidden" : 0,
									"midpoints" : [  ]
								}

							}
, 							{
								"patchline" : 								{
									"source" : [ "obj-34", 0 ],
									"destination" : [ "obj-33", 0 ],
									"hidden" : 0,
									"midpoints" : [  ]
								}

							}
, 							{
								"patchline" : 								{
									"source" : [ "obj-33", 0 ],
									"destination" : [ "obj-32", 1 ],
									"hidden" : 0,
									"midpoints" : [  ]
								}

							}
, 							{
								"patchline" : 								{
									"source" : [ "obj-28", 0 ],
									"destination" : [ "obj-22", 1 ],
									"hidden" : 0,
									"midpoints" : [ 136.5, 315.0, 163.5, 315.0 ]
								}

							}
, 							{
								"patchline" : 								{
									"source" : [ "obj-9", 0 ],
									"destination" : [ "obj-23", 1 ],
									"hidden" : 0,
									"midpoints" : [ 351.0, 276.0, 191.5, 276.0 ]
								}

							}
, 							{
								"patchline" : 								{
									"source" : [ "obj-33", 1 ],
									"destination" : [ "obj-31", 0 ],
									"hidden" : 0,
									"midpoints" : [  ]
								}

							}
, 							{
								"patchline" : 								{
									"source" : [ "obj-31", 0 ],
									"destination" : [ "obj-27", 0 ],
									"hidden" : 0,
									"midpoints" : [  ]
								}

							}
, 							{
								"patchline" : 								{
									"source" : [ "obj-27", 0 ],
									"destination" : [ "obj-26", 0 ],
									"hidden" : 0,
									"midpoints" : [  ]
								}

							}
, 							{
								"patchline" : 								{
									"source" : [ "obj-26", 0 ],
									"destination" : [ "obj-25", 0 ],
									"hidden" : 0,
									"midpoints" : [  ]
								}

							}
, 							{
								"patchline" : 								{
									"source" : [ "obj-21", 0 ],
									"destination" : [ "obj-29", 1 ],
									"hidden" : 0,
									"midpoints" : [ 153.5, 366.0, 249.0, 366.0, 249.0, 207.0, 215.5, 207.0 ]
								}

							}
, 							{
								"patchline" : 								{
									"source" : [ "obj-25", 0 ],
									"destination" : [ "obj-29", 1 ],
									"hidden" : 0,
									"midpoints" : [  ]
								}

							}
, 							{
								"patchline" : 								{
									"source" : [ "obj-16", 1 ],
									"destination" : [ "obj-18", 0 ],
									"hidden" : 0,
									"midpoints" : [  ]
								}

							}
, 							{
								"patchline" : 								{
									"source" : [ "obj-18", 0 ],
									"destination" : [ "obj-19", 0 ],
									"hidden" : 0,
									"midpoints" : [  ]
								}

							}
, 							{
								"patchline" : 								{
									"source" : [ "obj-19", 0 ],
									"destination" : [ "obj-17", 0 ],
									"hidden" : 0,
									"midpoints" : [  ]
								}

							}
, 							{
								"patchline" : 								{
									"source" : [ "obj-17", 0 ],
									"destination" : [ "obj-11", 0 ],
									"hidden" : 0,
									"midpoints" : [  ]
								}

							}
, 							{
								"patchline" : 								{
									"source" : [ "obj-1", 0 ],
									"destination" : [ "obj-2", 0 ],
									"hidden" : 0,
									"midpoints" : [  ]
								}

							}
, 							{
								"patchline" : 								{
									"source" : [ "obj-11", 0 ],
									"destination" : [ "obj-2", 0 ],
									"hidden" : 0,
									"midpoints" : [  ]
								}

							}
, 							{
								"patchline" : 								{
									"source" : [ "obj-2", 0 ],
									"destination" : [ "obj-10", 0 ],
									"hidden" : 0,
									"midpoints" : [  ]
								}

							}
, 							{
								"patchline" : 								{
									"source" : [ "obj-13", 0 ],
									"destination" : [ "obj-8", 0 ],
									"hidden" : 0,
									"midpoints" : [ 308.5, 493.0, 399.0, 493.0, 399.0, 652.0, 239.0, 652.0 ]
								}

							}
, 							{
								"patchline" : 								{
									"source" : [ "obj-16", 0 ],
									"destination" : [ "obj-8", 0 ],
									"hidden" : 0,
									"midpoints" : [ 170.5, 652.0, 239.0, 652.0 ]
								}

							}
, 							{
								"patchline" : 								{
									"source" : [ "obj-10", 0 ],
									"destination" : [ "obj-8", 0 ],
									"hidden" : 0,
									"midpoints" : [  ]
								}

							}
, 							{
								"patchline" : 								{
									"source" : [ "obj-4", 0 ],
									"destination" : [ "obj-1", 0 ],
									"hidden" : 0,
									"midpoints" : [ 426.5, 566.0, 250.5, 566.0 ]
								}

							}
, 							{
								"patchline" : 								{
									"source" : [ "obj-17", 1 ],
									"destination" : [ "obj-12", 0 ],
									"hidden" : 0,
									"midpoints" : [  ]
								}

							}
, 							{
								"patchline" : 								{
									"source" : [ "obj-12", 0 ],
									"destination" : [ "obj-11", 1 ],
									"hidden" : 0,
									"midpoints" : [ 256.5, 534.0, 258.5, 534.0 ]
								}

							}
, 							{
								"patchline" : 								{
									"source" : [ "obj-1", 1 ],
									"destination" : [ "obj-2", 1 ],
									"hidden" : 0,
									"midpoints" : [  ]
								}

							}
, 							{
								"patchline" : 								{
									"source" : [ "obj-16", 3 ],
									"destination" : [ "obj-12", 2 ],
									"hidden" : 0,
									"midpoints" : [ 368.5, 503.0, 280.0, 503.0 ]
								}

							}
, 							{
								"patchline" : 								{
									"source" : [ "obj-16", 2 ],
									"destination" : [ "obj-15", 0 ],
									"hidden" : 0,
									"midpoints" : [  ]
								}

							}
, 							{
								"patchline" : 								{
									"source" : [ "obj-15", 0 ],
									"destination" : [ "obj-14", 0 ],
									"hidden" : 0,
									"midpoints" : [  ]
								}

							}
, 							{
								"patchline" : 								{
									"source" : [ "obj-14", 0 ],
									"destination" : [ "obj-13", 0 ],
									"hidden" : 0,
									"midpoints" : [  ]
								}

							}
, 							{
								"patchline" : 								{
									"source" : [ "obj-3", 0 ],
									"destination" : [ "obj-4", 0 ],
									"hidden" : 0,
									"midpoints" : [ 375.5, 97.0, 426.5, 97.0 ]
								}

							}
, 							{
								"patchline" : 								{
									"source" : [ "obj-7", 0 ],
									"destination" : [ "obj-4", 0 ],
									"hidden" : 0,
									"midpoints" : [  ]
								}

							}
, 							{
								"patchline" : 								{
									"source" : [ "obj-6", 0 ],
									"destination" : [ "obj-4", 1 ],
									"hidden" : 0,
									"midpoints" : [  ]
								}

							}
, 							{
								"patchline" : 								{
									"source" : [ "obj-5", 0 ],
									"destination" : [ "obj-4", 2 ],
									"hidden" : 0,
									"midpoints" : [  ]
								}

							}
 ]
					}
,
					"saved_object_attributes" : 					{
						"default_fontname" : "Arial",
						"fontname" : "Arial",
						"default_fontsize" : 10.0,
						"globalpatchername" : "",
						"fontface" : 0,
						"fontsize" : 10.0,
						"default_fontface" : 0
					}

				}

			}
, 			{
				"box" : 				{
					"maxclass" : "comment",
					"text" : "Minimum distance between snake points, in pixels.",
					"linecount" : 3,
					"numoutlets" : 0,
					"patching_rect" : [ 697.0, 659.0, 92.0, 41.0 ],
					"id" : "obj-32",
					"fontname" : "Arial",
					"fontsize" : 10.0,
					"numinlets" : 1
				}

			}
, 			{
				"box" : 				{
					"maxclass" : "newobj",
					"text" : "prepend frgb",
					"numoutlets" : 1,
					"patching_rect" : [ 530.0, 405.0, 73.0, 18.0 ],
					"id" : "obj-25",
					"outlettype" : [ "" ],
					"fontname" : "Arial",
					"fontsize" : 10.0,
					"numinlets" : 1
				}

			}
, 			{
				"box" : 				{
					"maxclass" : "swatch",
					"numoutlets" : 2,
					"patching_rect" : [ 530.0, 368.0, 93.0, 35.0 ],
					"id" : "obj-26",
					"outlettype" : [ "", "float" ],
					"compatibility" : 1,
					"numinlets" : 3
				}

			}
, 			{
				"box" : 				{
					"maxclass" : "toggle",
					"numoutlets" : 1,
					"patching_rect" : [ 366.0, 288.0, 20.0, 20.0 ],
					"id" : "obj-24",
					"outlettype" : [ "int" ],
					"numinlets" : 1
				}

			}
, 			{
				"box" : 				{
					"maxclass" : "newobj",
					"text" : "gate",
					"numoutlets" : 1,
					"patching_rect" : [ 366.0, 318.0, 32.0, 18.0 ],
					"id" : "obj-13",
					"outlettype" : [ "" ],
					"fontname" : "Arial",
					"fontsize" : 10.0,
					"numinlets" : 2
				}

			}
, 			{
				"box" : 				{
					"maxclass" : "newobj",
					"text" : "jit.matrix snake 5 float32 32",
					"numoutlets" : 2,
					"patching_rect" : [ 366.0, 343.0, 132.0, 18.0 ],
					"id" : "obj-14",
					"outlettype" : [ "jit_matrix", "" ],
					"fontname" : "Arial",
					"fontsize" : 10.0,
					"numinlets" : 1
				}

			}
, 			{
				"box" : 				{
					"maxclass" : "comment",
					"text" : "Feedback snake?",
					"numoutlets" : 0,
					"patching_rect" : [ 388.0, 290.0, 102.0, 18.0 ],
					"id" : "obj-21",
					"fontname" : "Arial",
					"fontsize" : 10.0,
					"numinlets" : 1
				}

			}
, 			{
				"box" : 				{
					"maxclass" : "newobj",
					"text" : "cv.jit.snake.draw",
					"numoutlets" : 1,
					"patching_rect" : [ 325.0, 409.0, 84.0, 18.0 ],
					"id" : "obj-11",
					"outlettype" : [ "jit_matrix" ],
					"fontname" : "Arial",
					"fontsize" : 10.0,
					"numinlets" : 2
				}

			}
, 			{
				"box" : 				{
					"maxclass" : "newobj",
					"text" : "cv.jit.snake",
					"numoutlets" : 2,
					"patching_rect" : [ 325.0, 366.0, 60.0, 18.0 ],
					"id" : "obj-8",
					"outlettype" : [ "jit_matrix", "" ],
					"fontname" : "Arial",
					"fontsize" : 10.0,
					"numinlets" : 2
				}

			}
, 			{
				"box" : 				{
					"maxclass" : "comment",
					"varname" : "output-description[1]",
					"text" : "Convert to greyscale and extract edges.",
					"linecount" : 2,
					"numoutlets" : 0,
					"patching_rect" : [ 491.0, 233.0, 134.0, 32.0 ],
					"id" : "obj-7",
					"fontname" : "Arial",
					"fontsize" : 11.0,
					"numinlets" : 1
				}

			}
, 			{
				"box" : 				{
					"maxclass" : "newobj",
					"text" : "cvjit_random_bg_colour",
					"hidden" : 1,
					"numoutlets" : 3,
					"patching_rect" : [ 59.0, 508.0, 117.0, 18.0 ],
					"id" : "obj-6",
					"outlettype" : [ "int", "int", "int" ],
					"fontname" : "Arial",
					"fontsize" : 10.0,
					"numinlets" : 0
				}

			}
, 			{
				"box" : 				{
					"maxclass" : "newobj",
					"text" : "bgcolor",
					"hidden" : 1,
					"numoutlets" : 0,
					"patching_rect" : [ 59.0, 532.546204, 165.5, 18.0 ],
					"id" : "obj-10",
					"fontname" : "Arial",
					"fontsize" : 10.0,
					"numinlets" : 4
				}

			}
, 			{
				"box" : 				{
					"maxclass" : "comment",
					"varname" : "copyright-comment",
					"text" : "Copyright ©2003-2010",
					"numoutlets" : 0,
					"frgb" : [ 0.0, 0.0, 0.0, 0.901961 ],
					"patching_rect" : [ 50.0, 671.0, 111.0, 18.0 ],
					"id" : "obj-17",
					"fontname" : "Arial",
					"fontsize" : 10.0,
					"textcolor" : [ 0.0, 0.0, 0.0, 0.901961 ],
					"numinlets" : 1
				}

			}
, 			{
				"box" : 				{
					"maxclass" : "comment",
					"varname" : "support-comment",
					"text" : "Support:\nInternational Academy of Media Arts & Sciences (IAMAS) \n– Gifu, Japan",
					"linecount" : 3,
					"numoutlets" : 0,
					"patching_rect" : [ 50.0, 628.5, 243.0, 38.0 ],
					"id" : "obj-18",
					"fontname" : "Arial",
					"fontsize" : 9.0,
					"numinlets" : 1
				}

			}
, 			{
				"box" : 				{
					"maxclass" : "comment",
					"varname" : "email-comment",
					"text" : "jmp@jmpelletier.com\n",
					"numoutlets" : 0,
					"frgb" : [ 0.0, 0.0, 0.0, 0.901961 ],
					"patching_rect" : [ 185.0, 606.0, 105.0, 18.0 ],
					"id" : "obj-19",
					"fontname" : "Arial",
					"fontsize" : 10.0,
					"textcolor" : [ 0.0, 0.0, 0.0, 0.901961 ],
					"numinlets" : 1
				}

			}
, 			{
				"box" : 				{
					"maxclass" : "comment",
					"varname" : "me-comment",
					"text" : "By Jean-Marc Pelletier\n",
					"numoutlets" : 0,
					"patching_rect" : [ 50.0, 604.0, 135.0, 20.0 ],
					"id" : "obj-22",
					"fontname" : "Arial",
					"fontsize" : 12.0,
					"numinlets" : 1
				}

			}
, 			{
				"box" : 				{
					"maxclass" : "comment",
					"varname" : "output-comment",
					"text" : "Output",
					"numoutlets" : 0,
					"patching_rect" : [ 55.5, 478.0, 44.0, 19.0 ],
					"id" : "obj-31",
					"fontname" : "Arial",
					"fontsize" : 11.0,
					"numinlets" : 1
				}

			}
, 			{
				"box" : 				{
					"maxclass" : "comment",
					"varname" : "input-comment",
					"text" : "Input",
					"numoutlets" : 0,
					"patching_rect" : [ 60.0, 437.5, 35.0, 19.0 ],
					"id" : "obj-34",
					"fontname" : "Arial",
					"fontsize" : 11.0,
					"numinlets" : 1
				}

			}
, 			{
				"box" : 				{
					"maxclass" : "comment",
					"varname" : "input-description",
					"text" : "Single-plane char matrix\n\n5-plane single-dim float32 matrix",
					"linecount" : 3,
					"numoutlets" : 0,
					"patching_rect" : [ 110.0, 425.0, 175.0, 44.0 ],
					"id" : "obj-37",
					"fontname" : "Arial",
					"fontsize" : 11.0,
					"numinlets" : 1
				}

			}
, 			{
				"box" : 				{
					"maxclass" : "comment",
					"varname" : "output-description",
					"text" : "5-plane single-dim float32 matrix",
					"numoutlets" : 0,
					"patching_rect" : [ 110.0, 478.0, 175.0, 19.0 ],
					"id" : "obj-38",
					"fontname" : "Arial",
					"fontsize" : 11.0,
					"numinlets" : 1
				}

			}
, 			{
				"box" : 				{
					"maxclass" : "panel",
					"varname" : "io-cat-panel",
					"numoutlets" : 0,
					"bgcolor" : [ 0.556863, 0.556863, 0.556863, 0.2 ],
					"patching_rect" : [ 50.0, 420.0, 55.0, 82.0 ],
					"border" : 1,
					"id" : "obj-39",
					"bordercolor" : [ 1.0, 1.0, 1.0, 0.647059 ],
					"rounded" : 0,
					"numinlets" : 1
				}

			}
, 			{
				"box" : 				{
					"maxclass" : "panel",
					"varname" : "output-panel",
					"numoutlets" : 0,
					"bgcolor" : [ 0.615686, 0.607843, 0.607843, 0.2 ],
					"patching_rect" : [ 50.0, 473.0, 240.0, 29.0 ],
					"border" : 1,
					"id" : "obj-42",
					"bordercolor" : [ 1.0, 1.0, 1.0, 0.647059 ],
					"rounded" : 0,
					"numinlets" : 1
				}

			}
, 			{
				"box" : 				{
					"maxclass" : "panel",
					"varname" : "input-panel",
					"numoutlets" : 0,
					"bgcolor" : [ 0.615686, 0.607843, 0.607843, 0.2 ],
					"patching_rect" : [ 50.0, 420.0, 240.0, 54.0 ],
					"border" : 1,
					"id" : "obj-44",
					"bordercolor" : [ 1.0, 1.0, 1.0, 0.647059 ],
					"rounded" : 0,
					"numinlets" : 1
				}

			}
, 			{
				"box" : 				{
					"maxclass" : "panel",
					"varname" : "copyright-panel",
					"numoutlets" : 0,
					"bgcolor" : [ 1.0, 1.0, 1.0, 0.403922 ],
					"patching_rect" : [ 45.0, 599.0, 250.0, 95.0 ],
					"border" : 1,
					"id" : "obj-49",
					"bordercolor" : [ 0.0, 0.0, 0.0, 0.647059 ],
					"numinlets" : 1
				}

			}
, 			{
				"box" : 				{
					"maxclass" : "comment",
					"varname" : "comments",
					"text" : "A snake is a sequence of points, or anchors, that seeks to fit itself to edges in an image while trying to maintain its original shape. This achieves something similar to \"magnetic lasso\" or \"intelligent scissors\" of some image-editing software.\n\nA snake is defined by a one-dimension, five-plane matrix that is fed into the external's right inlet. Since cv.jit.snake outputs an updated snake, it is possible to perform continuous tracking by feeding back its output to the right inlet.\n\nThe planes of a snake matrix contain the following information (each cell is an anchor):\n0: anchor position x\n1: anchor position y\n2: continuity weight - how much the snake will try to maintain it's continuity\n3: curvature weight - how much the snake will try to keep its curvatures\n4: image weight - how much are the anchors attracted to bright image regions.",
					"linecount" : 24,
					"numoutlets" : 0,
					"patching_rect" : [ 50.0, 95.0, 240.0, 310.0 ],
					"id" : "obj-62",
					"fontname" : "Arial",
					"fontsize" : 11.0,
					"numinlets" : 1
				}

			}
, 			{
				"box" : 				{
					"maxclass" : "panel",
					"varname" : "comments-panel",
					"numoutlets" : 0,
					"bgcolor" : [ 1.0, 1.0, 1.0, 0.647059 ],
					"patching_rect" : [ 45.0, 90.0, 250.0, 320.0 ],
					"border" : 1,
					"id" : "obj-65",
					"bordercolor" : [ 0.0, 0.0, 0.0, 0.517647 ],
					"rounded" : 0,
					"numinlets" : 1
				}

			}
, 			{
				"box" : 				{
					"maxclass" : "panel",
					"varname" : "io-panel",
					"numoutlets" : 0,
					"bgcolor" : [ 1.0, 1.0, 1.0, 0.403922 ],
					"patching_rect" : [ 45.0, 415.0, 250.0, 92.0 ],
					"border" : 1,
					"id" : "obj-5",
					"bordercolor" : [ 0.0, 0.0, 0.0, 0.517647 ],
					"rounded" : 0,
					"numinlets" : 1
				}

			}
, 			{
				"box" : 				{
					"maxclass" : "panel",
					"numoutlets" : 0,
					"bgcolor" : [ 0.0, 0.0, 1.0, 0.05098 ],
					"patching_rect" : [ 317.0, 362.0, 80.0, 25.0 ],
					"border" : 1,
					"id" : "obj-9",
					"bordercolor" : [ 0.0, 0.0, 1.0, 0.733333 ],
					"rounded" : 30,
					"numinlets" : 1
				}

			}
, 			{
				"box" : 				{
					"maxclass" : "flonum",
					"numoutlets" : 2,
					"patching_rect" : [ 411.0, 233.0, 48.0, 18.0 ],
					"id" : "obj-74",
					"outlettype" : [ "float", "bang" ],
					"fontname" : "Arial",
					"fontsize" : 10.0,
					"numinlets" : 1
				}

			}
, 			{
				"box" : 				{
					"maxclass" : "newobj",
					"text" : "cv.jit.canny",
					"numoutlets" : 2,
					"patching_rect" : [ 325.0, 258.0, 60.0, 18.0 ],
					"id" : "obj-71",
					"outlettype" : [ "jit_matrix", "" ],
					"fontname" : "Arial",
					"fontsize" : 10.0,
					"numinlets" : 1
				}

			}
, 			{
				"box" : 				{
					"maxclass" : "jit.fpsgui",
					"numoutlets" : 2,
					"patching_rect" : [ 325.0, 696.0, 80.0, 36.0 ],
					"id" : "obj-70",
					"outlettype" : [ "", "" ],
					"fontname" : "Arial",
					"fontsize" : 12.0,
					"numinlets" : 1
				}

			}
, 			{
				"box" : 				{
					"maxclass" : "newobj",
					"text" : "jit.rgb2luma",
					"numoutlets" : 2,
					"patching_rect" : [ 325.0, 233.0, 62.0, 18.0 ],
					"id" : "obj-69",
					"outlettype" : [ "jit_matrix", "" ],
					"fontname" : "Arial",
					"fontsize" : 10.0,
					"numinlets" : 1
				}

			}
, 			{
				"box" : 				{
					"maxclass" : "jit.pwindow",
					"numoutlets" : 2,
					"patching_rect" : [ 325.0, 445.0, 320.0, 240.0 ],
					"id" : "obj-67",
					"outlettype" : [ "", "" ],
					"numinlets" : 1
				}

			}
, 			{
				"box" : 				{
					"maxclass" : "panel",
					"numoutlets" : 0,
					"bgcolor" : [ 1.0, 1.0, 1.0, 0.396078 ],
					"patching_rect" : [ 608.0, 547.0, 303.0, 181.0 ],
					"border" : 1,
					"id" : "obj-66",
					"bordercolor" : [ 1.0, 0.0, 0.0, 0.647059 ],
					"rounded" : 0,
					"numinlets" : 1
				}

			}
, 			{
				"box" : 				{
					"maxclass" : "message",
					"text" : "0",
					"hidden" : 1,
					"numoutlets" : 1,
					"patching_rect" : [ 427.0, 130.0, 31.0, 16.0 ],
					"id" : "obj-64",
					"outlettype" : [ "" ],
					"fontname" : "Arial",
					"fontsize" : 10.0,
					"numinlets" : 2
				}

			}
, 			{
				"box" : 				{
					"maxclass" : "message",
					"text" : "0",
					"hidden" : 1,
					"numoutlets" : 1,
					"patching_rect" : [ 633.0, 149.0, 31.0, 16.0 ],
					"id" : "obj-63",
					"outlettype" : [ "" ],
					"fontname" : "Arial",
					"fontsize" : 10.0,
					"numinlets" : 2
				}

			}
, 			{
				"box" : 				{
					"maxclass" : "newobj",
					"text" : "sel 1",
					"hidden" : 1,
					"numoutlets" : 2,
					"patching_rect" : [ 388.0, 128.0, 32.0, 18.0 ],
					"id" : "obj-61",
					"outlettype" : [ "bang", "" ],
					"fontname" : "Arial",
					"fontsize" : 10.0,
					"numinlets" : 2
				}

			}
, 			{
				"box" : 				{
					"maxclass" : "comment",
					"text" : "Use pre-recorded movie",
					"numoutlets" : 0,
					"frgb" : [ 1.0, 1.0, 1.0, 1.0 ],
					"patching_rect" : [ 512.0, 102.0, 163.0, 19.0 ],
					"id" : "obj-60",
					"fontname" : "Arial",
					"fontsize" : 11.0,
					"textcolor" : [ 1.0, 1.0, 1.0, 1.0 ],
					"numinlets" : 1
				}

			}
, 			{
				"box" : 				{
					"maxclass" : "comment",
					"text" : "Use live camera input",
					"numoutlets" : 0,
					"frgb" : [ 1.0, 1.0, 1.0, 1.0 ],
					"patching_rect" : [ 350.0, 102.0, 116.0, 19.0 ],
					"id" : "obj-59",
					"fontname" : "Arial",
					"fontsize" : 11.0,
					"textcolor" : [ 1.0, 1.0, 1.0, 1.0 ],
					"numinlets" : 1
				}

			}
, 			{
				"box" : 				{
					"maxclass" : "newobj",
					"text" : "sel 1 0",
					"hidden" : 1,
					"numoutlets" : 3,
					"patching_rect" : [ 553.0, 128.0, 40.0, 18.0 ],
					"id" : "obj-57",
					"outlettype" : [ "bang", "bang", "" ],
					"fontname" : "Arial",
					"fontsize" : 10.0,
					"numinlets" : 1
				}

			}
, 			{
				"box" : 				{
					"maxclass" : "toggle",
					"numoutlets" : 1,
					"patching_rect" : [ 487.0, 101.0, 20.0, 20.0 ],
					"id" : "obj-51",
					"outlettype" : [ "int" ],
					"numinlets" : 1
				}

			}
, 			{
				"box" : 				{
					"maxclass" : "newobj",
					"text" : "qmetro 2",
					"numoutlets" : 1,
					"patching_rect" : [ 487.0, 128.0, 50.0, 18.0 ],
					"id" : "obj-52",
					"outlettype" : [ "bang" ],
					"fontname" : "Arial",
					"fontsize" : 10.0,
					"numinlets" : 2
				}

			}
, 			{
				"box" : 				{
					"maxclass" : "message",
					"text" : "stop",
					"numoutlets" : 1,
					"patching_rect" : [ 593.0, 151.0, 29.0, 16.0 ],
					"id" : "obj-53",
					"outlettype" : [ "" ],
					"fontname" : "Arial",
					"fontsize" : 10.0,
					"numinlets" : 2
				}

			}
, 			{
				"box" : 				{
					"maxclass" : "message",
					"text" : "start",
					"numoutlets" : 1,
					"patching_rect" : [ 553.0, 151.0, 30.0, 16.0 ],
					"id" : "obj-54",
					"outlettype" : [ "" ],
					"fontname" : "Arial",
					"fontsize" : 10.0,
					"numinlets" : 2
				}

			}
, 			{
				"box" : 				{
					"maxclass" : "message",
					"text" : "read",
					"numoutlets" : 1,
					"patching_rect" : [ 514.0, 151.0, 31.0, 16.0 ],
					"id" : "obj-55",
					"outlettype" : [ "" ],
					"fontname" : "Arial",
					"fontsize" : 10.0,
					"numinlets" : 2
				}

			}
, 			{
				"box" : 				{
					"maxclass" : "newobj",
					"text" : "jit.qt.movie 320 240 @unique 1",
					"numoutlets" : 2,
					"patching_rect" : [ 487.0, 178.0, 149.0, 18.0 ],
					"id" : "obj-56",
					"outlettype" : [ "jit_matrix", "" ],
					"fontname" : "Arial",
					"fontsize" : 10.0,
					"numinlets" : 1
				}

			}
, 			{
				"box" : 				{
					"maxclass" : "toggle",
					"numoutlets" : 1,
					"patching_rect" : [ 325.0, 101.0, 20.0, 20.0 ],
					"id" : "obj-50",
					"outlettype" : [ "int" ],
					"numinlets" : 1
				}

			}
, 			{
				"box" : 				{
					"maxclass" : "newobj",
					"text" : "qmetro 2",
					"numoutlets" : 1,
					"patching_rect" : [ 325.0, 128.0, 50.0, 18.0 ],
					"id" : "obj-48",
					"outlettype" : [ "bang" ],
					"fontname" : "Arial",
					"fontsize" : 10.0,
					"numinlets" : 2
				}

			}
, 			{
				"box" : 				{
					"maxclass" : "message",
					"text" : "settings",
					"numoutlets" : 1,
					"patching_rect" : [ 431.0, 151.0, 45.0, 16.0 ],
					"id" : "obj-47",
					"outlettype" : [ "" ],
					"fontname" : "Arial",
					"fontsize" : 10.0,
					"numinlets" : 2
				}

			}
, 			{
				"box" : 				{
					"maxclass" : "message",
					"text" : "close",
					"numoutlets" : 1,
					"patching_rect" : [ 391.0, 151.0, 34.0, 16.0 ],
					"id" : "obj-46",
					"outlettype" : [ "" ],
					"fontname" : "Arial",
					"fontsize" : 10.0,
					"numinlets" : 2
				}

			}
, 			{
				"box" : 				{
					"maxclass" : "message",
					"text" : "open",
					"numoutlets" : 1,
					"patching_rect" : [ 352.0, 151.0, 33.0, 16.0 ],
					"id" : "obj-45",
					"outlettype" : [ "" ],
					"fontname" : "Arial",
					"fontsize" : 10.0,
					"numinlets" : 2
				}

			}
, 			{
				"box" : 				{
					"maxclass" : "newobj",
					"text" : "cv.jit.grab 320 240",
					"numoutlets" : 2,
					"patching_rect" : [ 325.0, 178.0, 92.0, 18.0 ],
					"id" : "obj-43",
					"outlettype" : [ "jit_matrix", "" ],
					"fontname" : "Arial",
					"fontsize" : 10.0,
					"numinlets" : 1
				}

			}
, 			{
				"box" : 				{
					"maxclass" : "panel",
					"numoutlets" : 0,
					"bgcolor" : [ 0.0, 0.0, 0.0, 0.2 ],
					"patching_rect" : [ 315.0, 90.0, 366.0, 130.0 ],
					"border" : 1,
					"id" : "obj-58",
					"bordercolor" : [ 0.501961, 0.501961, 0.501961, 1.0 ],
					"rounded" : 0,
					"numinlets" : 1
				}

			}
, 			{
				"box" : 				{
					"maxclass" : "message",
					"text" : "threshold $1",
					"numoutlets" : 1,
					"patching_rect" : [ 411.0, 255.0, 64.0, 16.0 ],
					"id" : "obj-72",
					"outlettype" : [ "" ],
					"fontname" : "Arial",
					"fontsize" : 10.0,
					"numinlets" : 2
				}

			}
, 			{
				"box" : 				{
					"maxclass" : "fpic",
					"numoutlets" : 0,
					"patching_rect" : [ 769.0, 7.0, 255.0, 72.0 ],
					"pic" : "cvtitle.png",
					"id" : "obj-2",
					"numinlets" : 1
				}

			}
, 			{
				"box" : 				{
					"maxclass" : "panel",
					"numoutlets" : 0,
					"bgcolor" : [ 0.0, 0.0, 0.0, 0.0 ],
					"patching_rect" : [ 15.0, 45.0, 778.0, 4.0 ],
					"border" : 1,
					"id" : "obj-20",
					"bordercolor" : [ 0.0, 0.0, 0.0, 0.207843 ],
					"rounded" : 0,
					"numinlets" : 1
				}

			}
, 			{
				"box" : 				{
					"maxclass" : "comment",
					"text" : "Compute active contours",
					"numoutlets" : 0,
					"frgb" : [ 0.258824, 0.258824, 0.258824, 1.0 ],
					"patching_rect" : [ 45.0, 45.0, 441.0, 29.0 ],
					"id" : "obj-16",
					"fontname" : "Arial",
					"fontsize" : 20.0,
					"textcolor" : [ 0.258824, 0.258824, 0.258824, 1.0 ],
					"numinlets" : 1
				}

			}
, 			{
				"box" : 				{
					"maxclass" : "comment",
					"text" : "cv.jit.snake",
					"numoutlets" : 0,
					"frgb" : [ 0.258824, 0.258824, 0.258824, 1.0 ],
					"patching_rect" : [ 45.0, 15.0, 565.0, 41.0 ],
					"id" : "obj-15",
					"fontname" : "Arial",
					"fontface" : 1,
					"fontsize" : 30.028469,
					"textcolor" : [ 0.258824, 0.258824, 0.258824, 1.0 ],
					"numinlets" : 1
				}

			}
, 			{
				"box" : 				{
					"maxclass" : "panel",
					"numoutlets" : 0,
					"bgcolor" : [ 0.0, 0.0, 0.0, 0.101961 ],
					"patching_rect" : [ 317.0, 437.0, 336.0, 256.0 ],
					"border" : 1,
					"id" : "obj-147",
					"bordercolor" : [ 0.501961, 0.501961, 0.501961, 1.0 ],
					"rounded" : 15,
					"numinlets" : 1
				}

			}
, 			{
				"box" : 				{
					"maxclass" : "panel",
					"numoutlets" : 0,
					"bgcolor" : [ 0.776471, 0.776471, 0.776471, 0.0 ],
					"patching_rect" : [ 317.0, 228.0, 315.0, 54.0 ],
					"border" : 1,
					"id" : "obj-141",
					"bordercolor" : [ 0.501961, 0.501961, 0.501961, 1.0 ],
					"rounded" : 15,
					"numinlets" : 1
				}

			}
, 			{
				"box" : 				{
					"maxclass" : "panel",
					"numoutlets" : 0,
					"bgcolor" : [ 0.776471, 0.776471, 0.776471, 0.0 ],
					"patching_rect" : [ 676.0, 230.0, 261.0, 233.0 ],
					"border" : 1,
					"id" : "obj-82",
					"bordercolor" : [ 0.501961, 0.501961, 0.501961, 1.0 ],
					"rounded" : 15,
					"numinlets" : 1
				}

			}
 ],
		"lines" : [ 			{
				"patchline" : 				{
					"source" : [ "obj-74", 0 ],
					"destination" : [ "obj-72", 0 ],
					"hidden" : 0,
					"midpoints" : [  ]
				}

			}
, 			{
				"patchline" : 				{
					"source" : [ "obj-67", 0 ],
					"destination" : [ "obj-70", 0 ],
					"hidden" : 0,
					"midpoints" : [  ]
				}

			}
, 			{
				"patchline" : 				{
					"source" : [ "obj-56", 0 ],
					"destination" : [ "obj-69", 0 ],
					"hidden" : 0,
					"midpoints" : [ 496.5, 205.5, 334.5, 205.5 ]
				}

			}
, 			{
				"patchline" : 				{
					"source" : [ "obj-63", 0 ],
					"destination" : [ "obj-50", 0 ],
					"hidden" : 1,
					"midpoints" : [  ]
				}

			}
, 			{
				"patchline" : 				{
					"source" : [ "obj-64", 0 ],
					"destination" : [ "obj-51", 0 ],
					"hidden" : 1,
					"midpoints" : [  ]
				}

			}
, 			{
				"patchline" : 				{
					"source" : [ "obj-61", 0 ],
					"destination" : [ "obj-64", 0 ],
					"hidden" : 1,
					"midpoints" : [  ]
				}

			}
, 			{
				"patchline" : 				{
					"source" : [ "obj-57", 0 ],
					"destination" : [ "obj-63", 0 ],
					"hidden" : 1,
					"midpoints" : [  ]
				}

			}
, 			{
				"patchline" : 				{
					"source" : [ "obj-50", 0 ],
					"destination" : [ "obj-61", 0 ],
					"hidden" : 1,
					"midpoints" : [  ]
				}

			}
, 			{
				"patchline" : 				{
					"source" : [ "obj-57", 1 ],
					"destination" : [ "obj-53", 0 ],
					"hidden" : 1,
					"midpoints" : [ 573.0, 149.0, 602.5, 149.0 ]
				}

			}
, 			{
				"patchline" : 				{
					"source" : [ "obj-57", 0 ],
					"destination" : [ "obj-54", 0 ],
					"hidden" : 1,
					"midpoints" : [  ]
				}

			}
, 			{
				"patchline" : 				{
					"source" : [ "obj-51", 0 ],
					"destination" : [ "obj-57", 0 ],
					"hidden" : 1,
					"midpoints" : [ 496.5, 124.0, 562.5, 124.0 ]
				}

			}
, 			{
				"patchline" : 				{
					"source" : [ "obj-53", 0 ],
					"destination" : [ "obj-56", 0 ],
					"hidden" : 0,
					"midpoints" : [ 602.5, 173.0, 496.5, 173.0 ]
				}

			}
, 			{
				"patchline" : 				{
					"source" : [ "obj-54", 0 ],
					"destination" : [ "obj-56", 0 ],
					"hidden" : 0,
					"midpoints" : [ 562.5, 173.0, 496.5, 173.0 ]
				}

			}
, 			{
				"patchline" : 				{
					"source" : [ "obj-55", 0 ],
					"destination" : [ "obj-56", 0 ],
					"hidden" : 0,
					"midpoints" : [ 523.5, 173.0, 496.5, 173.0 ]
				}

			}
, 			{
				"patchline" : 				{
					"source" : [ "obj-52", 0 ],
					"destination" : [ "obj-56", 0 ],
					"hidden" : 0,
					"midpoints" : [  ]
				}

			}
, 			{
				"patchline" : 				{
					"source" : [ "obj-51", 0 ],
					"destination" : [ "obj-52", 0 ],
					"hidden" : 0,
					"midpoints" : [  ]
				}

			}
, 			{
				"patchline" : 				{
					"source" : [ "obj-50", 0 ],
					"destination" : [ "obj-48", 0 ],
					"hidden" : 0,
					"midpoints" : [  ]
				}

			}
, 			{
				"patchline" : 				{
					"source" : [ "obj-48", 0 ],
					"destination" : [ "obj-43", 0 ],
					"hidden" : 0,
					"midpoints" : [  ]
				}

			}
, 			{
				"patchline" : 				{
					"source" : [ "obj-45", 0 ],
					"destination" : [ "obj-43", 0 ],
					"hidden" : 0,
					"midpoints" : [ 361.5, 173.0, 334.5, 173.0 ]
				}

			}
, 			{
				"patchline" : 				{
					"source" : [ "obj-46", 0 ],
					"destination" : [ "obj-43", 0 ],
					"hidden" : 0,
					"midpoints" : [ 400.5, 173.0, 334.5, 173.0 ]
				}

			}
, 			{
				"patchline" : 				{
					"source" : [ "obj-47", 0 ],
					"destination" : [ "obj-43", 0 ],
					"hidden" : 0,
					"midpoints" : [ 440.5, 173.0, 334.5, 173.0 ]
				}

			}
, 			{
				"patchline" : 				{
					"source" : [ "obj-43", 0 ],
					"destination" : [ "obj-69", 0 ],
					"hidden" : 0,
					"midpoints" : [  ]
				}

			}
, 			{
				"patchline" : 				{
					"source" : [ "obj-6", 0 ],
					"destination" : [ "obj-10", 0 ],
					"hidden" : 1,
					"midpoints" : [  ]
				}

			}
, 			{
				"patchline" : 				{
					"source" : [ "obj-6", 1 ],
					"destination" : [ "obj-10", 1 ],
					"hidden" : 1,
					"midpoints" : [  ]
				}

			}
, 			{
				"patchline" : 				{
					"source" : [ "obj-6", 2 ],
					"destination" : [ "obj-10", 2 ],
					"hidden" : 1,
					"midpoints" : [  ]
				}

			}
, 			{
				"patchline" : 				{
					"source" : [ "obj-69", 0 ],
					"destination" : [ "obj-71", 0 ],
					"hidden" : 0,
					"midpoints" : [  ]
				}

			}
, 			{
				"patchline" : 				{
					"source" : [ "obj-8", 0 ],
					"destination" : [ "obj-11", 0 ],
					"hidden" : 0,
					"midpoints" : [  ]
				}

			}
, 			{
				"patchline" : 				{
					"source" : [ "obj-11", 0 ],
					"destination" : [ "obj-67", 0 ],
					"hidden" : 0,
					"midpoints" : [  ]
				}

			}
, 			{
				"patchline" : 				{
					"source" : [ "obj-71", 0 ],
					"destination" : [ "obj-8", 0 ],
					"hidden" : 0,
					"midpoints" : [  ]
				}

			}
, 			{
				"patchline" : 				{
					"source" : [ "obj-13", 0 ],
					"destination" : [ "obj-14", 0 ],
					"hidden" : 0,
					"midpoints" : [  ]
				}

			}
, 			{
				"patchline" : 				{
					"source" : [ "obj-24", 0 ],
					"destination" : [ "obj-13", 0 ],
					"hidden" : 0,
					"midpoints" : [  ]
				}

			}
, 			{
				"patchline" : 				{
					"source" : [ "obj-72", 0 ],
					"destination" : [ "obj-71", 0 ],
					"hidden" : 0,
					"midpoints" : [ 420.5, 273.0, 388.5, 273.0, 388.5, 254.0, 334.5, 254.0 ]
				}

			}
, 			{
				"patchline" : 				{
					"source" : [ "obj-14", 0 ],
					"destination" : [ "obj-8", 1 ],
					"hidden" : 0,
					"midpoints" : [  ]
				}

			}
, 			{
				"patchline" : 				{
					"source" : [ "obj-71", 0 ],
					"destination" : [ "obj-11", 1 ],
					"hidden" : 0,
					"midpoints" : [ 334.5, 281.0, 510.0, 281.0, 510.0, 405.0, 399.5, 405.0 ]
				}

			}
, 			{
				"patchline" : 				{
					"source" : [ "obj-8", 0 ],
					"destination" : [ "obj-13", 1 ],
					"hidden" : 0,
					"midpoints" : [ 334.5, 392.0, 504.0, 392.0, 504.0, 312.0, 388.5, 312.0 ]
				}

			}
, 			{
				"patchline" : 				{
					"source" : [ "obj-26", 0 ],
					"destination" : [ "obj-25", 0 ],
					"hidden" : 0,
					"midpoints" : [  ]
				}

			}
, 			{
				"patchline" : 				{
					"source" : [ "obj-29", 0 ],
					"destination" : [ "obj-30", 1 ],
					"hidden" : 0,
					"midpoints" : [  ]
				}

			}
, 			{
				"patchline" : 				{
					"source" : [ "obj-67", 1 ],
					"destination" : [ "obj-30", 0 ],
					"hidden" : 0,
					"midpoints" : [  ]
				}

			}
, 			{
				"patchline" : 				{
					"source" : [ "obj-78", 1 ],
					"destination" : [ "obj-68", 1 ],
					"hidden" : 0,
					"midpoints" : [  ]
				}

			}
, 			{
				"patchline" : 				{
					"source" : [ "obj-68", 2 ],
					"destination" : [ "obj-73", 0 ],
					"hidden" : 1,
					"midpoints" : [  ]
				}

			}
, 			{
				"patchline" : 				{
					"source" : [ "obj-68", 1 ],
					"destination" : [ "obj-75", 0 ],
					"hidden" : 1,
					"midpoints" : [  ]
				}

			}
, 			{
				"patchline" : 				{
					"source" : [ "obj-68", 0 ],
					"destination" : [ "obj-76", 0 ],
					"hidden" : 1,
					"midpoints" : [  ]
				}

			}
, 			{
				"patchline" : 				{
					"source" : [ "obj-78", 0 ],
					"destination" : [ "obj-68", 0 ],
					"hidden" : 0,
					"midpoints" : [  ]
				}

			}
, 			{
				"patchline" : 				{
					"source" : [ "obj-41", 0 ],
					"destination" : [ "obj-77", 0 ],
					"hidden" : 1,
					"midpoints" : [  ]
				}

			}
, 			{
				"patchline" : 				{
					"source" : [ "obj-77", 0 ],
					"destination" : [ "obj-79", 0 ],
					"hidden" : 1,
					"midpoints" : [  ]
				}

			}
, 			{
				"patchline" : 				{
					"source" : [ "obj-73", 0 ],
					"destination" : [ "obj-30", 4 ],
					"hidden" : 1,
					"midpoints" : [  ]
				}

			}
, 			{
				"patchline" : 				{
					"source" : [ "obj-75", 0 ],
					"destination" : [ "obj-30", 3 ],
					"hidden" : 1,
					"midpoints" : [  ]
				}

			}
, 			{
				"patchline" : 				{
					"source" : [ "obj-76", 0 ],
					"destination" : [ "obj-30", 2 ],
					"hidden" : 1,
					"midpoints" : [  ]
				}

			}
, 			{
				"patchline" : 				{
					"source" : [ "obj-30", 0 ],
					"destination" : [ "obj-14", 0 ],
					"hidden" : 0,
					"midpoints" : [ 635.5, 735.0, 926.0, 735.0, 926.0, 508.0, 659.0, 508.0, 659.0, 338.0, 375.5, 338.0 ]
				}

			}
, 			{
				"patchline" : 				{
					"source" : [ "obj-25", 0 ],
					"destination" : [ "obj-11", 0 ],
					"hidden" : 0,
					"midpoints" : [ 539.5, 427.0, 432.0, 427.0, 432.0, 398.0, 334.5, 398.0 ]
				}

			}
, 			{
				"patchline" : 				{
					"source" : [ "obj-84", 0 ],
					"destination" : [ "obj-14", 0 ],
					"hidden" : 1,
					"midpoints" : [  ]
				}

			}
 ]
	}

}
