{
	"patcher" : 	{
		"fileversion" : 1,
		"appversion" : 		{
			"major" : 7,
			"minor" : 0,
			"revision" : 2,
			"architecture" : "x86",
			"modernui" : 1
		}
,
		"rect" : [ 264.0, 376.0, 272.0, 192.0 ],
		"bglocked" : 0,
		"openinpresentation" : 0,
		"default_fontsize" : 12.0,
		"default_fontface" : 0,
		"default_fontname" : "Arial",
		"gridonopen" : 1,
		"gridsize" : [ 15.0, 15.0 ],
		"gridsnaponopen" : 1,
		"objectsnaponopen" : 1,
		"statusbarvisible" : 2,
		"toolbarvisible" : 1,
		"lefttoolbarpinned" : 0,
		"toptoolbarpinned" : 0,
		"righttoolbarpinned" : 0,
		"bottomtoolbarpinned" : 0,
		"toolbars_unpinned_last_save" : 0,
		"tallnewobj" : 0,
		"boxanimatetime" : 200,
		"enablehscroll" : 1,
		"enablevscroll" : 1,
		"devicewidth" : 0.0,
		"description" : "",
		"digest" : "",
		"tags" : "",
		"style" : "",
		"subpatcher_template" : "",
		"boxes" : [ 			{
				"box" : 				{
					"comment" : "(matrix) Frame difference",
					"id" : "obj-1",
					"maxclass" : "outlet",
					"numinlets" : 1,
					"numoutlets" : 0,
					"patching_rect" : [ 22.0, 144.0, 15.0, 15.0 ],
					"style" : ""
				}

			}
, 			{
				"box" : 				{
					"fontname" : "Arial",
					"fontsize" : 9.0,
					"id" : "obj-2",
					"maxclass" : "newobj",
					"numinlets" : 2,
					"numoutlets" : 2,
					"outlettype" : [ "jit_matrix", "" ],
					"patching_rect" : [ 22.0, 105.0, 88.0, 19.0 ],
					"style" : "",
					"text" : "jit.op @op absdiff"
				}

			}
, 			{
				"box" : 				{
					"fontname" : "Arial",
					"fontsize" : 9.0,
					"id" : "obj-3",
					"maxclass" : "newobj",
					"numinlets" : 1,
					"numoutlets" : 2,
					"outlettype" : [ "", "" ],
					"patching_rect" : [ 23.0, 61.0, 27.0, 19.0 ],
					"style" : "",
					"text" : "t l l"
				}

			}
, 			{
				"box" : 				{
					"comment" : "(matrix) input",
					"id" : "obj-4",
					"maxclass" : "inlet",
					"numinlets" : 0,
					"numoutlets" : 1,
					"outlettype" : [ "" ],
					"patching_rect" : [ 23.0, 30.0, 15.0, 15.0 ],
					"style" : ""
				}

			}
 ],
		"lines" : [ 			{
				"patchline" : 				{
					"destination" : [ "obj-1", 0 ],
					"disabled" : 0,
					"hidden" : 0,
					"source" : [ "obj-2", 0 ]
				}

			}
, 			{
				"patchline" : 				{
					"destination" : [ "obj-2", 0 ],
					"disabled" : 0,
					"hidden" : 0,
					"source" : [ "obj-3", 1 ]
				}

			}
, 			{
				"patchline" : 				{
					"destination" : [ "obj-2", 1 ],
					"disabled" : 0,
					"hidden" : 0,
					"midpoints" : [ 32.5, 88.0, 100.5, 88.0 ],
					"source" : [ "obj-3", 0 ]
				}

			}
, 			{
				"patchline" : 				{
					"destination" : [ "obj-3", 0 ],
					"disabled" : 0,
					"hidden" : 0,
					"source" : [ "obj-4", 0 ]
				}

			}
 ],
		"dependency_cache" : [  ],
		"embedsnapshot" : 0
	}

}
