{
	"patcher" : 	{
		"fileversion" : 1,
		"rect" : [ 245.0, 145.0, 673.0, 562.0 ],
		"bglocked" : 0,
		"defrect" : [ 245.0, 145.0, 673.0, 562.0 ],
		"openrect" : [ 0.0, 0.0, 0.0, 0.0 ],
		"openinpresentation" : 0,
		"default_fontsize" : 13.0,
		"default_fontface" : 0,
		"default_fontname" : "Arial",
		"gridonopen" : 0,
		"gridsize" : [ 15.0, 15.0 ],
		"gridsnaponopen" : 0,
		"toolbarvisible" : 1,
		"boxanimatetime" : 200,
		"imprint" : 0,
		"enablehscroll" : 1,
		"enablevscroll" : 1,
		"devicewidth" : 0.0,
		"boxes" : [ 			{
				"box" : 				{
					"maxclass" : "comment",
					"varname" : "copyright-comment",
					"text" : "Copyright ©2003-2010",
					"fontsize" : 10.0,
					"frgb" : [ 0.0, 0.0, 0.0, 0.901961 ],
					"patching_rect" : [ 270.0, 472.0, 111.0, 18.0 ],
					"numinlets" : 1,
					"id" : "obj-36",
					"fontname" : "Arial",
					"textcolor" : [ 0.0, 0.0, 0.0, 0.901961 ],
					"numoutlets" : 0
				}

			}
, 			{
				"box" : 				{
					"maxclass" : "comment",
					"varname" : "support-comment",
					"text" : "Support:\nInternational Academy of Media Arts & Sciences (IAMAS) \n– Gifu, Japan",
					"linecount" : 3,
					"fontsize" : 9.0,
					"patching_rect" : [ 270.0, 429.5, 243.0, 38.0 ],
					"numinlets" : 1,
					"id" : "obj-37",
					"fontname" : "Arial",
					"numoutlets" : 0
				}

			}
, 			{
				"box" : 				{
					"maxclass" : "comment",
					"varname" : "email-comment",
					"text" : "jmp@jmpelletier.com\n",
					"fontsize" : 10.0,
					"frgb" : [ 0.0, 0.0, 0.0, 0.901961 ],
					"patching_rect" : [ 405.0, 407.0, 105.0, 18.0 ],
					"numinlets" : 1,
					"id" : "obj-38",
					"fontname" : "Arial",
					"textcolor" : [ 0.0, 0.0, 0.0, 0.901961 ],
					"numoutlets" : 0
				}

			}
, 			{
				"box" : 				{
					"maxclass" : "comment",
					"varname" : "me-comment",
					"text" : "By Jean-Marc Pelletier\n",
					"fontsize" : 12.0,
					"patching_rect" : [ 270.0, 405.0, 135.0, 20.0 ],
					"numinlets" : 1,
					"id" : "obj-39",
					"fontname" : "Arial",
					"numoutlets" : 0
				}

			}
, 			{
				"box" : 				{
					"maxclass" : "panel",
					"varname" : "copyright-panel",
					"bgcolor" : [ 1.0, 1.0, 1.0, 0.403922 ],
					"border" : 1,
					"patching_rect" : [ 265.0, 400.0, 250.0, 95.0 ],
					"numinlets" : 1,
					"id" : "obj-49",
					"numoutlets" : 0,
					"bordercolor" : [ 0.0, 0.0, 0.0, 0.647059 ]
				}

			}
, 			{
				"box" : 				{
					"maxclass" : "newobj",
					"text" : "p random_bg_colour",
					"fontsize" : 10.0,
					"hidden" : 1,
					"patching_rect" : [ 286.0, 503.0, 102.0, 18.0 ],
					"numinlets" : 0,
					"id" : "obj-5",
					"fontname" : "Arial",
					"numoutlets" : 3,
					"outlettype" : [ "int", "int", "int" ],
					"patcher" : 					{
						"fileversion" : 1,
						"rect" : [ 98.0, 217.0, 640.0, 480.0 ],
						"bglocked" : 0,
						"defrect" : [ 98.0, 217.0, 640.0, 480.0 ],
						"openrect" : [ 0.0, 0.0, 0.0, 0.0 ],
						"openinpresentation" : 0,
						"default_fontsize" : 12.0,
						"default_fontface" : 0,
						"default_fontname" : "Arial",
						"gridonopen" : 0,
						"gridsize" : [ 15.0, 15.0 ],
						"gridsnaponopen" : 0,
						"toolbarvisible" : 1,
						"boxanimatetime" : 200,
						"imprint" : 0,
						"enablehscroll" : 1,
						"enablevscroll" : 1,
						"devicewidth" : 0.0,
						"boxes" : [ 							{
								"box" : 								{
									"maxclass" : "newobj",
									"text" : "loadbang",
									"fontsize" : 10.0,
									"patching_rect" : [ 50.0, 100.0, 59.0, 18.0 ],
									"numinlets" : 1,
									"id" : "obj-13",
									"fontname" : "Arial",
									"numoutlets" : 1,
									"outlettype" : [ "bang" ]
								}

							}
, 							{
								"box" : 								{
									"maxclass" : "newobj",
									"text" : "!- 215",
									"fontsize" : 10.0,
									"patching_rect" : [ 168.0, 161.004089, 36.0, 18.0 ],
									"numinlets" : 2,
									"id" : "obj-9",
									"fontname" : "Arial",
									"numoutlets" : 1,
									"outlettype" : [ "int" ]
								}

							}
, 							{
								"box" : 								{
									"maxclass" : "newobj",
									"text" : "!- 225",
									"fontsize" : 10.0,
									"patching_rect" : [ 109.0, 161.004089, 36.0, 18.0 ],
									"numinlets" : 2,
									"id" : "obj-8",
									"fontname" : "Arial",
									"numoutlets" : 1,
									"outlettype" : [ "int" ]
								}

							}
, 							{
								"box" : 								{
									"maxclass" : "newobj",
									"text" : "+ 225",
									"fontsize" : 10.0,
									"patching_rect" : [ 50.0, 161.004089, 36.0, 18.0 ],
									"numinlets" : 2,
									"id" : "obj-7",
									"fontname" : "Arial",
									"numoutlets" : 1,
									"outlettype" : [ "int" ]
								}

							}
, 							{
								"box" : 								{
									"maxclass" : "newobj",
									"text" : "b 3",
									"fontsize" : 10.0,
									"patching_rect" : [ 50.0, 120.621155, 137.0, 18.0 ],
									"numinlets" : 1,
									"id" : "obj-6",
									"fontname" : "Arial",
									"numoutlets" : 3,
									"outlettype" : [ "bang", "bang", "bang" ]
								}

							}
, 							{
								"box" : 								{
									"maxclass" : "newobj",
									"text" : "random 10",
									"fontsize" : 10.0,
									"patching_rect" : [ 168.0, 140.745117, 58.0, 18.0 ],
									"numinlets" : 2,
									"id" : "obj-5",
									"fontname" : "Arial",
									"numoutlets" : 1,
									"outlettype" : [ "int" ]
								}

							}
, 							{
								"box" : 								{
									"maxclass" : "newobj",
									"text" : "random 10",
									"fontsize" : 10.0,
									"patching_rect" : [ 109.0, 140.745117, 58.0, 18.0 ],
									"numinlets" : 2,
									"id" : "obj-4",
									"fontname" : "Arial",
									"numoutlets" : 1,
									"outlettype" : [ "int" ]
								}

							}
, 							{
								"box" : 								{
									"maxclass" : "newobj",
									"text" : "random 3",
									"fontsize" : 10.0,
									"patching_rect" : [ 50.0, 140.964417, 53.0, 18.0 ],
									"numinlets" : 2,
									"id" : "obj-3",
									"fontname" : "Arial",
									"numoutlets" : 1,
									"outlettype" : [ "int" ]
								}

							}
, 							{
								"box" : 								{
									"maxclass" : "outlet",
									"patching_rect" : [ 50.0, 239.004089, 25.0, 25.0 ],
									"numinlets" : 1,
									"id" : "obj-37",
									"numoutlets" : 0,
									"comment" : ""
								}

							}
, 							{
								"box" : 								{
									"maxclass" : "outlet",
									"patching_rect" : [ 109.0, 239.004089, 25.0, 25.0 ],
									"numinlets" : 1,
									"id" : "obj-38",
									"numoutlets" : 0,
									"comment" : ""
								}

							}
, 							{
								"box" : 								{
									"maxclass" : "outlet",
									"patching_rect" : [ 168.0, 239.004089, 25.0, 25.0 ],
									"numinlets" : 1,
									"id" : "obj-39",
									"numoutlets" : 0,
									"comment" : ""
								}

							}
 ],
						"lines" : [ 							{
								"patchline" : 								{
									"source" : [ "obj-9", 0 ],
									"destination" : [ "obj-39", 0 ],
									"hidden" : 0,
									"midpoints" : [  ]
								}

							}
, 							{
								"patchline" : 								{
									"source" : [ "obj-5", 0 ],
									"destination" : [ "obj-9", 0 ],
									"hidden" : 0,
									"midpoints" : [  ]
								}

							}
, 							{
								"patchline" : 								{
									"source" : [ "obj-8", 0 ],
									"destination" : [ "obj-38", 0 ],
									"hidden" : 0,
									"midpoints" : [  ]
								}

							}
, 							{
								"patchline" : 								{
									"source" : [ "obj-4", 0 ],
									"destination" : [ "obj-8", 0 ],
									"hidden" : 0,
									"midpoints" : [  ]
								}

							}
, 							{
								"patchline" : 								{
									"source" : [ "obj-7", 0 ],
									"destination" : [ "obj-37", 0 ],
									"hidden" : 0,
									"midpoints" : [  ]
								}

							}
, 							{
								"patchline" : 								{
									"source" : [ "obj-3", 0 ],
									"destination" : [ "obj-7", 0 ],
									"hidden" : 0,
									"midpoints" : [  ]
								}

							}
, 							{
								"patchline" : 								{
									"source" : [ "obj-13", 0 ],
									"destination" : [ "obj-6", 0 ],
									"hidden" : 0,
									"midpoints" : [  ]
								}

							}
, 							{
								"patchline" : 								{
									"source" : [ "obj-6", 0 ],
									"destination" : [ "obj-3", 0 ],
									"hidden" : 0,
									"midpoints" : [  ]
								}

							}
, 							{
								"patchline" : 								{
									"source" : [ "obj-6", 2 ],
									"destination" : [ "obj-5", 0 ],
									"hidden" : 0,
									"midpoints" : [  ]
								}

							}
, 							{
								"patchline" : 								{
									"source" : [ "obj-6", 1 ],
									"destination" : [ "obj-4", 0 ],
									"hidden" : 0,
									"midpoints" : [  ]
								}

							}
 ]
					}
,
					"saved_object_attributes" : 					{
						"fontsize" : 12.0,
						"default_fontname" : "Arial",
						"default_fontsize" : 12.0,
						"fontname" : "Arial",
						"globalpatchername" : "",
						"default_fontface" : 0,
						"fontface" : 0
					}

				}

			}
, 			{
				"box" : 				{
					"maxclass" : "newobj",
					"text" : "bgcolor",
					"fontsize" : 10.0,
					"hidden" : 1,
					"patching_rect" : [ 286.0, 523.379517, 143.5, 18.0 ],
					"numinlets" : 4,
					"id" : "obj-40",
					"fontname" : "Arial",
					"numoutlets" : 0
				}

			}
, 			{
				"box" : 				{
					"maxclass" : "newobj",
					"text" : "p adjust_size",
					"fontsize" : 9.0,
					"patching_rect" : [ 564.0, 90.0, 70.0, 17.0 ],
					"numinlets" : 1,
					"id" : "obj-6",
					"fontname" : "Arial",
					"numoutlets" : 1,
					"outlettype" : [ "" ],
					"patcher" : 					{
						"fileversion" : 1,
						"rect" : [ 20.0, 74.0, 362.0, 374.0 ],
						"bglocked" : 0,
						"defrect" : [ 20.0, 74.0, 362.0, 374.0 ],
						"openrect" : [ 0.0, 0.0, 0.0, 0.0 ],
						"openinpresentation" : 0,
						"default_fontsize" : 13.0,
						"default_fontface" : 0,
						"default_fontname" : "Arial",
						"gridonopen" : 0,
						"gridsize" : [ 15.0, 15.0 ],
						"gridsnaponopen" : 0,
						"toolbarvisible" : 1,
						"boxanimatetime" : 200,
						"imprint" : 0,
						"enablehscroll" : 1,
						"enablevscroll" : 1,
						"devicewidth" : 0.0,
						"boxes" : [ 							{
								"box" : 								{
									"maxclass" : "outlet",
									"patching_rect" : [ 117.0, 267.0, 15.0, 15.0 ],
									"numinlets" : 1,
									"id" : "obj-1",
									"numoutlets" : 0,
									"comment" : ""
								}

							}
, 							{
								"box" : 								{
									"maxclass" : "inlet",
									"patching_rect" : [ 117.0, 45.0, 15.0, 15.0 ],
									"numinlets" : 0,
									"id" : "obj-2",
									"numoutlets" : 1,
									"outlettype" : [ "" ],
									"comment" : ""
								}

							}
, 							{
								"box" : 								{
									"maxclass" : "newobj",
									"text" : "t b l",
									"fontsize" : 9.0,
									"patching_rect" : [ 117.0, 116.0, 35.0, 17.0 ],
									"numinlets" : 1,
									"id" : "obj-3",
									"fontname" : "Arial",
									"numoutlets" : 2,
									"outlettype" : [ "bang", "" ]
								}

							}
, 							{
								"box" : 								{
									"maxclass" : "newobj",
									"text" : "t b i",
									"fontsize" : 9.0,
									"patching_rect" : [ 184.0, 180.0, 27.0, 17.0 ],
									"numinlets" : 1,
									"id" : "obj-4",
									"fontname" : "Arial",
									"numoutlets" : 2,
									"outlettype" : [ "bang", "int" ]
								}

							}
, 							{
								"box" : 								{
									"maxclass" : "newobj",
									"text" : "t b i",
									"fontsize" : 9.0,
									"patching_rect" : [ 142.0, 180.0, 27.0, 17.0 ],
									"numinlets" : 1,
									"id" : "obj-5",
									"fontname" : "Arial",
									"numoutlets" : 2,
									"outlettype" : [ "bang", "int" ]
								}

							}
, 							{
								"box" : 								{
									"maxclass" : "newobj",
									"text" : "onebang",
									"fontsize" : 9.0,
									"patching_rect" : [ 117.0, 218.0, 45.0, 17.0 ],
									"numinlets" : 2,
									"id" : "obj-6",
									"fontname" : "Arial",
									"numoutlets" : 2,
									"outlettype" : [ "bang", "bang" ]
								}

							}
, 							{
								"box" : 								{
									"maxclass" : "newobj",
									"text" : "pack dim 320 240",
									"fontsize" : 9.0,
									"patching_rect" : [ 117.0, 241.0, 94.0, 17.0 ],
									"numinlets" : 3,
									"id" : "obj-7",
									"fontname" : "Arial",
									"numoutlets" : 1,
									"outlettype" : [ "" ]
								}

							}
, 							{
								"box" : 								{
									"maxclass" : "newobj",
									"text" : "change",
									"fontsize" : 9.0,
									"patching_rect" : [ 184.0, 160.0, 40.0, 17.0 ],
									"numinlets" : 1,
									"id" : "obj-8",
									"fontname" : "Arial",
									"numoutlets" : 3,
									"outlettype" : [ "", "int", "int" ]
								}

							}
, 							{
								"box" : 								{
									"maxclass" : "newobj",
									"text" : "change",
									"fontsize" : 9.0,
									"patching_rect" : [ 142.0, 160.0, 40.0, 17.0 ],
									"numinlets" : 1,
									"id" : "obj-9",
									"fontname" : "Arial",
									"numoutlets" : 3,
									"outlettype" : [ "", "int", "int" ]
								}

							}
, 							{
								"box" : 								{
									"maxclass" : "newobj",
									"text" : "unpack",
									"fontsize" : 9.0,
									"patching_rect" : [ 142.0, 140.0, 52.0, 17.0 ],
									"numinlets" : 1,
									"id" : "obj-10",
									"fontname" : "Arial",
									"numoutlets" : 2,
									"outlettype" : [ "int", "int" ]
								}

							}
, 							{
								"box" : 								{
									"maxclass" : "newobj",
									"text" : "route dim",
									"fontsize" : 9.0,
									"patching_rect" : [ 117.0, 94.0, 53.0, 17.0 ],
									"numinlets" : 1,
									"id" : "obj-11",
									"fontname" : "Arial",
									"numoutlets" : 2,
									"outlettype" : [ "", "" ]
								}

							}
, 							{
								"box" : 								{
									"maxclass" : "newobj",
									"text" : "jit.matrixinfo",
									"fontsize" : 9.0,
									"patching_rect" : [ 117.0, 71.0, 72.0, 17.0 ],
									"numinlets" : 1,
									"id" : "obj-12",
									"fontname" : "Arial",
									"numoutlets" : 1,
									"outlettype" : [ "" ]
								}

							}
 ],
						"lines" : [ 							{
								"patchline" : 								{
									"source" : [ "obj-4", 1 ],
									"destination" : [ "obj-7", 2 ],
									"hidden" : 0,
									"midpoints" : [  ]
								}

							}
, 							{
								"patchline" : 								{
									"source" : [ "obj-8", 0 ],
									"destination" : [ "obj-4", 0 ],
									"hidden" : 0,
									"midpoints" : [  ]
								}

							}
, 							{
								"patchline" : 								{
									"source" : [ "obj-10", 1 ],
									"destination" : [ "obj-8", 0 ],
									"hidden" : 0,
									"midpoints" : [  ]
								}

							}
, 							{
								"patchline" : 								{
									"source" : [ "obj-5", 1 ],
									"destination" : [ "obj-7", 1 ],
									"hidden" : 0,
									"midpoints" : [  ]
								}

							}
, 							{
								"patchline" : 								{
									"source" : [ "obj-4", 0 ],
									"destination" : [ "obj-6", 1 ],
									"hidden" : 0,
									"midpoints" : [  ]
								}

							}
, 							{
								"patchline" : 								{
									"source" : [ "obj-5", 0 ],
									"destination" : [ "obj-6", 1 ],
									"hidden" : 0,
									"midpoints" : [  ]
								}

							}
, 							{
								"patchline" : 								{
									"source" : [ "obj-9", 0 ],
									"destination" : [ "obj-5", 0 ],
									"hidden" : 0,
									"midpoints" : [  ]
								}

							}
, 							{
								"patchline" : 								{
									"source" : [ "obj-10", 0 ],
									"destination" : [ "obj-9", 0 ],
									"hidden" : 0,
									"midpoints" : [  ]
								}

							}
, 							{
								"patchline" : 								{
									"source" : [ "obj-3", 1 ],
									"destination" : [ "obj-10", 0 ],
									"hidden" : 0,
									"midpoints" : [  ]
								}

							}
, 							{
								"patchline" : 								{
									"source" : [ "obj-7", 0 ],
									"destination" : [ "obj-1", 0 ],
									"hidden" : 0,
									"midpoints" : [  ]
								}

							}
, 							{
								"patchline" : 								{
									"source" : [ "obj-6", 0 ],
									"destination" : [ "obj-7", 0 ],
									"hidden" : 0,
									"midpoints" : [  ]
								}

							}
, 							{
								"patchline" : 								{
									"source" : [ "obj-3", 0 ],
									"destination" : [ "obj-6", 0 ],
									"hidden" : 0,
									"midpoints" : [  ]
								}

							}
, 							{
								"patchline" : 								{
									"source" : [ "obj-11", 0 ],
									"destination" : [ "obj-3", 0 ],
									"hidden" : 0,
									"midpoints" : [  ]
								}

							}
, 							{
								"patchline" : 								{
									"source" : [ "obj-12", 0 ],
									"destination" : [ "obj-11", 0 ],
									"hidden" : 0,
									"midpoints" : [  ]
								}

							}
, 							{
								"patchline" : 								{
									"source" : [ "obj-2", 0 ],
									"destination" : [ "obj-12", 0 ],
									"hidden" : 0,
									"midpoints" : [  ]
								}

							}
 ]
					}
,
					"saved_object_attributes" : 					{
						"fontsize" : 13.0,
						"default_fontname" : "Arial",
						"default_fontsize" : 13.0,
						"fontname" : "Arial",
						"globalpatchername" : "",
						"default_fontface" : 0,
						"fontface" : 0
					}

				}

			}
, 			{
				"box" : 				{
					"maxclass" : "message",
					"text" : "dim $1 $2",
					"fontsize" : 9.0,
					"patching_rect" : [ 432.0, 70.0, 56.0, 15.0 ],
					"numinlets" : 2,
					"id" : "obj-7",
					"fontname" : "Arial",
					"numoutlets" : 1,
					"outlettype" : [ "" ]
				}

			}
, 			{
				"box" : 				{
					"maxclass" : "newobj",
					"text" : "loadbang",
					"fontsize" : 9.0,
					"patching_rect" : [ 432.0, 24.0, 48.0, 17.0 ],
					"numinlets" : 1,
					"id" : "obj-8",
					"fontname" : "Arial",
					"numoutlets" : 1,
					"outlettype" : [ "bang" ]
				}

			}
, 			{
				"box" : 				{
					"maxclass" : "newobj",
					"text" : "patcherargs",
					"fontsize" : 9.0,
					"patching_rect" : [ 432.0, 45.0, 64.0, 17.0 ],
					"numinlets" : 1,
					"id" : "obj-9",
					"fontname" : "Arial",
					"numoutlets" : 2,
					"outlettype" : [ "", "" ]
				}

			}
, 			{
				"box" : 				{
					"maxclass" : "newobj",
					"text" : "t 0 l l",
					"fontsize" : 9.0,
					"patching_rect" : [ 526.0, 60.0, 49.0, 17.0 ],
					"numinlets" : 1,
					"id" : "obj-10",
					"fontname" : "Arial",
					"numoutlets" : 3,
					"outlettype" : [ "int", "", "" ]
				}

			}
, 			{
				"box" : 				{
					"maxclass" : "message",
					"text" : "1",
					"fontsize" : 9.0,
					"patching_rect" : [ 68.0, 80.0, 16.0, 15.0 ],
					"numinlets" : 2,
					"id" : "obj-11",
					"fontname" : "Arial",
					"numoutlets" : 1,
					"outlettype" : [ "" ]
				}

			}
, 			{
				"box" : 				{
					"maxclass" : "newobj",
					"text" : "gate 1 1",
					"fontsize" : 9.0,
					"patching_rect" : [ 266.0, 107.0, 47.0, 17.0 ],
					"numinlets" : 2,
					"id" : "obj-12",
					"fontname" : "Arial",
					"numoutlets" : 1,
					"outlettype" : [ "" ]
				}

			}
, 			{
				"box" : 				{
					"maxclass" : "inlet",
					"patching_rect" : [ 526.0, 32.0, 15.0, 15.0 ],
					"numinlets" : 0,
					"id" : "obj-13",
					"numoutlets" : 1,
					"outlettype" : [ "" ],
					"comment" : "(matrix) Background"
				}

			}
, 			{
				"box" : 				{
					"maxclass" : "message",
					"text" : "frameoval $1 $3 $2 $4 0 255 0",
					"fontsize" : 9.0,
					"patching_rect" : [ 277.0, 302.0, 155.0, 15.0 ],
					"numinlets" : 2,
					"id" : "obj-14",
					"fontname" : "Arial",
					"numoutlets" : 1,
					"outlettype" : [ "" ]
				}

			}
, 			{
				"box" : 				{
					"maxclass" : "newobj",
					"text" : "pack 0 0 0 0",
					"fontsize" : 9.0,
					"patching_rect" : [ 277.0, 279.0, 99.0, 17.0 ],
					"numinlets" : 4,
					"id" : "obj-15",
					"fontname" : "Arial",
					"numoutlets" : 1,
					"outlettype" : [ "" ]
				}

			}
, 			{
				"box" : 				{
					"maxclass" : "newobj",
					"text" : "+ 5",
					"fontsize" : 9.0,
					"patching_rect" : [ 364.0, 255.0, 27.0, 17.0 ],
					"numinlets" : 2,
					"id" : "obj-16",
					"fontname" : "Arial",
					"numoutlets" : 1,
					"outlettype" : [ "int" ]
				}

			}
, 			{
				"box" : 				{
					"maxclass" : "newobj",
					"text" : "- 5",
					"fontsize" : 9.0,
					"patching_rect" : [ 335.0, 255.0, 27.0, 17.0 ],
					"numinlets" : 2,
					"id" : "obj-17",
					"fontname" : "Arial",
					"numoutlets" : 1,
					"outlettype" : [ "int" ]
				}

			}
, 			{
				"box" : 				{
					"maxclass" : "newobj",
					"text" : "+ 5",
					"fontsize" : 9.0,
					"patching_rect" : [ 306.0, 255.0, 27.0, 17.0 ],
					"numinlets" : 2,
					"id" : "obj-18",
					"fontname" : "Arial",
					"numoutlets" : 1,
					"outlettype" : [ "int" ]
				}

			}
, 			{
				"box" : 				{
					"maxclass" : "newobj",
					"text" : "- 5",
					"fontsize" : 9.0,
					"patching_rect" : [ 277.0, 255.0, 27.0, 17.0 ],
					"numinlets" : 2,
					"id" : "obj-19",
					"fontname" : "Arial",
					"numoutlets" : 1,
					"outlettype" : [ "int" ]
				}

			}
, 			{
				"box" : 				{
					"maxclass" : "newobj",
					"text" : "sqrt",
					"fontsize" : 9.0,
					"patching_rect" : [ 308.0, 214.0, 29.0, 17.0 ],
					"numinlets" : 1,
					"id" : "obj-20",
					"fontname" : "Arial",
					"numoutlets" : 1,
					"outlettype" : [ "float" ]
				}

			}
, 			{
				"box" : 				{
					"maxclass" : "newobj",
					"text" : "/ 3.1415",
					"fontsize" : 9.0,
					"patching_rect" : [ 308.0, 191.0, 52.0, 17.0 ],
					"numinlets" : 2,
					"id" : "obj-21",
					"fontname" : "Arial",
					"numoutlets" : 1,
					"outlettype" : [ "float" ]
				}

			}
, 			{
				"box" : 				{
					"maxclass" : "newobj",
					"text" : "loadbang",
					"fontsize" : 9.0,
					"patching_rect" : [ 465.0, 164.0, 48.0, 17.0 ],
					"numinlets" : 1,
					"id" : "obj-22",
					"fontname" : "Arial",
					"numoutlets" : 1,
					"outlettype" : [ "bang" ]
				}

			}
, 			{
				"box" : 				{
					"maxclass" : "newobj",
					"text" : "t b l clear",
					"fontsize" : 9.0,
					"patching_rect" : [ 50.0, 50.0, 77.0, 17.0 ],
					"numinlets" : 1,
					"id" : "obj-23",
					"fontname" : "Arial",
					"numoutlets" : 3,
					"outlettype" : [ "bang", "", "clear" ]
				}

			}
, 			{
				"box" : 				{
					"maxclass" : "message",
					"text" : "linesegment $1 $6 $2 $6 255 0 0, linesegment $5 $3 $5 $4 255 0 0",
					"fontsize" : 9.0,
					"patching_rect" : [ 83.0, 346.0, 321.0, 15.0 ],
					"numinlets" : 2,
					"id" : "obj-24",
					"fontname" : "Arial",
					"numoutlets" : 1,
					"outlettype" : [ "" ]
				}

			}
, 			{
				"box" : 				{
					"maxclass" : "message",
					"text" : "brgb 0 0 0",
					"fontsize" : 9.0,
					"patching_rect" : [ 465.0, 193.0, 57.0, 15.0 ],
					"numinlets" : 2,
					"id" : "obj-25",
					"fontname" : "Arial",
					"numoutlets" : 1,
					"outlettype" : [ "" ]
				}

			}
, 			{
				"box" : 				{
					"maxclass" : "newobj",
					"text" : "jit.lcd 4 char 320 240",
					"fontsize" : 9.0,
					"patching_rect" : [ 83.0, 387.0, 111.0, 17.0 ],
					"numinlets" : 1,
					"id" : "obj-26",
					"fontname" : "Arial",
					"numoutlets" : 2,
					"outlettype" : [ "jit_matrix", "" ]
				}

			}
, 			{
				"box" : 				{
					"maxclass" : "newobj",
					"text" : "pack 0 0 0 0 0 0",
					"fontsize" : 9.0,
					"patching_rect" : [ 83.0, 282.0, 158.0, 17.0 ],
					"numinlets" : 6,
					"id" : "obj-27",
					"fontname" : "Arial",
					"numoutlets" : 1,
					"outlettype" : [ "" ]
				}

			}
, 			{
				"box" : 				{
					"maxclass" : "newobj",
					"text" : "- 5",
					"fontsize" : 9.0,
					"patching_rect" : [ 170.0, 258.0, 27.0, 17.0 ],
					"numinlets" : 2,
					"id" : "obj-28",
					"fontname" : "Arial",
					"numoutlets" : 1,
					"outlettype" : [ "int" ]
				}

			}
, 			{
				"box" : 				{
					"maxclass" : "newobj",
					"text" : "+ 5",
					"fontsize" : 9.0,
					"patching_rect" : [ 141.0, 258.0, 27.0, 17.0 ],
					"numinlets" : 2,
					"id" : "obj-29",
					"fontname" : "Arial",
					"numoutlets" : 1,
					"outlettype" : [ "int" ]
				}

			}
, 			{
				"box" : 				{
					"maxclass" : "newobj",
					"text" : "- 5",
					"fontsize" : 9.0,
					"patching_rect" : [ 112.0, 258.0, 27.0, 17.0 ],
					"numinlets" : 2,
					"id" : "obj-30",
					"fontname" : "Arial",
					"numoutlets" : 1,
					"outlettype" : [ "int" ]
				}

			}
, 			{
				"box" : 				{
					"maxclass" : "newobj",
					"text" : "+ 5",
					"fontsize" : 9.0,
					"patching_rect" : [ 83.0, 258.0, 27.0, 17.0 ],
					"numinlets" : 2,
					"id" : "obj-31",
					"fontname" : "Arial",
					"numoutlets" : 1,
					"outlettype" : [ "int" ]
				}

			}
, 			{
				"box" : 				{
					"maxclass" : "newobj",
					"text" : "unpack 0 0 0",
					"fontsize" : 9.0,
					"patching_rect" : [ 83.0, 160.0, 67.0, 17.0 ],
					"numinlets" : 1,
					"id" : "obj-32",
					"fontname" : "Arial",
					"numoutlets" : 3,
					"outlettype" : [ "int", "int", "int" ]
				}

			}
, 			{
				"box" : 				{
					"maxclass" : "newobj",
					"text" : "jit.iter",
					"fontsize" : 9.0,
					"patching_rect" : [ 83.0, 132.0, 41.0, 17.0 ],
					"numinlets" : 1,
					"id" : "obj-33",
					"fontname" : "Arial",
					"numoutlets" : 3,
					"outlettype" : [ "", "", "" ]
				}

			}
, 			{
				"box" : 				{
					"maxclass" : "inlet",
					"patching_rect" : [ 50.0, 30.0, 15.0, 15.0 ],
					"numinlets" : 0,
					"id" : "obj-34",
					"numoutlets" : 1,
					"outlettype" : [ "" ],
					"comment" : "(matrix) From cv.jit.blobs.centroids"
				}

			}
, 			{
				"box" : 				{
					"maxclass" : "outlet",
					"patching_rect" : [ 83.0, 409.0, 15.0, 15.0 ],
					"numinlets" : 1,
					"id" : "obj-35",
					"numoutlets" : 0,
					"comment" : ""
				}

			}
 ],
		"lines" : [ 			{
				"patchline" : 				{
					"source" : [ "obj-5", 2 ],
					"destination" : [ "obj-40", 2 ],
					"hidden" : 1,
					"midpoints" : [  ]
				}

			}
, 			{
				"patchline" : 				{
					"source" : [ "obj-5", 1 ],
					"destination" : [ "obj-40", 1 ],
					"hidden" : 1,
					"midpoints" : [  ]
				}

			}
, 			{
				"patchline" : 				{
					"source" : [ "obj-5", 0 ],
					"destination" : [ "obj-40", 0 ],
					"hidden" : 1,
					"midpoints" : [  ]
				}

			}
, 			{
				"patchline" : 				{
					"source" : [ "obj-10", 2 ],
					"destination" : [ "obj-6", 0 ],
					"hidden" : 0,
					"midpoints" : [  ]
				}

			}
, 			{
				"patchline" : 				{
					"source" : [ "obj-13", 0 ],
					"destination" : [ "obj-10", 0 ],
					"hidden" : 0,
					"midpoints" : [  ]
				}

			}
, 			{
				"patchline" : 				{
					"source" : [ "obj-22", 0 ],
					"destination" : [ "obj-25", 0 ],
					"hidden" : 0,
					"midpoints" : [  ]
				}

			}
, 			{
				"patchline" : 				{
					"source" : [ "obj-9", 0 ],
					"destination" : [ "obj-7", 0 ],
					"hidden" : 0,
					"midpoints" : [  ]
				}

			}
, 			{
				"patchline" : 				{
					"source" : [ "obj-8", 0 ],
					"destination" : [ "obj-9", 0 ],
					"hidden" : 0,
					"midpoints" : [  ]
				}

			}
, 			{
				"patchline" : 				{
					"source" : [ "obj-20", 0 ],
					"destination" : [ "obj-16", 1 ],
					"hidden" : 0,
					"midpoints" : [  ]
				}

			}
, 			{
				"patchline" : 				{
					"source" : [ "obj-16", 0 ],
					"destination" : [ "obj-15", 3 ],
					"hidden" : 0,
					"midpoints" : [  ]
				}

			}
, 			{
				"patchline" : 				{
					"source" : [ "obj-32", 1 ],
					"destination" : [ "obj-16", 0 ],
					"hidden" : 0,
					"midpoints" : [  ]
				}

			}
, 			{
				"patchline" : 				{
					"source" : [ "obj-20", 0 ],
					"destination" : [ "obj-17", 1 ],
					"hidden" : 0,
					"midpoints" : [  ]
				}

			}
, 			{
				"patchline" : 				{
					"source" : [ "obj-17", 0 ],
					"destination" : [ "obj-15", 2 ],
					"hidden" : 0,
					"midpoints" : [  ]
				}

			}
, 			{
				"patchline" : 				{
					"source" : [ "obj-32", 1 ],
					"destination" : [ "obj-17", 0 ],
					"hidden" : 0,
					"midpoints" : [  ]
				}

			}
, 			{
				"patchline" : 				{
					"source" : [ "obj-20", 0 ],
					"destination" : [ "obj-18", 1 ],
					"hidden" : 0,
					"midpoints" : [  ]
				}

			}
, 			{
				"patchline" : 				{
					"source" : [ "obj-21", 0 ],
					"destination" : [ "obj-20", 0 ],
					"hidden" : 0,
					"midpoints" : [  ]
				}

			}
, 			{
				"patchline" : 				{
					"source" : [ "obj-32", 2 ],
					"destination" : [ "obj-21", 0 ],
					"hidden" : 0,
					"midpoints" : [ 140.5, 183.0, 317.5, 183.0 ]
				}

			}
, 			{
				"patchline" : 				{
					"source" : [ "obj-18", 0 ],
					"destination" : [ "obj-15", 1 ],
					"hidden" : 0,
					"midpoints" : [  ]
				}

			}
, 			{
				"patchline" : 				{
					"source" : [ "obj-32", 0 ],
					"destination" : [ "obj-18", 0 ],
					"hidden" : 0,
					"midpoints" : [  ]
				}

			}
, 			{
				"patchline" : 				{
					"source" : [ "obj-23", 2 ],
					"destination" : [ "obj-12", 1 ],
					"hidden" : 0,
					"midpoints" : [ 117.5, 80.0, 303.5, 80.0 ]
				}

			}
, 			{
				"patchline" : 				{
					"source" : [ "obj-20", 0 ],
					"destination" : [ "obj-19", 1 ],
					"hidden" : 0,
					"midpoints" : [  ]
				}

			}
, 			{
				"patchline" : 				{
					"source" : [ "obj-15", 0 ],
					"destination" : [ "obj-14", 0 ],
					"hidden" : 0,
					"midpoints" : [  ]
				}

			}
, 			{
				"patchline" : 				{
					"source" : [ "obj-19", 0 ],
					"destination" : [ "obj-15", 0 ],
					"hidden" : 0,
					"midpoints" : [  ]
				}

			}
, 			{
				"patchline" : 				{
					"source" : [ "obj-32", 0 ],
					"destination" : [ "obj-19", 0 ],
					"hidden" : 0,
					"midpoints" : [  ]
				}

			}
, 			{
				"patchline" : 				{
					"source" : [ "obj-11", 0 ],
					"destination" : [ "obj-12", 0 ],
					"hidden" : 0,
					"midpoints" : [ 77.5, 100.0, 275.5, 100.0 ]
				}

			}
, 			{
				"patchline" : 				{
					"source" : [ "obj-10", 0 ],
					"destination" : [ "obj-12", 0 ],
					"hidden" : 0,
					"midpoints" : [ 535.5, 90.0, 275.5, 90.0 ]
				}

			}
, 			{
				"patchline" : 				{
					"source" : [ "obj-32", 1 ],
					"destination" : [ "obj-27", 5 ],
					"hidden" : 0,
					"midpoints" : [  ]
				}

			}
, 			{
				"patchline" : 				{
					"source" : [ "obj-32", 0 ],
					"destination" : [ "obj-27", 4 ],
					"hidden" : 0,
					"midpoints" : [  ]
				}

			}
, 			{
				"patchline" : 				{
					"source" : [ "obj-28", 0 ],
					"destination" : [ "obj-27", 3 ],
					"hidden" : 0,
					"midpoints" : [  ]
				}

			}
, 			{
				"patchline" : 				{
					"source" : [ "obj-32", 1 ],
					"destination" : [ "obj-28", 0 ],
					"hidden" : 0,
					"midpoints" : [  ]
				}

			}
, 			{
				"patchline" : 				{
					"source" : [ "obj-29", 0 ],
					"destination" : [ "obj-27", 2 ],
					"hidden" : 0,
					"midpoints" : [  ]
				}

			}
, 			{
				"patchline" : 				{
					"source" : [ "obj-32", 1 ],
					"destination" : [ "obj-29", 0 ],
					"hidden" : 0,
					"midpoints" : [  ]
				}

			}
, 			{
				"patchline" : 				{
					"source" : [ "obj-30", 0 ],
					"destination" : [ "obj-27", 1 ],
					"hidden" : 0,
					"midpoints" : [  ]
				}

			}
, 			{
				"patchline" : 				{
					"source" : [ "obj-32", 0 ],
					"destination" : [ "obj-30", 0 ],
					"hidden" : 0,
					"midpoints" : [  ]
				}

			}
, 			{
				"patchline" : 				{
					"source" : [ "obj-26", 0 ],
					"destination" : [ "obj-35", 0 ],
					"hidden" : 0,
					"midpoints" : [  ]
				}

			}
, 			{
				"patchline" : 				{
					"source" : [ "obj-24", 0 ],
					"destination" : [ "obj-26", 0 ],
					"hidden" : 0,
					"midpoints" : [  ]
				}

			}
, 			{
				"patchline" : 				{
					"source" : [ "obj-25", 0 ],
					"destination" : [ "obj-26", 0 ],
					"hidden" : 0,
					"midpoints" : [  ]
				}

			}
, 			{
				"patchline" : 				{
					"source" : [ "obj-14", 0 ],
					"destination" : [ "obj-26", 0 ],
					"hidden" : 0,
					"midpoints" : [  ]
				}

			}
, 			{
				"patchline" : 				{
					"source" : [ "obj-12", 0 ],
					"destination" : [ "obj-26", 0 ],
					"hidden" : 0,
					"midpoints" : [ 275.5, 150.0, 454.0, 150.0, 454.0, 367.0, 92.5, 367.0 ]
				}

			}
, 			{
				"patchline" : 				{
					"source" : [ "obj-7", 0 ],
					"destination" : [ "obj-26", 0 ],
					"hidden" : 0,
					"midpoints" : [ 441.5, 378.0, 92.5, 378.0 ]
				}

			}
, 			{
				"patchline" : 				{
					"source" : [ "obj-23", 0 ],
					"destination" : [ "obj-26", 0 ],
					"hidden" : 0,
					"midpoints" : [ 59.5, 367.0, 92.5, 367.0 ]
				}

			}
, 			{
				"patchline" : 				{
					"source" : [ "obj-10", 1 ],
					"destination" : [ "obj-26", 0 ],
					"hidden" : 0,
					"midpoints" : [ 550.5, 373.0, 92.5, 373.0 ]
				}

			}
, 			{
				"patchline" : 				{
					"source" : [ "obj-6", 0 ],
					"destination" : [ "obj-26", 0 ],
					"hidden" : 0,
					"midpoints" : [ 573.5, 384.0, 92.5, 384.0 ]
				}

			}
, 			{
				"patchline" : 				{
					"source" : [ "obj-27", 0 ],
					"destination" : [ "obj-24", 0 ],
					"hidden" : 0,
					"midpoints" : [  ]
				}

			}
, 			{
				"patchline" : 				{
					"source" : [ "obj-31", 0 ],
					"destination" : [ "obj-27", 0 ],
					"hidden" : 0,
					"midpoints" : [  ]
				}

			}
, 			{
				"patchline" : 				{
					"source" : [ "obj-32", 0 ],
					"destination" : [ "obj-31", 0 ],
					"hidden" : 0,
					"midpoints" : [  ]
				}

			}
, 			{
				"patchline" : 				{
					"source" : [ "obj-33", 0 ],
					"destination" : [ "obj-32", 0 ],
					"hidden" : 0,
					"midpoints" : [  ]
				}

			}
, 			{
				"patchline" : 				{
					"source" : [ "obj-23", 1 ],
					"destination" : [ "obj-33", 0 ],
					"hidden" : 0,
					"midpoints" : [  ]
				}

			}
, 			{
				"patchline" : 				{
					"source" : [ "obj-23", 0 ],
					"destination" : [ "obj-11", 0 ],
					"hidden" : 0,
					"midpoints" : [ 59.5, 73.0, 74.0, 73.0 ]
				}

			}
, 			{
				"patchline" : 				{
					"source" : [ "obj-34", 0 ],
					"destination" : [ "obj-23", 0 ],
					"hidden" : 0,
					"midpoints" : [  ]
				}

			}
 ]
	}

}
