{
	"patcher" : 	{
		"fileversion" : 1,
		"rect" : [ 361.0, 296.0, 326.0, 364.0 ],
		"bgcolor" : [ 0.882353, 0.862745, 0.815686, 1.0 ],
		"bglocked" : 0,
		"defrect" : [ 361.0, 296.0, 326.0, 364.0 ],
		"openrect" : [ 0.0, 0.0, 0.0, 0.0 ],
		"openinpresentation" : 0,
		"default_fontsize" : 12.0,
		"default_fontface" : 0,
		"default_fontname" : "Arial",
		"gridonopen" : 0,
		"gridsize" : [ 15.0, 15.0 ],
		"gridsnaponopen" : 0,
		"toolbarvisible" : 1,
		"boxanimatetime" : 200,
		"imprint" : 0,
		"enablehscroll" : 1,
		"enablevscroll" : 1,
		"devicewidth" : 0.0,
		"boxes" : [ 			{
				"box" : 				{
					"maxclass" : "comment",
					"varname" : "copyright-comment",
					"text" : "Copyright ©2003-2010",
					"fontsize" : 10.0,
					"frgb" : [ 0.0, 0.0, 0.0, 0.901961 ],
					"patching_rect" : [ 23.0, 277.0, 111.0, 18.0 ],
					"numinlets" : 1,
					"id" : "obj-17",
					"fontname" : "Arial",
					"textcolor" : [ 0.0, 0.0, 0.0, 0.901961 ],
					"numoutlets" : 0
				}

			}
, 			{
				"box" : 				{
					"maxclass" : "comment",
					"varname" : "support-comment",
					"text" : "Support:\nInternational Academy of Media Arts & Sciences (IAMAS) \n– Gifu, Japan",
					"linecount" : 3,
					"fontsize" : 9.0,
					"patching_rect" : [ 23.0, 234.5, 243.0, 38.0 ],
					"numinlets" : 1,
					"id" : "obj-18",
					"fontname" : "Arial",
					"numoutlets" : 0
				}

			}
, 			{
				"box" : 				{
					"maxclass" : "comment",
					"varname" : "email-comment",
					"text" : "jmp@jmpelletier.com\n",
					"fontsize" : 10.0,
					"frgb" : [ 0.0, 0.0, 0.0, 0.901961 ],
					"patching_rect" : [ 158.0, 212.0, 105.0, 18.0 ],
					"numinlets" : 1,
					"id" : "obj-19",
					"fontname" : "Arial",
					"textcolor" : [ 0.0, 0.0, 0.0, 0.901961 ],
					"numoutlets" : 0
				}

			}
, 			{
				"box" : 				{
					"maxclass" : "comment",
					"varname" : "me-comment",
					"text" : "By Jean-Marc Pelletier\n",
					"fontsize" : 12.0,
					"patching_rect" : [ 23.0, 210.0, 135.0, 20.0 ],
					"numinlets" : 1,
					"id" : "obj-22",
					"fontname" : "Arial",
					"numoutlets" : 0
				}

			}
, 			{
				"box" : 				{
					"maxclass" : "panel",
					"varname" : "copyright-panel",
					"bgcolor" : [ 1.0, 1.0, 1.0, 0.403922 ],
					"border" : 1,
					"patching_rect" : [ 18.0, 205.0, 250.0, 95.0 ],
					"numinlets" : 1,
					"id" : "obj-49",
					"numoutlets" : 0,
					"bordercolor" : [ 0.0, 0.0, 0.0, 0.647059 ]
				}

			}
, 			{
				"box" : 				{
					"maxclass" : "newobj",
					"text" : "p random_bg_colour",
					"fontsize" : 10.0,
					"hidden" : 1,
					"patching_rect" : [ 39.0, 308.0, 102.0, 18.0 ],
					"numinlets" : 0,
					"id" : "obj-40",
					"fontname" : "Arial",
					"numoutlets" : 3,
					"outlettype" : [ "int", "int", "int" ],
					"patcher" : 					{
						"fileversion" : 1,
						"rect" : [ 98.0, 217.0, 640.0, 480.0 ],
						"bglocked" : 0,
						"defrect" : [ 98.0, 217.0, 640.0, 480.0 ],
						"openrect" : [ 0.0, 0.0, 0.0, 0.0 ],
						"openinpresentation" : 0,
						"default_fontsize" : 12.0,
						"default_fontface" : 0,
						"default_fontname" : "Arial",
						"gridonopen" : 0,
						"gridsize" : [ 15.0, 15.0 ],
						"gridsnaponopen" : 0,
						"toolbarvisible" : 1,
						"boxanimatetime" : 200,
						"imprint" : 0,
						"enablehscroll" : 1,
						"enablevscroll" : 1,
						"devicewidth" : 0.0,
						"boxes" : [ 							{
								"box" : 								{
									"maxclass" : "newobj",
									"text" : "loadbang",
									"fontsize" : 10.0,
									"patching_rect" : [ 50.0, 100.0, 59.0, 18.0 ],
									"numinlets" : 1,
									"id" : "obj-13",
									"fontname" : "Arial",
									"numoutlets" : 1,
									"outlettype" : [ "bang" ]
								}

							}
, 							{
								"box" : 								{
									"maxclass" : "newobj",
									"text" : "!- 215",
									"fontsize" : 10.0,
									"patching_rect" : [ 168.0, 161.004089, 36.0, 18.0 ],
									"numinlets" : 2,
									"id" : "obj-9",
									"fontname" : "Arial",
									"numoutlets" : 1,
									"outlettype" : [ "int" ]
								}

							}
, 							{
								"box" : 								{
									"maxclass" : "newobj",
									"text" : "!- 225",
									"fontsize" : 10.0,
									"patching_rect" : [ 109.0, 161.004089, 36.0, 18.0 ],
									"numinlets" : 2,
									"id" : "obj-8",
									"fontname" : "Arial",
									"numoutlets" : 1,
									"outlettype" : [ "int" ]
								}

							}
, 							{
								"box" : 								{
									"maxclass" : "newobj",
									"text" : "+ 225",
									"fontsize" : 10.0,
									"patching_rect" : [ 50.0, 161.004089, 36.0, 18.0 ],
									"numinlets" : 2,
									"id" : "obj-7",
									"fontname" : "Arial",
									"numoutlets" : 1,
									"outlettype" : [ "int" ]
								}

							}
, 							{
								"box" : 								{
									"maxclass" : "newobj",
									"text" : "b 3",
									"fontsize" : 10.0,
									"patching_rect" : [ 50.0, 120.621155, 137.0, 18.0 ],
									"numinlets" : 1,
									"id" : "obj-6",
									"fontname" : "Arial",
									"numoutlets" : 3,
									"outlettype" : [ "bang", "bang", "bang" ]
								}

							}
, 							{
								"box" : 								{
									"maxclass" : "newobj",
									"text" : "random 10",
									"fontsize" : 10.0,
									"patching_rect" : [ 168.0, 140.745117, 58.0, 18.0 ],
									"numinlets" : 2,
									"id" : "obj-5",
									"fontname" : "Arial",
									"numoutlets" : 1,
									"outlettype" : [ "int" ]
								}

							}
, 							{
								"box" : 								{
									"maxclass" : "newobj",
									"text" : "random 10",
									"fontsize" : 10.0,
									"patching_rect" : [ 109.0, 140.745117, 58.0, 18.0 ],
									"numinlets" : 2,
									"id" : "obj-4",
									"fontname" : "Arial",
									"numoutlets" : 1,
									"outlettype" : [ "int" ]
								}

							}
, 							{
								"box" : 								{
									"maxclass" : "newobj",
									"text" : "random 3",
									"fontsize" : 10.0,
									"patching_rect" : [ 50.0, 140.964417, 53.0, 18.0 ],
									"numinlets" : 2,
									"id" : "obj-3",
									"fontname" : "Arial",
									"numoutlets" : 1,
									"outlettype" : [ "int" ]
								}

							}
, 							{
								"box" : 								{
									"maxclass" : "outlet",
									"patching_rect" : [ 50.0, 239.004089, 25.0, 25.0 ],
									"numinlets" : 1,
									"id" : "obj-37",
									"numoutlets" : 0,
									"comment" : ""
								}

							}
, 							{
								"box" : 								{
									"maxclass" : "outlet",
									"patching_rect" : [ 109.0, 239.004089, 25.0, 25.0 ],
									"numinlets" : 1,
									"id" : "obj-38",
									"numoutlets" : 0,
									"comment" : ""
								}

							}
, 							{
								"box" : 								{
									"maxclass" : "outlet",
									"patching_rect" : [ 168.0, 239.004089, 25.0, 25.0 ],
									"numinlets" : 1,
									"id" : "obj-39",
									"numoutlets" : 0,
									"comment" : ""
								}

							}
 ],
						"lines" : [ 							{
								"patchline" : 								{
									"source" : [ "obj-6", 1 ],
									"destination" : [ "obj-4", 0 ],
									"hidden" : 0,
									"midpoints" : [  ]
								}

							}
, 							{
								"patchline" : 								{
									"source" : [ "obj-6", 2 ],
									"destination" : [ "obj-5", 0 ],
									"hidden" : 0,
									"midpoints" : [  ]
								}

							}
, 							{
								"patchline" : 								{
									"source" : [ "obj-6", 0 ],
									"destination" : [ "obj-3", 0 ],
									"hidden" : 0,
									"midpoints" : [  ]
								}

							}
, 							{
								"patchline" : 								{
									"source" : [ "obj-13", 0 ],
									"destination" : [ "obj-6", 0 ],
									"hidden" : 0,
									"midpoints" : [  ]
								}

							}
, 							{
								"patchline" : 								{
									"source" : [ "obj-3", 0 ],
									"destination" : [ "obj-7", 0 ],
									"hidden" : 0,
									"midpoints" : [  ]
								}

							}
, 							{
								"patchline" : 								{
									"source" : [ "obj-7", 0 ],
									"destination" : [ "obj-37", 0 ],
									"hidden" : 0,
									"midpoints" : [  ]
								}

							}
, 							{
								"patchline" : 								{
									"source" : [ "obj-4", 0 ],
									"destination" : [ "obj-8", 0 ],
									"hidden" : 0,
									"midpoints" : [  ]
								}

							}
, 							{
								"patchline" : 								{
									"source" : [ "obj-8", 0 ],
									"destination" : [ "obj-38", 0 ],
									"hidden" : 0,
									"midpoints" : [  ]
								}

							}
, 							{
								"patchline" : 								{
									"source" : [ "obj-5", 0 ],
									"destination" : [ "obj-9", 0 ],
									"hidden" : 0,
									"midpoints" : [  ]
								}

							}
, 							{
								"patchline" : 								{
									"source" : [ "obj-9", 0 ],
									"destination" : [ "obj-39", 0 ],
									"hidden" : 0,
									"midpoints" : [  ]
								}

							}
 ]
					}
,
					"saved_object_attributes" : 					{
						"fontsize" : 12.0,
						"default_fontname" : "Arial",
						"default_fontsize" : 12.0,
						"fontname" : "Arial",
						"globalpatchername" : "",
						"default_fontface" : 0,
						"fontface" : 0
					}

				}

			}
, 			{
				"box" : 				{
					"maxclass" : "newobj",
					"text" : "bgcolor",
					"fontsize" : 10.0,
					"hidden" : 1,
					"patching_rect" : [ 39.0, 328.379517, 143.5, 18.0 ],
					"numinlets" : 4,
					"id" : "obj-10",
					"fontname" : "Arial",
					"numoutlets" : 0
				}

			}
, 			{
				"box" : 				{
					"maxclass" : "newobj",
					"text" : "route done",
					"fontsize" : 10.0,
					"patching_rect" : [ 201.0, 64.0, 58.0, 18.0 ],
					"numinlets" : 1,
					"id" : "obj-2",
					"fontname" : "Arial",
					"numoutlets" : 2,
					"outlettype" : [ "", "" ]
				}

			}
, 			{
				"box" : 				{
					"maxclass" : "newobj",
					"text" : "prepend dim",
					"fontsize" : 10.0,
					"patching_rect" : [ 121.0, 64.0, 66.0, 18.0 ],
					"numinlets" : 1,
					"id" : "obj-8",
					"fontname" : "Arial",
					"numoutlets" : 1,
					"outlettype" : [ "" ]
				}

			}
, 			{
				"box" : 				{
					"maxclass" : "newobj",
					"text" : "loadbang",
					"fontsize" : 10.0,
					"patching_rect" : [ 121.0, 22.0, 52.0, 18.0 ],
					"numinlets" : 1,
					"id" : "obj-7",
					"fontname" : "Arial",
					"numoutlets" : 1,
					"outlettype" : [ "bang" ]
				}

			}
, 			{
				"box" : 				{
					"maxclass" : "newobj",
					"text" : "patcherargs",
					"fontsize" : 10.0,
					"patching_rect" : [ 121.0, 43.0, 99.0, 18.0 ],
					"numinlets" : 1,
					"id" : "obj-6",
					"fontname" : "Arial",
					"numoutlets" : 2,
					"outlettype" : [ "", "" ]
				}

			}
, 			{
				"box" : 				{
					"maxclass" : "newobj",
					"text" : "jit.qt.grab @vmode 2 @unique 1",
					"fontsize" : 10.0,
					"patching_rect" : [ 34.0, 103.0, 154.0, 18.0 ],
					"numinlets" : 1,
					"id" : "obj-5",
					"fontname" : "Arial",
					"numoutlets" : 2,
					"outlettype" : [ "jit_matrix", "" ]
				}

			}
, 			{
				"box" : 				{
					"maxclass" : "outlet",
					"patching_rect" : [ 169.0, 161.0, 25.0, 25.0 ],
					"numinlets" : 1,
					"id" : "obj-4",
					"numoutlets" : 0,
					"comment" : "dumpout"
				}

			}
, 			{
				"box" : 				{
					"maxclass" : "outlet",
					"patching_rect" : [ 34.0, 161.0, 25.0, 25.0 ],
					"numinlets" : 1,
					"id" : "obj-3",
					"numoutlets" : 0,
					"comment" : "(Matrix) out"
				}

			}
, 			{
				"box" : 				{
					"maxclass" : "inlet",
					"patching_rect" : [ 34.0, 29.0, 25.0, 25.0 ],
					"numinlets" : 0,
					"id" : "obj-1",
					"numoutlets" : 1,
					"outlettype" : [ "" ],
					"comment" : "Bang, messages in"
				}

			}
 ],
		"lines" : [ 			{
				"patchline" : 				{
					"source" : [ "obj-40", 0 ],
					"destination" : [ "obj-10", 0 ],
					"hidden" : 1,
					"midpoints" : [  ]
				}

			}
, 			{
				"patchline" : 				{
					"source" : [ "obj-40", 1 ],
					"destination" : [ "obj-10", 1 ],
					"hidden" : 1,
					"midpoints" : [  ]
				}

			}
, 			{
				"patchline" : 				{
					"source" : [ "obj-40", 2 ],
					"destination" : [ "obj-10", 2 ],
					"hidden" : 1,
					"midpoints" : [  ]
				}

			}
, 			{
				"patchline" : 				{
					"source" : [ "obj-8", 0 ],
					"destination" : [ "obj-5", 0 ],
					"hidden" : 0,
					"midpoints" : [ 130.5, 88.0, 43.5, 88.0 ]
				}

			}
, 			{
				"patchline" : 				{
					"source" : [ "obj-6", 0 ],
					"destination" : [ "obj-8", 0 ],
					"hidden" : 0,
					"midpoints" : [  ]
				}

			}
, 			{
				"patchline" : 				{
					"source" : [ "obj-7", 0 ],
					"destination" : [ "obj-6", 0 ],
					"hidden" : 0,
					"midpoints" : [  ]
				}

			}
, 			{
				"patchline" : 				{
					"source" : [ "obj-5", 1 ],
					"destination" : [ "obj-4", 0 ],
					"hidden" : 0,
					"midpoints" : [  ]
				}

			}
, 			{
				"patchline" : 				{
					"source" : [ "obj-5", 0 ],
					"destination" : [ "obj-3", 0 ],
					"hidden" : 0,
					"midpoints" : [  ]
				}

			}
, 			{
				"patchline" : 				{
					"source" : [ "obj-1", 0 ],
					"destination" : [ "obj-5", 0 ],
					"hidden" : 0,
					"midpoints" : [  ]
				}

			}
, 			{
				"patchline" : 				{
					"source" : [ "obj-6", 1 ],
					"destination" : [ "obj-2", 0 ],
					"hidden" : 0,
					"midpoints" : [  ]
				}

			}
, 			{
				"patchline" : 				{
					"source" : [ "obj-2", 1 ],
					"destination" : [ "obj-5", 0 ],
					"hidden" : 0,
					"midpoints" : [ 249.5, 94.0, 43.5, 94.0 ]
				}

			}
 ]
	}

}
